<svg width="24" height="24" viewBox="0 0 24 24" fill="none" xmlns="http://www.w3.org/2000/svg">
<g id="call">
<path id="Vector" fillRule="evenodd" clipRule="evenodd" d="M19.7303 16.996C19.2673 18.403 17.4533 19.105 16.1573 18.988C14.3873 18.828 12.4613 17.889 10.9993 16.855C8.8503 15.335 6.8373 12.984 5.6643 10.489C4.8353 8.72596 4.6493 6.55796 5.8823 4.95096C6.3383 4.35696 6.8323 4.03996 7.5723 4.00296C8.6003 3.95296 8.7443 4.54096 9.0973 5.45696C9.3603 6.14196 9.7113 6.84096 9.9073 7.55096C10.2743 8.87596 8.9913 8.93096 8.8293 10.014C8.7293 10.697 9.5563 11.613 9.9303 12.1C10.6512 13.0484 11.5341 13.862 12.5383 14.503C13.1083 14.862 14.0263 15.509 14.6783 15.152C15.6823 14.602 15.5883 12.909 16.9913 13.482C17.7183 13.778 18.4223 14.205 19.1163 14.579C20.1893 15.156 20.1393 15.754 19.7303 16.996C20.0363 16.068 19.4243 17.924 19.7303 16.996Z" fill="#1C1C1C"/>
</g>
</svg>
