<svg width="48" height="48" viewBox="0 0 48 48" fill="none" xmlns="http://www.w3.org/2000/svg">
<g id="Icons">
<path id="Vector" d="M34.5432 30.9295C35.1968 31.027 35.7983 31.3425 36.25 31.8248C36.7018 32.307 36.9774 32.9278 37.032 33.5863L40 31.7071V14.2247L26.4 5.32715L12.8 14.2247V28.9047L13.44 28.5551C14.35 28.0741 15.3906 27.8988 16.408 28.0551L20 28.6247V22.3999C20 21.7634 20.2528 21.153 20.7029 20.7029C21.153 20.2528 21.7635 19.9999 22.4 19.9999H30.4C31.0365 19.9999 31.647 20.2528 32.097 20.7029C32.5471 21.153 32.8 21.7634 32.8 22.3999V30.6535L34.5432 30.9295Z" fill="black"/>
<path id="Vector_2" d="M42.2984 13.8144L43.2 12.4432L26.8496 1.73281C26.7155 1.64603 26.5593 1.59985 26.3996 1.59985C26.2399 1.59985 26.0836 1.64603 25.9496 1.73281L9.60718 12.4232L10.4872 13.808L25.9616 3.70161C26.0922 3.61559 26.2452 3.56974 26.4016 3.56974C26.558 3.56974 26.711 3.61559 26.8416 3.70161L42.2912 13.812L42.2984 13.8144Z" fill="black"/>
<path id="Vector_3" d="M22.4 21.6C22.1878 21.6 21.9843 21.6843 21.8343 21.8343C21.6843 21.9843 21.6 22.1878 21.6 22.4V28.88L31.2 30.4V22.4C31.2 22.1878 31.1157 21.9843 30.9657 21.8343C30.8156 21.6843 30.6121 21.6 30.4 21.6H22.4Z" fill="black"/>
<path id="Vector_4" d="M19.2 3.19995H16V6.32955L19.2 4.23595V3.19995Z" fill="black"/>
<path id="Vector_5" d="M2.38958 40.8113C4.11358 40.8209 6.81518 40.8369 8.06958 40.8361H8.07998C8.65934 40.8365 9.23508 40.9275 9.78638 41.1057L25.8584 46.2841C26.2256 46.4022 26.616 46.4301 26.9963 46.3653C27.3766 46.3006 27.7357 46.1451 28.0432 45.9121L46 32.2713C46.1127 32.1822 46.2058 32.0709 46.2737 31.9444C46.3416 31.8178 46.3828 31.6786 46.3946 31.5355C46.4065 31.3924 46.3888 31.2483 46.3426 31.1123C46.2965 30.9763 46.2229 30.8512 46.1264 30.7449C46.1193 30.7375 46.1126 30.7298 46.1064 30.7217C45.9397 30.5454 45.7164 30.4334 45.4755 30.4054C45.2346 30.3773 44.9915 30.4349 44.7888 30.5681L29.12 40.4897C28.7786 40.7048 28.3799 40.8109 27.9767 40.7939C27.5736 40.7769 27.1852 40.6376 26.8632 40.3945L22.1312 36.8001H18.4C18.1878 36.8001 17.9843 36.7158 17.8343 36.5657C17.6843 36.4157 17.6 36.2122 17.6 36.0001C17.6 35.7879 17.6843 35.5844 17.8343 35.4344C17.9843 35.2843 18.1878 35.2001 18.4 35.2001H34.0912C34.4318 35.1996 34.7597 35.0707 35.0094 34.839C35.2591 34.6073 35.4122 34.29 35.4382 33.9504C35.4642 33.6107 35.3611 33.2738 35.1495 33.0069C34.9379 32.74 34.6334 32.5627 34.2968 32.5105L16.16 29.6361C15.486 29.5333 14.7969 29.6491 14.1936 29.9665L10.256 32.1161C9.43357 32.5638 8.51234 32.7989 7.57598 32.8001H2.39998C2.1878 32.8001 1.98432 32.8843 1.83429 33.0344C1.68426 33.1844 1.59998 33.3879 1.59998 33.6001V40.0113C1.59996 40.2216 1.68281 40.4236 1.8306 40.5733C1.97839 40.723 2.17921 40.8085 2.38958 40.8113Z" fill="black"/>
</g>
</svg>
