<svg width="48" height="48" viewBox="0 0 48 48" fill="none" xmlns="http://www.w3.org/2000/svg">
<g id="Frame" clipPath="url(#clip0_273_37)">
<path id="Vector" d="M22.158 14.573C21.9277 14.6925 21.6975 14.8203 21.4589 14.9652V16.1335C20.9776 15.8621 20.5333 15.5294 20.1369 15.1447C19.2534 14.3028 18.6163 13.2352 18.2953 12.0577C18.5064 11.7616 18.6675 11.4335 18.7729 11.0854H19.83C20.0037 12.1672 20.5283 13.1619 21.3223 13.9164C21.5775 14.1637 21.8578 14.3835 22.158 14.573Z" fill="black"/>
<path id="Vector_2" d="M31.6575 10.9319C31.6271 11.2105 31.5788 11.4869 31.5126 11.7592C31.2257 13.0566 30.5574 14.2383 29.594 15.1531L28.4169 13.9081C29.1397 13.2282 29.6389 12.3451 29.8496 11.3753C29.9429 11.0019 29.9887 10.618 29.9862 10.2328C29.9862 10.105 29.9774 9.97716 29.9691 9.85767L30.5916 10.4801C30.8747 10.7637 31.2569 10.9257 31.6575 10.9319Z" fill="black"/>
<path id="Vector_3" d="M14.9527 37.8456C14.8719 38.6821 15.3799 39.4632 16.1772 39.7285L33.4063 46.0003L38.297 44.3493C38.4802 44.2877 38.6792 44.2902 38.8612 44.3564L39.6631 44.647L42.5794 36.6315L37.224 34.6829L25.8625 36.6869C25.2625 36.7939 24.7645 37.2119 24.555 37.7844C24.5272 37.8527 24.5076 37.9239 24.4963 37.9968C24.493 38.0255 24.488 38.0538 24.4818 38.0821C24.4435 38.2761 24.4422 38.4756 24.4776 38.6705C24.65 39.5915 25.5294 40.2044 26.4533 40.0474L36.0523 38.3548L36.3492 40.0349L26.7456 41.7316C24.8919 42.051 23.1277 40.8156 22.7934 38.9644C22.7705 38.8091 22.758 38.6521 22.7551 38.4947L17.2223 36.4816C16.7389 36.305 16.2018 36.3563 15.7604 36.6211C15.3191 36.8863 15.021 37.336 14.9489 37.8456H14.9527Z" fill="black"/>
<path id="Vector_4" d="M40.6811 46.8335L44.7644 35.6152L47.9697 36.7819L43.8863 48.0002L40.6811 46.8335Z" fill="black"/>
<path id="Vector_5" d="M26.5428 5.40283C27.0129 5.92496 27.3081 6.58075 27.388 7.279L29.9674 9.85842C29.8167 7.8232 28.4706 6.07236 26.5428 5.40283Z" fill="black"/>
<path id="Vector_6" d="M31.6916 10.9319C32.2246 10.9381 32.7225 10.6675 33.0073 10.2165C33.39 9.55116 33.2638 8.71009 32.703 8.1863L25.765 1.2483C24.9672 0.446365 23.8817 -0.00290051 22.7509 1.40933e-05H13.9546L8.1512 2.48908C8.04503 2.53488 7.93053 2.55862 7.81519 2.5582H6.96246V9.38003H7.81519C8.28611 9.38003 8.66792 9.76185 8.66792 10.2328C8.66792 11.5239 10.7802 12.791 12.9316 12.791C15.083 12.791 17.1952 11.5239 17.1952 10.2328C17.1952 9.76185 17.577 9.38003 18.0479 9.38003H24.017C24.9589 9.38003 25.7225 8.61641 25.7225 7.67458C25.7225 6.73274 24.9589 5.96912 24.017 5.96912H14.637V4.26366H21.5963C22.5972 3.70614 23.7239 3.4126 24.8698 3.41093C28.6354 3.41509 31.6874 6.4671 31.6916 10.2328C31.6904 10.4651 31.677 10.697 31.6516 10.9277C31.665 10.9285 31.6779 10.9319 31.6916 10.9319Z" fill="black"/>
<path id="Vector_7" d="M0.140686 0H5.25706V11.9382H0.140686V0Z" fill="black"/>
<path id="Vector_8" d="M28.2807 19.6127V14.9689C27.2614 14.2694 26.0939 13.8155 24.8698 13.6436C23.9134 13.7543 22.9924 14.0699 22.1692 14.5687C22.5926 14.829 23.0527 15.0251 23.5336 15.1512C24.0104 14.5533 24.8281 14.3481 25.531 14.6499C26.2338 14.9518 26.6481 15.6863 26.5423 16.4441C26.437 17.2014 25.8378 17.7952 25.0792 17.8935C24.3206 17.9917 23.5899 17.5708 23.2946 16.865C22.6497 16.7126 22.0314 16.4657 21.4589 16.1318V19.6127C21.4589 20.0836 21.8407 20.4654 22.3116 20.4654H27.428C27.8989 20.4654 28.2807 20.0836 28.2807 19.6127Z" fill="black"/>
<path id="Vector_9" d="M24.8698 30.5974L25.7225 30.1711V22.1709H24.0171V30.1711L24.8698 30.5974Z" fill="black"/>
</g>
<defs>
<clipPath id="clip0_273_37">
<rect width="48" height="48" fill="white"/>
</clipPath>
</defs>
</svg>
