<svg width="56" height="49" viewBox="0 0 56 49" fill="none" xmlns="http://www.w3.org/2000/svg">
<g id="Frame">
<path id="Vector" d="M38.0363 6.78308H30.52C29.82 6.78308 29.1463 7.05933 28.63 7.55659L20.0287 15.8442C20.02 15.8534 20.0113 15.8718 20.0025 15.881C18.55 17.3175 18.5762 19.6104 19.8187 21.0377C20.93 22.3177 23.2663 22.6584 24.7275 21.2863C24.7363 21.2771 24.7537 21.2771 24.7625 21.2679L31.7537 14.5274C32.3225 13.9841 33.215 14.0209 33.7312 14.6194C34.2562 15.218 34.2125 16.148 33.6437 16.7005L31.36 18.9014L44.1 29.7857C44.3537 30.0067 44.5812 30.2461 44.7912 30.4947V12.6765L40.0137 7.64867C39.4975 7.09617 38.78 6.78308 38.0363 6.78308ZM47.6 12.6949V33.3125C47.6 34.9424 48.8512 36.2592 50.4 36.2592H56V12.6949H47.6ZM51.8 33.3125C51.03 33.3125 50.4 32.6495 50.4 31.8392C50.4 31.0288 51.03 30.3658 51.8 30.3658C52.57 30.3658 53.2 31.0288 53.2 31.8392C53.2 32.6495 52.57 33.3125 51.8 33.3125ZM0 36.25H5.6C7.14875 36.25 8.4 34.9332 8.4 33.3033V12.6949H0V36.25ZM4.2 30.3658C4.97 30.3658 5.6 31.0288 5.6 31.8392C5.6 32.6495 4.97 33.3125 4.2 33.3125C3.43 33.3125 2.8 32.6495 2.8 31.8392C2.8 31.0196 3.43 30.3658 4.2 30.3658ZM42.3412 32.0786L29.2775 20.918L26.6525 23.4503C24.0538 25.9458 20.0725 25.7064 17.7537 23.0451C15.4 20.3379 15.5837 16.148 18.1387 13.6802L25.2963 6.78308H17.9637C17.22 6.78308 16.5112 7.09617 15.9862 7.64867L11.2 12.6765V33.2941H12.8013L20.72 40.8358C23.1175 42.8893 26.6437 42.5025 28.595 39.9794L28.6125 39.961L30.1787 41.3883C31.57 42.5854 33.6263 42.3552 34.755 40.891L37.5025 37.3366L37.975 37.7418C39.1737 38.7639 40.9412 38.5797 41.9125 37.309L42.7437 36.2316C43.7237 34.9608 43.54 33.1099 42.3412 32.0786Z" fill="white"/>
</g>
</svg>
