<svg width="56" height="56" viewBox="0 0 56 56" fill="none" xmlns="http://www.w3.org/2000/svg">
<g id="Frame" clipPath="url(#clip0_273_108)">
<path id="Vector" d="M27.2582 16.2159L9.33333 32.8245V50.75C9.33333 51.2141 9.49721 51.6592 9.78894 51.9874C10.0807 52.3156 10.4763 52.5 10.8889 52.5L21.7836 52.4683C22.1948 52.466 22.5885 52.2806 22.8785 51.9526C23.1686 51.6247 23.3314 51.1809 23.3314 50.7183V40.25C23.3314 39.7859 23.4953 39.3407 23.787 39.0126C24.0787 38.6844 24.4744 38.5 24.8869 38.5H31.1092C31.5217 38.5 31.9174 38.6844 32.2091 39.0126C32.5008 39.3407 32.6647 39.7859 32.6647 40.25V50.7106C32.6641 50.9409 32.7038 51.169 32.7817 51.382C32.8596 51.5949 32.9741 51.7885 33.1186 51.9516C33.2631 52.1147 33.4348 52.2441 33.6239 52.3324C33.8129 52.4206 34.0156 52.4661 34.2203 52.4661L45.1111 52.5C45.5237 52.5 45.9193 52.3156 46.211 51.9874C46.5028 51.6592 46.6667 51.2141 46.6667 50.75V32.8125L28.7457 16.2159C28.535 16.0249 28.2725 15.9207 28.0019 15.9207C27.7313 15.9207 27.4689 16.0249 27.2582 16.2159ZM55.5722 27.5045L47.4444 19.9675V4.81796C47.4444 4.46987 47.3215 4.13603 47.1027 3.88989C46.8839 3.64374 46.5872 3.50546 46.2778 3.50546H40.8333C40.5239 3.50546 40.2272 3.64374 40.0084 3.88989C39.7896 4.13603 39.6667 4.46987 39.6667 4.81796V12.7597L30.9624 4.70312C30.127 3.92981 29.0789 3.50701 27.9971 3.50701C26.9153 3.50701 25.8671 3.92981 25.0318 4.70312L0.421937 27.5045C0.3038 27.6144 0.20606 27.7493 0.134302 27.9017C0.0625442 28.0541 0.0181748 28.2208 0.00372892 28.3925C-0.010717 28.5641 0.00504385 28.7373 0.0501108 28.9021C0.0951777 29.0669 0.168668 29.2201 0.266381 29.353L2.74555 32.7436C2.843 32.8769 2.96286 32.9873 3.09827 33.0684C3.23368 33.1495 3.38199 33.1998 3.53469 33.2163C3.6874 33.2329 3.84151 33.2154 3.9882 33.1649C4.1349 33.1144 4.27129 33.0318 4.38958 32.9219L27.2582 11.7316C27.4689 11.5405 27.7313 11.4363 28.0019 11.4363C28.2725 11.4363 28.535 11.5405 28.7457 11.7316L51.6153 32.9219C51.7334 33.0318 51.8695 33.1145 52.016 33.1652C52.1625 33.2159 52.3164 33.2336 52.469 33.2174C52.6216 33.2011 52.7699 33.1512 52.9053 33.0705C53.0407 32.9897 53.1607 32.8798 53.2583 32.7469L55.7375 29.3562C55.8351 29.2226 55.9083 29.0686 55.9528 28.9031C55.9974 28.7376 56.0124 28.5638 55.997 28.3917C55.9817 28.2197 55.9362 28.0527 55.8633 27.9004C55.7904 27.7482 55.6915 27.6136 55.5722 27.5045Z" fill="white"/>
</g>
<defs>
<clipPath id="clip0_273_108">
<rect width="56" height="56" fill="white"/>
</clipPath>
</defs>
</svg>
