<svg width="48" height="48" viewBox="0 0 48 48" fill="none" xmlns="http://www.w3.org/2000/svg">
<g id="Frame" clip-path="url(#clip0_273_47)">
<path id="Vector" d="M6.85712 30.7236H8.5714V26.8978C8.01853 27.095 7.44222 27.2172 6.85712 27.2624V30.7236Z" fill="black"/>
<path id="Vector_2" d="M26.5714 12.7237H29.1429C29.6162 12.7237 30 12.3399 30 11.8665C30 11.3928 29.6162 11.0094 29.1429 11.0094H26.5714C26.0981 11.0094 25.7143 11.3928 25.7143 11.8665C25.7143 12.3399 26.0981 12.7237 26.5714 12.7237Z" fill="black"/>
<path id="Vector_3" d="M26.5714 9.2951H29.1429C29.6162 9.2951 30 8.91131 30 8.43795C30 7.96418 29.6162 7.58081 29.1429 7.58081H26.5714C26.0981 7.58081 25.7143 7.96418 25.7143 8.43795C25.7143 8.91131 26.0981 9.2951 26.5714 9.2951Z" fill="black"/>
<path id="Vector_4" d="M0 30.7236H5.14286V20.4379H0V30.7236Z" fill="black"/>
<path id="Vector_5" d="M11.0102 23.0194C11.2475 22.9822 11.4898 23.0466 11.6777 23.1969L14.2236 25.2284C14.7999 25.6695 15.6236 25.5687 16.0764 25.0011C16.4962 24.4462 16.4075 23.6593 15.8743 23.2124L12.3076 20.2387C12.0305 20.0077 11.928 19.6277 12.051 19.2882C12.1737 18.9492 12.4963 18.7232 12.8571 18.7237H17.8012L14.196 16.9236C13.3949 16.5205 12.4415 16.567 11.6836 17.0462L6.85712 20.0562V25.5532C7.48742 25.487 8.09889 25.2983 8.6572 24.9978C8.75304 24.9484 8.84596 24.8927 8.93468 24.8316C9.53318 24.4667 10.0446 23.9757 10.433 23.3923C10.5648 23.1931 10.7741 23.0579 11.0102 23.0194Z" fill="black"/>
<path id="Vector_6" d="M18 35.8664H19.7143V34.1522H21.4286V35.8664H23.1429V32.4379H18V35.8664Z" fill="black"/>
<path id="Vector_7" d="M26.5714 16.1522H29.1429C29.6162 16.1522 30 15.7684 30 15.295C30 14.8212 29.6162 14.4379 29.1429 14.4379H26.5714C26.0981 14.4379 25.7143 14.8212 25.7143 15.295C25.7143 15.7684 26.0981 16.1522 26.5714 16.1522Z" fill="black"/>
<path id="Vector_8" d="M26.5714 19.5807H29.1429C29.6162 19.5807 30 19.197 30 18.7236C30 18.2498 29.6162 17.8665 29.1429 17.8665H26.5714C26.0981 17.8665 25.7143 18.2498 25.7143 18.7236C25.7143 19.197 26.0981 19.5807 26.5714 19.5807Z" fill="black"/>
<path id="Vector_9" d="M24.2544 30.7236L20.5714 27.5667L16.8884 30.7236H24.2544Z" fill="black"/>
<path id="Vector_10" d="M36.5144 2.43795C36.9325 2.44172 37.3493 2.48985 37.757 2.58193L38.3048 0.107178L35.3048 0.707345C35.1939 0.729527 35.0797 0.729527 34.9688 0.707345L31.9688 0.107178L32.4969 2.43795H36.5144Z" fill="black"/>
<path id="Vector_11" d="M30.8571 5.86651H35.1429C35.4438 5.86651 35.7225 6.02429 35.8774 6.2821L36.4516 7.23928C37.4573 8.90418 39.2038 9.98188 41.1429 10.1342V7.81977L40.1924 6.23481C39.4143 4.94575 38.0198 4.15599 36.5144 4.15222H30.8571C30.3838 4.15222 30 4.53559 30 5.00936C30 5.48272 30.3838 5.86651 30.8571 5.86651Z" fill="black"/>
<path id="Vector_12" d="M24.0084 20.7978C24.0033 20.6844 24.0084 20.5592 24.0084 20.4379H15.2239L16.9721 21.8948C17.9477 22.7088 18.3097 24.046 17.8782 25.2409C17.4463 26.4354 16.3133 27.2326 15.0427 27.2347C14.358 27.2306 13.6938 26.997 13.1572 26.5714L11.286 25.0781C10.9846 25.4079 10.6494 25.705 10.2857 25.9645V47.0093C10.2857 47.4827 10.6695 47.8664 11.1428 47.8664H30C30.4733 47.8664 30.8571 47.4827 30.8571 47.0093V30.701C26.8476 29.0064 24.1787 25.1471 24.0084 20.7978ZM17.1428 44.4379H12V42.7236H17.1428V44.4379ZM17.1428 41.0093H12V39.295H17.1428V41.0093ZM16.2857 36.7236V32.4379H14.5714C14.2132 32.4374 13.8926 32.214 13.7683 31.8775C13.644 31.5414 13.7423 31.1635 14.0144 30.9299L20.0144 25.7871C20.335 25.5129 20.8079 25.5129 21.1285 25.7871L27.1285 30.9299C27.4005 31.1635 27.4989 31.5414 27.3746 31.8775C27.2503 32.214 26.9297 32.4374 26.5714 32.4379H24.8571V36.7236C24.8571 37.1969 24.4733 37.5807 24 37.5807H17.1428C16.6695 37.5807 16.2857 37.1969 16.2857 36.7236ZM29.1428 44.4379H25.7143V42.7236H29.1428V44.4379ZM29.1428 41.0093H23.1428V39.295H29.1428V41.0093Z" fill="black"/>
<path id="Vector_13" d="M42.8571 8.43787V12.331C42.9898 12.4875 43.122 12.6445 43.2539 12.7981L43.5523 13.1409C44.9338 14.7153 45.8354 16.6527 46.1509 18.7236H48V8.43787H42.8571Z" fill="black"/>
<path id="Vector_14" d="M42.257 14.2664L41.9573 13.9181C41.7497 13.6767 41.5413 13.4356 41.3408 13.1941C40.9123 12.6919 40.5327 12.2039 40.1811 11.7179C38.0161 11.3132 36.126 10.0053 34.9834 8.12238L34.6578 7.58081H33.018L31.1409 10.2678C31.9399 11.2412 31.8993 12.6546 31.0459 13.5808C31.9374 14.5497 31.9374 16.0401 31.0459 17.0094C31.7306 17.7598 31.9064 18.8446 31.4942 19.7738C31.0819 20.7025 30.1591 21.2993 29.1429 21.2951H26.5715C26.2915 21.2917 26.014 21.2419 25.7503 21.1482C26.0571 24.8609 28.5025 28.0535 32.0073 29.3162C32.8887 29.6359 33.8136 29.8192 34.7503 29.8586C37.3167 29.9657 39.8162 29.0207 41.6698 27.2424C43.5235 25.464 44.5715 23.0065 44.5715 20.438C44.5715 20.173 44.5639 19.9165 44.5405 19.6595C44.3802 17.6627 43.5795 15.771 42.257 14.2664ZM34.2071 18.3658L36.6249 19.1711C37.9001 19.5934 38.705 20.8515 38.5543 22.1866C38.4032 23.5217 37.3376 24.5684 36 24.6952V25.5808H34.2857V24.6952C32.8309 24.5558 31.7185 23.3358 31.7143 21.8743H33.4286C33.4294 22.5009 33.9371 23.0081 34.5636 23.0094H35.7221C36.2792 23.0085 36.7534 22.6047 36.8425 22.0551C36.9317 21.5052 36.609 20.972 36.0808 20.7962L33.6626 19.9914C32.3865 19.5695 31.5804 18.3114 31.7311 16.9755C31.8817 15.64 32.9477 14.5928 34.2857 14.466V13.5808H36V14.466C37.4548 14.6054 38.5673 15.8254 38.5715 17.2869H36.8572C36.8563 16.6603 36.3487 16.1531 35.7221 16.1522H34.5636C34.0066 16.1527 33.5324 16.5565 33.4432 17.1061C33.3541 17.656 33.6768 18.1892 34.205 18.365L34.2071 18.3658Z" fill="black"/>
<path id="Vector_15" d="M34.2857 33.295H36V35.0093H34.2857V33.295Z" fill="black"/>
<path id="Vector_16" d="M34.2857 36.7236H36V38.4379H34.2857V36.7236Z" fill="black"/>
<path id="Vector_17" d="M34.2857 40.1522H36V43.5808H34.2857V40.1522Z" fill="black"/>
</g>
<defs>
<clipPath id="clip0_273_47">
<rect width="48" height="48" fill="white"/>
</clipPath>
</defs>
</svg>
