<svg width="56" height="56" viewBox="0 0 56 56" fill="none" xmlns="http://www.w3.org/2000/svg">
<g id="Frame">
<path id="Vector" d="M28 15.75C23.3607 15.75 19.6 21.2341 19.6 28C19.6 34.7648 23.3607 40.25 28 40.25C32.6375 40.25 36.4 34.767 36.4 28C36.4 21.2341 32.6392 15.75 28 15.75ZM31.5 34.125C31.5 34.6084 31.1867 35 30.8 35H25.2C24.8132 35 24.5 34.6084 24.5 34.125V32.375C24.5 31.8916 24.8132 31.5 25.2 31.5H26.6V25.4362L26.5589 25.4702C26.4824 25.5339 26.3967 25.5782 26.3065 25.6006C26.2163 25.6229 26.1235 25.6228 26.0334 25.6002C25.9433 25.5777 25.8576 25.5331 25.7813 25.4691C25.7049 25.4052 25.6394 25.323 25.5885 25.2273L24.8115 23.7716C24.7605 23.676 24.725 23.5688 24.7072 23.4561C24.6893 23.3434 24.6894 23.2274 24.7075 23.1147C24.7255 23.0021 24.7611 22.895 24.8123 22.7996C24.8635 22.7041 24.9292 22.6222 25.0057 22.5586L26.3471 21.4408C26.692 21.1533 27.0972 21 27.5118 21H28.7C29.0867 21 29.4 21.3916 29.4 21.875V31.5H30.8C31.1867 31.5 31.5 31.8916 31.5 32.375V34.125ZM53.2 7H2.8C1.25387 7 0 8.56734 0 10.5V45.5C0 47.4327 1.25387 49 2.8 49H53.2C54.7461 49 56 47.4327 56 45.5V10.5C56 8.56734 54.7461 7 53.2 7ZM51.8 36.75C48.7069 36.75 46.2 39.8836 46.2 43.75H9.8C9.8 39.8836 7.29312 36.75 4.2 36.75V19.25C7.29312 19.25 9.8 16.1164 9.8 12.25H46.2C46.2 16.1164 48.7069 19.25 51.8 19.25V36.75Z" fill="white"/>
</g>
</svg>
