<?xml version="1.0" standalone="no"?>
<!DOCTYPE svg PUBLIC "-//W3C//DTD SVG 20010904//EN"
 "http://www.w3.org/TR/2001/REC-SVG-20010904/DTD/svg10.dtd">
<svg version="1.0" xmlns="http://www.w3.org/2000/svg"
 width="559.000000pt" height="543.000000pt" viewBox="0 0 559.000000 543.000000"
 preserveAspectRatio="xMidYMid meet">

<g transform="translate(0.000000,543.000000) scale(0.100000,-0.100000)"
fill="#000000" stroke="none">
<path d="M5130 5410 c-8 -11 -25 -20 -37 -20 -20 0 -23 -5 -23 -35 0 -32 -2
-35 -30 -35 -21 0 -30 -5 -30 -16 0 -23 -25 -44 -54 -44 -22 0 -26 -4 -26 -30
0 -27 -3 -30 -30 -30 -28 0 -30 -3 -30 -35 0 -33 -2 -35 -35 -35 -32 0 -35 -2
-35 -30 0 -27 -3 -30 -29 -30 -25 0 -30 -4 -33 -27 -2 -22 -9 -29 -30 -31 -16
-2 -28 -8 -28 -13 0 -5 -16 -9 -35 -9 -25 0 -35 -4 -35 -16 0 -8 -6 -22 -14
-30 -8 -8 -22 -14 -30 -14 -10 0 -16 -9 -16 -21 0 -28 -23 -49 -54 -49 -21 0
-26 -5 -26 -24 0 -14 -5 -28 -12 -32 -7 -4 -8 -3 -4 4 10 16 -5 15 -26 -2 -10
-7 -18 -25 -18 -40 0 -25 -2 -26 -55 -26 l-55 0 0 -35 c0 -34 -1 -35 -40 -35
-38 0 -40 -2 -40 -30 0 -28 -3 -30 -35 -30 -32 0 -35 -2 -35 -30 0 -27 -3 -30
-30 -30 -27 0 -30 -3 -30 -30 0 -27 -3 -30 -30 -30 -20 0 -30 -5 -30 -15 0 -8
-4 -15 -10 -15 -5 0 -10 -9 -10 -20 0 -13 -7 -20 -20 -20 -11 0 -20 -4 -20
-10 0 -5 -7 -10 -15 -10 -8 0 -15 -9 -15 -20 0 -16 -7 -20 -30 -20 -16 0 -30
-4 -30 -10 0 -5 -9 -10 -20 -10 -14 0 -20 -7 -21 -22 0 -22 -1 -22 -9 -3 -8
18 -9 17 -9 -7 -1 -24 -5 -28 -31 -28 -28 0 -30 -3 -30 -35 0 -33 -2 -35 -35
-35 -32 0 -35 -2 -35 -30 0 -27 -3 -30 -30 -30 -27 0 -30 -3 -30 -30 l0 -30
-60 0 -60 0 0 -30 c0 -28 -3 -30 -35 -30 -33 0 -35 -2 -35 -35 0 -32 -2 -35
-30 -35 -27 0 -30 -3 -30 -30 0 -26 -4 -30 -26 -30 -29 0 -54 -21 -54 -44 0
-10 -9 -16 -21 -16 -26 0 -49 -23 -49 -49 0 -14 -6 -21 -20 -21 -11 0 -20 -5
-20 -10 0 -6 -3 -9 -7 -9 -31 5 -50 -5 -61 -31 -11 -23 -20 -30 -43 -30 -26 0
-29 -4 -29 -30 0 -28 -3 -30 -35 -30 -32 0 -35 -2 -35 -30 0 -27 -3 -30 -30
-30 -28 0 -30 -3 -30 -35 l0 -35 -65 0 -65 0 0 -30 c0 -16 -4 -30 -10 -30 -5
0 -10 -13 -10 -30 0 -28 -3 -30 -37 -31 -21 -1 -42 -1 -46 0 -15 3 -38 -27
-27 -34 16 -10 -8 -35 -31 -35 -11 0 -19 -4 -19 -10 0 -5 -7 -10 -15 -10 -10
0 -15 -10 -15 -30 0 -27 -3 -30 -30 -30 -27 0 -30 -3 -30 -30 0 -27 -3 -30
-30 -30 -23 0 -30 -4 -30 -20 0 -11 -3 -19 -7 -19 -28 5 -53 -3 -53 -16 0 -10
-11 -15 -35 -15 -32 0 -35 -2 -35 -30 0 -27 -3 -30 -30 -30 -27 0 -30 -3 -30
-30 0 -28 -2 -30 -40 -30 -22 0 -40 -5 -40 -11 0 -5 3 -8 7 -6 5 3 9 -6 9 -19
2 -22 -2 -24 -42 -24 -44 0 -44 0 -44 -35 0 -32 -2 -35 -30 -35 -27 0 -30 -3
-30 -30 0 -27 -3 -30 -30 -30 -27 0 -30 -3 -30 -30 0 -27 -3 -30 -30 -30 -16
0 -30 -4 -30 -10 0 -5 -16 -10 -35 -10 -33 0 -35 -2 -35 -35 0 -32 -2 -35 -30
-35 -27 0 -30 -3 -30 -30 0 -27 -3 -30 -30 -30 -21 0 -30 -5 -30 -16 0 -25
-26 -44 -59 -44 -28 0 -31 -3 -31 -30 0 -27 -3 -30 -30 -30 -30 0 -34 -6 -30
-47 1 -22 -2 -23 -59 -23 l-61 0 0 -30 c0 -28 -3 -30 -35 -30 -32 0 -35 -2
-35 -30 0 -27 -3 -30 -30 -30 -28 0 -30 -3 -30 -35 0 -31 -3 -35 -26 -35 -23
0 -55 -21 -54 -35 1 -21 -3 -25 -25 -25 -14 0 -25 -4 -25 -10 0 -5 -13 -10
-30 -10 -21 0 -30 -5 -30 -16 0 -27 -27 -44 -70 -44 -43 0 -70 17 -70 44 0 10
-9 16 -21 16 -24 0 -49 22 -49 44 0 11 -9 16 -30 16 -29 0 -30 2 -30 45 0 43
-1 45 -30 45 -27 0 -30 3 -30 30 0 28 -3 30 -35 30 -32 0 -35 2 -35 29 0 27
-3 30 -37 33 -20 2 -39 9 -41 17 -3 8 0 11 6 7 6 -4 6 3 -1 19 -9 18 -20 25
-39 25 -24 0 -28 4 -28 30 0 23 -4 30 -20 30 -11 0 -20 5 -20 10 0 6 -5 10
-11 10 -5 0 -7 -5 -3 -12 4 -7 3 -8 -4 -4 -7 4 -12 18 -12 32 0 20 -5 24 -30
24 -27 0 -30 3 -30 30 0 27 -3 30 -30 30 -20 0 -30 5 -30 15 0 8 -9 15 -20 15
-13 0 -20 7 -20 20 0 11 -4 20 -10 20 -5 0 -10 14 -10 31 0 28 -2 31 -24 25
-16 -4 -30 0 -40 9 -8 8 -26 15 -40 15 -22 0 -26 4 -26 30 0 27 -3 30 -30 30
-28 0 -30 3 -30 35 0 19 -4 35 -10 35 -5 0 -10 14 -10 30 0 30 -1 30 -55 30
-54 0 -55 0 -55 -30 0 -25 -4 -30 -25 -30 -24 0 -25 -2 -25 -65 0 -40 4 -65
11 -65 26 0 39 -30 39 -89 0 -54 2 -61 20 -61 13 0 20 -7 20 -20 0 -11 7 -20
15 -20 12 0 15 -14 15 -70 l0 -70 30 0 30 0 0 -93 c0 -83 2 -94 21 -105 12 -8
19 -9 15 -4 -3 5 1 9 9 9 8 0 14 -3 13 -6 0 -3 0 -59 1 -123 l1 -118 30 0 29
0 3 -102 3 -103 33 -3 32 -3 0 -65 c0 -36 4 -64 10 -64 6 0 10 -13 10 -30 0
-23 4 -30 20 -30 18 0 20 -7 20 -65 0 -37 4 -65 10 -65 6 0 10 -18 10 -40 0
-33 3 -40 19 -40 16 0 20 -9 24 -57 10 -107 18 -133 38 -133 14 0 19 -7 19
-30 0 -20 5 -30 15 -30 12 0 15 -15 15 -75 0 -68 2 -75 20 -75 13 0 20 -7 20
-20 0 -11 5 -20 10 -20 6 0 10 -40 10 -99 0 -90 10 -132 23 -99 4 10 6 10 6 1
1 -7 8 -13 16 -13 12 0 15 -17 15 -95 l0 -95 30 0 30 0 0 -105 0 -105 35 0 35
0 0 -60 0 -60 60 0 60 0 0 30 c0 28 3 30 35 30 31 0 35 3 35 26 0 29 21 54 44
54 10 0 16 9 16 21 0 24 22 49 44 49 9 0 16 8 16 20 0 11 5 20 10 20 6 0 10 7
10 15 0 9 10 20 22 25 21 8 22 9 3 10 -15 1 -16 3 -5 7 27 11 40 31 40 62 0
29 3 31 35 31 32 0 35 2 35 30 0 27 3 30 30 30 27 0 30 3 30 30 0 27 3 30 30
30 27 0 30 3 30 30 0 28 3 30 35 30 35 0 35 0 35 45 0 25 5 45 10 45 6 0 10 9
10 20 0 12 7 20 16 20 8 0 22 6 30 14 8 8 14 22 14 30 0 9 7 16 16 16 25 0 44
26 44 59 0 24 4 31 20 31 18 0 25 11 21 33 -1 5 3 6 9 2 5 -3 10 1 10 9 0 12
10 16 35 16 32 0 35 2 35 30 0 27 3 30 30 30 27 0 30 3 30 30 0 27 3 30 30 30
29 0 30 2 30 46 l0 46 35 -4 35 -4 0 53 c0 50 1 53 26 53 42 0 75 50 41 63 -6
3 3 6 21 6 28 1 32 5 32 27 0 23 21 55 35 54 21 -1 25 2 25 20 0 11 7 20 15
20 8 0 15 5 15 10 0 6 9 10 20 10 16 0 20 7 20 30 0 27 3 30 30 30 28 0 30 3
30 35 0 32 2 35 30 35 26 0 30 4 30 26 0 31 21 54 49 54 14 0 21 6 21 20 0 11
5 20 10 20 6 0 10 16 10 35 0 32 2 35 30 35 27 0 30 3 30 30 0 27 3 30 30 30
28 0 30 2 30 40 0 38 2 40 30 40 27 0 30 3 30 30 0 28 3 30 35 30 33 0 35 2
35 35 0 32 2 35 30 35 27 0 30 3 30 30 0 27 3 30 30 30 27 0 30 3 30 30 0 17
5 30 10 30 6 0 10 16 10 35 0 33 2 35 35 35 32 0 35 2 35 30 0 27 3 30 30 30
28 0 30 2 30 40 0 38 2 40 30 40 28 0 30 3 30 35 0 33 2 35 35 35 l35 0 0 50
c0 49 1 50 30 50 17 0 30 5 30 10 0 6 14 10 30 10 17 0 29 3 29 8 -1 4 -1 33
0 65 1 56 1 57 31 57 27 0 30 3 30 30 0 28 3 30 35 30 32 0 35 2 35 30 0 27 3
30 30 30 27 0 30 3 30 30 0 27 3 30 30 30 28 0 30 3 30 35 0 19 5 35 10 35 6
0 10 14 10 30 0 28 3 30 35 30 34 0 35 1 35 40 0 22 5 40 11 40 5 0 8 -4 5 -8
-3 -5 1 -9 9 -9 8 0 12 4 9 9 -3 4 2 8 10 8 12 0 16 10 16 35 0 32 2 35 30 35
27 0 30 3 30 30 0 27 3 30 30 30 27 0 30 3 30 30 0 28 3 30 35 30 33 0 35 2
35 35 0 32 2 35 30 35 26 0 30 4 30 26 0 29 21 54 44 54 9 0 16 8 16 20 0 11
5 20 10 20 6 0 10 14 10 30 0 28 3 30 35 30 33 0 35 2 35 35 0 25 4 35 16 35
23 0 44 25 44 54 0 22 4 26 30 26 27 0 30 3 30 30 0 27 3 30 30 30 28 0 30 3
30 35 0 33 2 35 35 35 32 0 35 2 35 30 0 27 3 30 30 30 28 0 30 2 30 40 0 22
5 40 10 40 6 0 10 10 10 21 0 16 5 20 20 16 13 -3 20 0 20 9 0 8 5 14 10 14 6
0 10 11 10 25 0 20 5 25 25 25 20 0 25 5 25 26 0 29 21 54 44 54 9 0 16 7 16
16 0 20 24 44 44 44 9 0 16 8 16 20 0 11 5 20 10 20 6 0 10 7 10 15 0 8 9 15
20 15 13 0 20 7 20 20 0 11 5 20 10 20 6 0 10 14 10 30 0 24 4 30 21 30 28 0
49 23 49 54 0 22 4 26 30 26 28 0 30 3 30 35 0 32 2 35 30 35 27 0 30 3 30 30
0 28 3 30 35 30 31 0 35 3 35 26 0 29 21 54 44 54 12 0 16 10 16 35 0 32 2 35
30 35 27 0 30 3 30 30 0 27 3 30 30 30 27 0 30 3 30 30 0 17 5 30 10 30 6 0
10 14 10 30 0 28 3 30 35 30 33 0 35 2 35 35 0 32 2 35 30 35 27 0 30 3 30 30
0 27 3 30 30 30 l30 0 0 85 0 85 -58 0 c-46 0 -60 -4 -72 -20z m-660 -770 c0
-27 -3 -30 -30 -30 -27 0 -30 -3 -30 -30 0 -24 -4 -30 -21 -30 -27 0 -48 -27
-49 -62 0 -21 -5 -28 -20 -28 -13 0 -20 -7 -20 -20 0 -11 -4 -20 -10 -20 -5 0
-10 -13 -10 -30 0 -27 -3 -30 -30 -30 -27 0 -30 -3 -30 -30 0 -28 -3 -30 -35
-30 -35 0 -35 0 -35 -45 0 -43 -1 -45 -30 -45 -27 0 -30 -3 -30 -30 0 -27 -3
-30 -30 -30 -27 0 -30 -3 -30 -30 0 -27 -3 -30 -30 -30 -27 0 -30 -3 -30 -30
0 -20 -5 -30 -15 -30 -13 0 -21 -31 -16 -62 0 -5 -13 -8 -29 -8 -27 0 -30 -3
-30 -29 0 -25 -4 -30 -27 -33 -22 -2 -29 -9 -31 -30 -2 -17 -9 -28 -18 -28
-25 0 -44 -26 -44 -59 0 -29 -3 -31 -35 -31 -32 0 -35 -2 -35 -30 0 -27 -3
-30 -30 -30 -27 0 -30 -3 -30 -30 0 -27 -3 -30 -30 -30 l-30 0 0 -65 0 -65
-45 0 c-43 0 -45 -1 -45 -30 0 -16 -4 -30 -9 -30 -5 0 -8 7 -7 16 0 9 -6 19
-14 21 -13 4 -13 3 0 -6 11 -8 12 -11 2 -11 -7 0 -11 -4 -7 -9 3 -5 -2 -16
-10 -24 -8 -9 -15 -23 -15 -31 0 -9 -7 -16 -16 -16 -22 0 -44 -25 -44 -49 0
-14 -6 -21 -20 -21 -14 0 -20 -7 -20 -22 -1 -35 -24 -58 -59 -58 -28 0 -31 -3
-31 -30 0 -23 -4 -30 -20 -30 -13 0 -20 -7 -20 -20 0 -11 -4 -20 -9 -20 -6 0
-11 -19 -13 -42 -3 -39 -6 -43 -30 -46 -24 -3 -28 -8 -28 -33 0 -26 -3 -29
-30 -29 -27 0 -30 -3 -30 -30 0 -28 -3 -30 -35 -30 -33 0 -35 -2 -35 -35 0
-32 -2 -35 -30 -35 -26 0 -30 -4 -30 -26 0 -29 -21 -54 -44 -54 -9 0 -16 -7
-16 -16 0 -22 -25 -44 -49 -44 -17 0 -21 -6 -21 -35 0 -19 -4 -35 -10 -35 -5
0 -10 -9 -10 -20 0 -12 -7 -20 -16 -20 -23 0 -44 -25 -44 -54 0 -22 -4 -26
-30 -26 -27 0 -30 -3 -30 -30 0 -28 -3 -30 -35 -30 -33 0 -35 -2 -35 -35 0
-32 -2 -35 -30 -35 l-30 0 0 -60 c0 -58 -1 -60 -26 -60 -31 0 -54 -21 -54 -49
0 -14 -6 -21 -20 -21 -16 0 -20 -7 -20 -30 0 -28 -3 -30 -35 -30 -31 0 -35 -3
-35 -26 0 -29 -21 -54 -44 -54 -9 0 -16 -7 -16 -16 0 -20 -24 -44 -44 -44 -9
0 -16 -12 -18 -32 -2 -28 -8 -34 -30 -36 -24 -3 -28 -8 -28 -33 0 -19 -5 -29
-15 -29 -10 0 -15 -10 -15 -30 0 -27 -3 -30 -30 -30 -28 0 -30 -3 -30 -35 0
-32 -2 -35 -30 -35 -27 0 -30 -3 -30 -30 0 -27 -3 -30 -30 -30 -27 0 -30 -3
-30 -30 0 -28 -3 -30 -35 -30 -34 0 -35 -1 -35 -40 0 -38 -2 -40 -30 -40 -28
0 -30 -3 -30 -35 0 -32 -2 -35 -30 -35 -27 0 -30 -3 -30 -30 0 -16 -4 -30 -10
-30 -5 0 -10 -13 -10 -30 0 -28 -3 -30 -35 -30 -33 0 -35 -2 -35 -35 0 -32 -2
-35 -30 -35 -27 0 -30 -3 -30 -30 0 -27 -3 -30 -30 -30 -27 0 -30 -3 -30 -30
0 -27 -3 -30 -30 -30 -29 0 -30 -2 -30 -45 0 -45 0 -45 -35 -45 l-35 0 0 -50
c0 -49 -1 -50 -29 -50 -26 0 -30 -4 -33 -32 -3 -30 -6 -33 -33 -31 -22 2 -26
0 -15 -7 10 -6 11 -10 3 -10 -8 0 -13 -14 -13 -35 0 -33 -2 -35 -35 -35 -32 0
-35 -2 -35 -30 0 -27 -3 -30 -30 -30 -27 0 -30 -3 -30 -30 0 -27 -3 -30 -30
-30 -27 0 -30 -3 -30 -30 0 -16 -4 -30 -10 -30 -5 0 -10 -16 -10 -35 0 -32 -2
-35 -30 -35 -27 0 -30 -3 -30 -30 l0 -30 -65 0 -65 0 0 95 0 95 -30 0 -30 0 0
95 0 95 -35 0 -35 0 -1 93 c-1 50 0 98 1 106 1 11 -2 10 -15 -3 -36 -36 -45
-15 -45 105 l0 89 -30 0 -30 0 0 65 c0 37 -4 65 -10 65 -5 0 -10 14 -10 30 0
23 -4 30 -20 30 -18 0 -20 7 -20 75 0 60 -3 75 -15 75 -10 0 -15 10 -15 30 0
23 -4 30 -20 30 -16 0 -20 7 -20 30 0 17 -4 30 -10 30 -6 0 -10 33 -10 79 0
77 -1 79 -22 73 -20 -5 -21 -4 -9 11 7 9 18 14 24 10 6 -4 7 -1 3 6 -5 7 -14
10 -22 7 -8 -3 -14 1 -14 10 0 8 -4 12 -10 9 -6 -4 -10 20 -10 64 0 64 -2 71
-20 71 -13 0 -20 7 -20 19 0 11 -4 23 -10 26 -5 3 -10 37 -10 75 0 64 -2 69
-22 72 -17 2 -24 11 -26 31 -2 15 -8 25 -13 22 -5 -4 -9 35 -9 94 l0 101 -30
0 c-27 0 -30 3 -30 30 0 27 3 30 30 30 27 0 30 -3 30 -30 0 -28 3 -30 35 -30
25 0 35 -4 35 -16 0 -23 25 -44 54 -44 23 0 26 -4 26 -35 0 -32 2 -35 30 -35
27 0 30 -3 30 -30 0 -28 3 -30 35 -30 32 0 35 -2 35 -30 0 -27 3 -30 30 -30
28 0 30 -3 30 -35 0 -32 2 -35 30 -35 27 0 30 -3 30 -30 0 -27 3 -30 30 -30
27 0 30 -3 30 -30 0 -27 3 -30 31 -30 17 0 37 -7 46 -15 8 -8 20 -12 26 -9 8
5 8 2 0 -7 -18 -19 -16 -29 7 -29 16 0 20 -7 20 -37 0 -28 3 -34 10 -23 6 10
10 11 10 3 0 -7 7 -13 16 -13 23 0 44 -25 44 -54 0 -26 0 -26 85 -26 l85 0 0
30 c0 28 2 30 40 30 39 0 40 1 40 35 0 33 2 35 35 35 32 0 35 2 35 30 0 27 3
30 30 30 27 0 30 3 30 30 0 27 3 30 30 30 17 0 30 5 30 10 0 6 16 10 35 10 32
0 35 2 35 30 0 27 3 30 30 30 28 0 30 3 30 34 0 33 2 35 38 38 24 2 37 8 38
18 1 8 2 21 3 28 0 6 14 12 31 12 27 0 30 3 30 30 0 28 3 30 35 30 33 0 35 2
35 35 l0 35 60 0 60 0 0 30 c0 28 3 30 35 30 32 0 35 2 35 30 0 27 3 30 30 30
27 0 30 3 30 30 0 27 3 30 30 30 28 0 30 3 30 35 0 25 4 35 16 35 8 0 13 4 10
9 -3 4 2 8 12 8 43 0 52 4 52 23 0 13 7 20 20 20 11 0 20 5 20 10 0 6 14 10
30 10 27 0 30 3 30 30 0 28 2 30 40 30 39 0 40 1 40 35 0 33 2 35 35 35 32 0
35 2 35 30 0 27 3 30 30 30 27 0 30 3 30 30 0 27 3 30 30 30 17 0 30 5 30 10
0 6 14 10 30 10 28 0 30 3 30 35 0 33 2 35 35 35 25 0 35 4 35 16 0 20 24 44
44 44 9 0 16 7 16 16 0 20 24 44 44 44 9 0 16 7 16 16 0 25 26 44 59 44 29 0
31 3 31 35 0 32 2 35 30 35 27 0 30 3 30 30 0 27 3 30 30 30 27 0 30 3 30 30
l0 30 65 0 65 0 0 35 c0 32 2 35 30 35 27 0 30 3 30 30 0 27 3 30 30 30 27 0
30 3 30 30 0 27 3 30 31 30 33 0 59 19 59 44 0 11 9 16 30 16 17 0 30 5 30 10
0 6 9 10 20 10 14 0 20 7 20 21 0 29 24 49 59 49 28 0 31 3 31 30 0 27 3 30
30 30 27 0 30 3 30 30 0 27 3 30 30 30 28 0 30 3 30 36 0 34 1 35 30 30 28 -4
30 -2 30 30 l0 34 65 0 65 0 0 30 c0 27 3 30 30 30 27 0 30 3 30 30 0 27 3 30
30 30 17 0 30 5 30 10 0 6 7 10 15 10 9 0 15 9 15 25 0 16 6 25 16 25 20 0 44
24 44 44 0 9 11 16 28 18 21 2 28 9 30 31 3 23 8 27 33 27 26 0 29 3 29 30 0
28 3 30 35 30 24 0 35 5 35 15 0 10 10 15 30 15 27 0 30 3 30 30 0 27 3 30 30
30 27 0 30 3 30 30 0 28 3 30 35 30 32 0 35 2 35 30 0 27 3 30 30 30 27 0 30
-3 30 -30z"/>
<path d="M3448 3493 c7 -3 16 -2 19 1 4 3 -2 6 -13 5 -11 0 -14 -3 -6 -6z"/>
<path d="M5450 5290 c0 -27 -3 -30 -30 -30 -27 0 -30 -3 -30 -30 0 -27 -3 -30
-30 -30 -29 0 -30 -2 -30 -45 0 -45 0 -45 -35 -45 l-35 0 0 -50 c0 -49 -1 -50
-30 -50 -26 0 -30 -4 -30 -26 0 -29 -21 -54 -44 -54 -12 0 -16 -10 -16 -35 0
-33 -2 -35 -35 -35 -32 0 -35 -2 -35 -30 0 -16 -4 -30 -10 -30 -5 0 -10 -9
-10 -20 0 -12 -7 -20 -16 -20 -25 0 -44 -26 -44 -59 0 -28 -3 -31 -30 -31 -27
0 -30 -3 -30 -30 0 -27 -3 -30 -30 -30 -27 0 -30 -3 -30 -30 0 -28 -3 -30 -35
-30 -32 0 -35 -2 -35 -29 0 -25 -4 -30 -27 -33 -25 -3 -28 -7 -31 -45 -3 -40
-5 -43 -33 -43 -26 0 -29 -3 -29 -30 0 -16 -4 -30 -10 -30 -5 0 -10 -9 -10
-20 0 -14 -7 -20 -21 -20 -26 0 -49 -23 -49 -49 0 -12 -6 -21 -16 -21 -23 0
-44 -25 -44 -54 0 -22 -4 -26 -30 -26 -27 0 -30 -3 -30 -30 0 -27 -3 -30 -30
-30 -27 0 -30 -3 -30 -30 0 -25 -4 -30 -25 -30 -16 0 -25 -6 -25 -15 0 -8 -4
-15 -10 -15 -5 0 -10 -13 -10 -30 0 -23 -4 -30 -20 -30 -13 0 -20 -7 -20 -20
0 -11 -4 -20 -10 -20 -5 0 -10 -13 -10 -30 0 -27 -3 -30 -30 -30 -29 0 -30 -2
-30 -45 0 -45 0 -45 -35 -45 -32 0 -35 -2 -35 -30 0 -27 -3 -30 -30 -30 -27 0
-30 -3 -30 -30 0 -16 -4 -30 -10 -30 -5 0 -10 -9 -10 -20 0 -12 -7 -20 -16
-20 -25 0 -44 -26 -44 -59 0 -24 -4 -31 -20 -31 -16 0 -20 -7 -20 -30 0 -28
-3 -30 -35 -30 -32 0 -35 -2 -35 -30 0 -27 -3 -30 -30 -30 -27 0 -30 -3 -30
-31 0 -37 -20 -59 -54 -59 -24 0 -26 -3 -26 -50 l0 -50 -35 0 c-35 0 -35 0
-35 -45 0 -43 -1 -45 -30 -45 -27 0 -30 -3 -30 -30 0 -27 -3 -30 -30 -30 -27
0 -30 -3 -30 -30 0 -27 -3 -30 -30 -30 -27 0 -30 -3 -30 -30 0 -20 -5 -30 -15
-30 -10 0 -15 -11 -15 -35 0 -25 -4 -35 -16 -35 -20 0 -44 -24 -44 -44 0 -9
-7 -16 -16 -16 -20 0 -44 -24 -44 -44 0 -9 -8 -16 -20 -16 -18 0 -26 -20 -21
-52 0 -5 -4 -8 -9 -8 -6 0 -10 -7 -10 -15 0 -9 -9 -15 -25 -15 -16 0 -25 -6
-25 -16 0 -8 -6 -22 -14 -30 -8 -8 -22 -14 -30 -14 -9 0 -16 -8 -16 -19 0 -11
-4 -23 -10 -26 -5 -3 -10 -22 -10 -41 0 -31 -2 -34 -30 -34 -28 0 -30 -3 -30
-35 0 -32 -2 -35 -30 -35 -27 0 -30 -3 -30 -30 0 -28 -3 -30 -35 -30 -34 0
-35 -1 -35 -40 0 -22 -4 -40 -10 -40 -5 0 -10 -11 -10 -25 0 -18 -5 -25 -20
-25 -16 0 -20 -7 -20 -30 0 -27 -3 -30 -30 -30 -26 0 -30 -4 -30 -26 0 -31
-21 -54 -49 -54 -12 0 -21 -6 -21 -16 0 -20 -24 -44 -44 -44 -11 0 -16 -9 -16
-30 0 -26 -5 -31 -30 -37 -25 -4 -30 -10 -30 -34 0 -16 -4 -29 -10 -29 -5 0
-10 -13 -10 -30 0 -28 -3 -30 -35 -30 -33 0 -35 -2 -35 -35 0 -32 -2 -35 -30
-35 -28 0 -30 -2 -30 -40 0 -38 -2 -40 -30 -40 -27 0 -30 -3 -30 -30 0 -27 -3
-30 -30 -30 -30 0 -30 -1 -30 -55 0 -57 -6 -62 -57 -56 -9 1 -13 -12 -13 -39
0 -38 -2 -40 -30 -40 -27 0 -30 -3 -30 -30 0 -27 -3 -30 -30 -30 -28 0 -30 -3
-30 -35 0 -32 -2 -35 -30 -35 -27 0 -30 -3 -30 -30 0 -20 -5 -30 -15 -30 -10
0 -15 -10 -15 -30 0 -27 -3 -30 -30 -30 -27 0 -30 -3 -30 -30 0 -27 -3 -30
-30 -30 -28 0 -30 -3 -31 -37 -1 -21 -1 -42 0 -47 1 -5 -6 -3 -15 5 -12 9 -15
9 -10 2 5 -9 0 -13 -13 -13 -17 0 -21 -6 -21 -30 0 -28 -3 -30 -35 -30 l-35 0
0 -51 c0 -30 -6 -56 -14 -65 -18 -17 -33 -18 -39 -1 -3 6 -6 -7 -6 -30 -1 -41
-2 -43 -31 -43 -27 0 -30 -3 -30 -30 0 -28 -3 -30 -35 -30 -32 0 -35 -2 -35
-30 0 -27 -3 -30 -30 -30 -28 0 -30 -3 -30 -35 0 -19 -4 -35 -10 -35 -5 0 -10
-13 -10 -30 0 -27 -3 -30 -30 -30 -27 0 -30 -3 -30 -30 0 -21 -5 -30 -16 -30
-25 0 -44 -26 -44 -59 0 -29 -3 -31 -35 -31 -32 0 -35 -2 -35 -30 0 -27 -3
-30 -30 -30 -27 0 -30 -3 -30 -30 0 -27 -3 -30 -30 -30 -28 0 -30 -3 -30 -35
0 -33 -2 -35 -35 -35 l-35 0 0 -70 c0 -68 1 -70 25 -70 16 0 25 -6 25 -15 0
-11 11 -15 40 -15 36 0 40 3 40 25 0 21 5 25 30 25 29 0 30 2 31 48 0 35 3 42
9 27 7 -17 9 -15 9 13 1 30 3 32 36 32 33 0 35 2 35 35 0 26 4 35 16 35 9 0
23 8 30 18 17 21 18 36 2 26 -7 -4 -8 -3 -4 4 4 7 18 12 32 12 19 0 24 5 24
26 0 29 21 54 44 54 10 0 16 9 16 21 0 11 6 27 14 35 8 8 24 14 35 14 17 0 21
6 21 30 0 17 5 30 10 30 6 0 10 9 10 20 0 23 10 25 29 7 9 -8 12 -8 7 0 -3 6
1 18 9 26 8 9 15 29 15 46 0 28 3 31 30 31 27 0 30 3 30 30 0 28 3 30 35 30
32 0 35 2 35 30 0 27 3 30 30 30 28 0 30 2 30 40 0 23 5 40 11 40 7 0 9 10 7
25 -4 20 -1 25 14 25 23 0 48 23 48 44 0 9 8 16 20 16 16 0 20 7 20 30 0 20 5
30 15 30 8 0 15 5 15 10 0 6 9 10 20 10 13 0 20 7 20 20 0 11 5 20 10 20 6 0
10 7 10 15 0 10 10 15 30 15 19 0 30 5 29 13 -4 33 2 47 21 47 16 0 20 7 20
30 0 17 5 30 10 30 6 0 10 14 10 30 0 28 3 30 35 30 33 0 35 2 35 35 0 32 2
35 30 35 27 0 30 3 30 30 0 27 3 30 30 30 28 0 30 2 30 40 0 38 2 40 30 40 28
0 30 3 30 35 0 24 5 35 15 35 8 0 15 9 15 20 0 13 7 20 20 20 15 0 20 7 20 26
0 29 21 54 44 54 10 0 16 9 16 26 0 14 4 23 10 19 6 -3 10 -1 10 4 0 6 9 11
20 11 16 0 20 7 20 35 0 33 2 35 35 35 32 0 35 2 35 30 0 17 5 30 10 30 6 0
10 14 10 30 0 27 3 30 30 30 28 0 30 3 30 35 0 32 2 35 30 35 28 0 30 2 30 40
0 39 1 40 35 40 32 0 35 2 35 30 0 27 3 30 30 30 27 0 30 3 30 30 0 27 3 30
30 30 30 0 30 1 30 55 0 32 4 55 11 55 5 0 7 5 4 10 -4 6 5 10 19 10 22 0 26
4 26 30 0 28 3 30 35 30 33 0 35 2 35 35 0 32 2 35 30 35 26 0 30 4 30 26 0
29 21 54 44 54 9 0 16 7 16 16 0 8 6 22 14 30 8 7 12 23 9 34 -5 17 -1 20 31
20 l36 0 0 45 c0 43 1 45 30 45 27 0 30 3 30 30 0 27 3 30 30 30 27 0 30 3 30
30 0 27 3 30 30 30 28 0 30 3 30 35 0 33 2 35 35 35 l35 0 0 60 0 60 30 0 c27
0 30 3 30 30 0 27 3 30 30 30 27 0 30 3 30 31 0 33 19 59 44 59 9 0 16 8 16
20 0 11 7 20 15 20 10 0 15 10 15 30 0 31 19 38 32 10 4 -10 7 -6 7 13 1 15 6
27 11 27 6 0 10 13 10 30 0 22 4 28 15 24 20 -8 45 19 45 50 0 22 4 26 30 26
27 0 30 3 30 30 0 28 3 30 35 30 33 0 35 2 35 35 0 32 2 35 30 35 l30 0 0 60
0 60 30 0 c27 0 30 3 30 30 0 28 3 30 35 30 32 0 35 2 35 31 0 33 19 59 44 59
9 0 16 7 16 16 0 20 24 44 44 44 9 0 16 7 16 16 0 20 24 44 44 44 12 0 16 10
16 35 0 19 5 35 10 35 6 0 10 14 10 30 0 28 3 30 35 30 32 0 35 2 35 30 0 27
3 30 30 30 27 0 30 3 30 30 0 27 3 30 30 30 l30 0 0 65 0 65 35 0 c32 0 35 2
35 30 0 27 3 30 30 30 27 0 30 3 30 30 0 17 5 30 10 30 6 0 10 7 10 15 0 8 9
15 20 15 12 0 20 7 20 16 0 20 24 44 44 44 11 0 16 9 16 30 0 28 3 30 35 30
32 0 35 2 35 30 0 17 5 30 10 30 6 0 10 16 10 35 0 32 2 35 30 35 27 0 30 3
30 30 0 27 3 30 30 30 27 0 30 3 30 30 0 28 3 30 35 30 35 0 35 0 35 45 0 43
1 45 30 45 27 0 30 3 30 30 0 27 3 30 30 30 29 0 30 2 30 46 0 47 16 74 44 74
12 0 16 10 16 35 0 24 5 35 15 35 10 0 15 10 15 30 0 20 -5 30 -15 30 -10 0
-15 10 -15 30 0 27 -3 30 -30 30 -27 0 -30 -3 -30 -30z"/>
<path d="M4715 5040 c-3 -5 -12 -7 -20 -3 -8 3 -15 1 -15 -4 0 -5 11 -9 25 -9
14 0 25 6 25 13 0 15 -6 17 -15 3z"/>
<path d="M1178 513 c7 -3 16 -2 19 1 4 3 -2 6 -13 5 -11 0 -14 -3 -6 -6z"/>
</g>
</svg>
