<svg width="24" height="24" viewBox="0 0 24 24" fill="none" xmlns="http://www.w3.org/2000/svg">
<g id="chat">
<path id="Vector" d="M15.9999 11C16.1977 11 16.391 11.0586 16.5555 11.1685C16.7199 11.2784 16.8481 11.4346 16.9238 11.6173C16.9995 11.8 17.0193 12.0011 16.9807 12.1951C16.9421 12.3891 16.8468 12.5673 16.707 12.7071C16.5671 12.847 16.389 12.9422 16.195 12.9808C16.001 13.0194 15.7999 12.9996 15.6172 12.9239C15.4345 12.8482 15.2783 12.72 15.1684 12.5556C15.0585 12.3911 14.9999 12.1978 14.9999 12C14.9999 11.7348 15.1052 11.4804 15.2928 11.2929C15.4803 11.1054 15.7347 11 15.9999 11ZM11.9999 11C12.1977 11 12.391 11.0586 12.5555 11.1685C12.7199 11.2784 12.8481 11.4346 12.9238 11.6173C12.9995 11.8 13.0193 12.0011 12.9807 12.1951C12.9421 12.3891 12.8468 12.5673 12.707 12.7071C12.5671 12.847 12.389 12.9422 12.195 12.9808C12.001 13.0194 11.7999 12.9996 11.6172 12.9239C11.4345 12.8482 11.2783 12.72 11.1684 12.5556C11.0585 12.3911 10.9999 12.1978 10.9999 12C10.9999 11.7348 11.1052 11.4804 11.2928 11.2929C11.4803 11.1054 11.7347 11 11.9999 11ZM7.99989 11C8.19767 11 8.39101 11.0586 8.55546 11.1685C8.71991 11.2784 8.84808 11.4346 8.92377 11.6173C8.99946 11.8 9.01926 12.0011 8.98067 12.1951C8.94209 12.3891 8.84685 12.5673 8.707 12.7071C8.56714 12.847 8.38896 12.9422 8.19498 12.9808C8.001 13.0194 7.79993 12.9996 7.61721 12.9239C7.43448 12.8482 7.2783 12.72 7.16842 12.5556C7.05854 12.3911 6.99989 12.1978 6.99989 12C6.99989 11.7348 7.10525 11.4804 7.29278 11.2929C7.48032 11.1054 7.73467 11 7.99989 11ZM11.9999 2C13.3131 2 14.6135 2.25866 15.8267 2.7612C17.04 3.26375 18.1424 4.00035 19.071 4.92893C20.9463 6.8043 21.9999 9.34784 21.9999 12C22.0086 14.3091 21.2091 16.5485 19.7399 18.33L21.7399 20.33C21.8786 20.4706 21.9726 20.6492 22.01 20.8432C22.0474 21.0372 22.0265 21.2379 21.9499 21.42C21.8668 21.5999 21.7322 21.7511 21.563 21.8544C21.3939 21.9577 21.1979 22.0083 20.9999 22H11.9999C9.34772 22 6.80419 20.9464 4.92882 19.0711C3.05346 17.1957 1.99989 14.6522 1.99989 12C1.99989 9.34784 3.05346 6.8043 4.92882 4.92893C6.80419 3.05357 9.34772 2 11.9999 2ZM11.9999 20H18.5899L17.6599 19.07C17.5654 18.9774 17.4902 18.8669 17.4387 18.7451C17.3872 18.6232 17.3604 18.4923 17.3599 18.36C17.3636 18.0962 17.4715 17.8446 17.6599 17.66C18.9693 16.352 19.7847 14.6305 19.9672 12.7888C20.1497 10.947 19.6879 9.09901 18.6607 7.55952C17.6334 6.02004 16.1041 4.88436 14.3334 4.34597C12.5627 3.80759 10.66 3.8998 8.94967 4.60691C7.23932 5.31402 5.82704 6.59227 4.95345 8.22389C4.07987 9.85551 3.79902 11.7395 4.15876 13.555C4.51851 15.3705 5.49658 17.005 6.92635 18.1802C8.35612 19.3554 10.1491 19.9985 11.9999 20Z" fill="black"/>
</g>
</svg>
