<svg width="232" height="182" viewBox="0 0 232 182" fill="none" xmlns="http://www.w3.org/2000/svg">
<g id="marketing-employee-working-on-marketing-strategy">
<path id="Vector" d="M115.006 63.0958C114.986 62.6533 114.9 62.2163 114.75 61.7993C114.608 61.3791 114.441 60.9673 114.252 60.5657C113.871 59.7637 113.439 58.9864 112.96 58.2386C112.946 58.2171 112.941 58.1913 112.945 58.1661C112.95 58.141 112.964 58.1185 112.984 58.103L112.986 58.1016C113.686 57.5343 114.266 56.8333 114.692 56.0396C115.141 55.253 115.529 54.4337 115.854 53.5886C116.515 51.8953 116.996 50.141 117.526 48.3866C117.596 48.1674 117.661 47.948 117.741 47.7287C117.81 47.4947 117.91 47.2706 118.036 47.0616C118.305 46.6586 118.645 46.3077 119.04 46.0259C119.804 45.4893 120.629 45.0449 121.497 44.702C122.35 44.3462 123.224 44.0507 124.094 43.7679L124.738 43.5527C124.918 43.5103 125.079 43.411 125.198 43.2695C125.416 42.9296 125.53 42.5332 125.525 42.1294L125.526 42.1199C125.527 42.0661 125.547 42.0144 125.581 41.9726C125.615 41.9308 125.662 41.9013 125.714 41.8886L126.816 41.6228L127.367 41.49L127.505 41.4567C127.552 41.4449 127.485 41.4575 127.476 41.4711C127.468 41.4748 127.462 41.4807 127.457 41.4881C127.456 41.4886 127.455 41.4894 127.454 41.4905C127.475 41.4388 127.489 41.384 127.493 41.3282C127.519 40.9739 127.51 40.6179 127.466 40.2653C127.43 39.9006 127.376 39.5309 127.318 39.17L127.572 39.3874C126.851 39.3881 126.135 39.2668 125.454 39.0288C125.101 38.8985 124.775 38.7056 124.492 38.4593C124.205 38.2066 123.977 37.8947 123.822 37.5451C123.228 36.117 123.731 34.6341 123.814 33.3637C123.839 32.6557 123.955 31.9538 124.158 31.2749C124.348 30.6219 124.493 29.957 124.594 29.2847C124.668 28.5864 124.823 27.8991 125.057 27.237C125.283 26.5763 125.557 25.9328 125.877 25.3115L126.028 25.5612C125.758 25.5568 125.489 25.5358 125.221 25.4984C124.946 25.4605 124.678 25.3835 124.424 25.2697C124.15 25.1514 123.924 24.9423 123.785 24.6776C123.659 24.3995 123.645 24.0833 123.747 23.7953C123.757 23.7668 123.776 23.7423 123.801 23.7257C123.826 23.7091 123.856 23.7013 123.886 23.7035L123.891 23.704C124.16 23.7228 124.429 23.6559 124.658 23.5129C124.897 23.358 125.115 23.1727 125.306 22.9618C125.698 22.5092 126.127 22.0896 126.588 21.7072C127.082 21.3525 127.643 21.0998 128.237 20.9638C128.817 20.8125 129.41 20.7152 130.008 20.6733C131.209 20.5518 132.422 20.7244 133.541 21.1762C134.086 21.4348 134.59 21.771 135.038 22.1741C135.266 22.3774 135.464 22.6117 135.627 22.87C135.71 23.003 135.773 23.1469 135.816 23.2976C135.866 23.4578 135.872 23.6287 135.833 23.7921L135.797 23.6817C136.466 24.1492 137.08 24.6918 137.625 25.2988C138.188 25.8984 138.632 26.5978 138.937 27.3609C139.013 27.5532 139.071 27.752 139.112 27.9547C139.131 28.0564 139.162 28.1563 139.172 28.2595L139.197 28.5704C139.209 28.7783 139.202 28.9868 139.176 29.1934C139.156 29.4005 139.095 29.5986 139.056 29.8019C138.821 30.5871 138.479 31.3363 138.04 32.0281C137.172 33.4025 136.166 34.685 135.037 35.8557L134.826 36.0757C134.756 36.1411 134.691 36.2121 134.632 36.2879C134.53 36.4348 134.457 36.5989 134.414 36.7722C134.315 37.1521 134.249 37.5397 134.216 37.9308C134.144 38.7258 134.119 39.5244 134.14 40.3224L133.939 40.1274L135.143 40.1196C135.196 40.1192 135.248 40.1395 135.286 40.1761C135.325 40.2127 135.348 40.2629 135.351 40.3161L135.351 40.3274C135.392 41.0399 135.548 41.7413 135.813 42.4041C135.94 42.7352 136.1 43.0531 136.29 43.3533C136.491 43.6456 136.717 43.9202 136.965 44.1742C137.978 45.2192 139.121 46.1631 140.231 47.1394C140.787 47.6276 141.343 48.1188 141.886 48.6295C142.158 48.8848 142.425 49.148 142.686 49.4192C142.949 49.7003 143.186 49.9726 143.436 50.2349C143.685 50.4997 143.949 50.7542 144.211 51.0259C144.493 51.3013 144.738 51.6119 144.94 51.95C145.137 52.3063 145.26 52.699 145.3 53.1041C145.344 53.4881 145.354 53.8753 145.329 54.261C145.306 54.642 145.276 55.0099 145.218 55.3894L145.097 55.9685C145.044 56.1555 144.972 56.3342 144.909 56.5173C144.849 56.6991 144.774 56.8761 144.687 57.0468C144.604 57.218 144.528 57.3942 144.439 57.5612C144.248 57.8862 144.078 58.2275 143.866 58.5367C143.047 59.7862 142.138 60.9738 141.145 62.0897C140.172 63.213 139.15 64.2894 138.151 65.3724C137.904 65.6439 137.656 65.9153 137.423 66.1906C137.302 66.3276 137.209 66.4668 137.101 66.6041C137.008 66.7435 136.926 66.8895 136.855 67.0411C136.715 67.3103 136.669 67.6192 136.727 67.9175C136.765 68.0534 136.831 68.18 136.92 68.2895C137.013 68.3982 137.124 68.4896 137.248 68.5592L137.261 68.5658C137.295 68.5841 137.326 68.609 137.35 68.639C137.375 68.669 137.394 68.7036 137.405 68.7408C137.417 68.778 137.421 68.8171 137.417 68.8558C137.413 68.8945 137.402 68.9321 137.383 68.9665L137.377 68.9784L136.256 70.8671C136.228 70.9135 136.188 70.9514 136.141 70.9768C136.093 71.0023 136.04 71.0141 135.986 71.0112L135.975 71.0106C135.471 70.9653 134.965 71.0755 134.525 71.3264C134.334 71.4506 134.187 71.6297 134.101 71.84L134.044 72.0052L133.997 72.2051C133.967 72.3395 133.939 72.4754 133.915 72.6124C133.718 73.7118 133.607 74.8464 133.52 75.97L133.519 75.9787C133.515 76.0398 133.488 76.0972 133.446 76.141C133.403 76.1848 133.346 76.2122 133.285 76.2184C131.702 76.3777 130.115 76.5096 128.525 76.5291C126.935 76.5744 125.345 76.5178 123.76 76.4126C122.174 76.3043 120.596 76.103 119.03 75.8445C117.46 75.5915 115.907 75.2389 114.382 74.7887L114.378 74.7876C114.361 74.7822 114.344 74.7727 114.331 74.7601C114.317 74.7474 114.307 74.7318 114.301 74.7145C114.072 74.0779 113.902 73.4217 113.792 72.7542C113.677 72.0924 113.607 71.4236 113.582 70.7524C113.55 70.0798 113.602 69.4059 113.736 68.746C113.86 68.0872 114.032 67.4405 114.215 66.7984C114.217 66.791 114.222 66.7847 114.229 66.7809C114.236 66.7771 114.244 66.7761 114.251 66.7781C114.259 66.7801 114.265 66.785 114.269 66.7917C114.273 66.7983 114.274 66.8062 114.272 66.8137C113.946 68.1014 113.631 69.4202 113.742 70.744C113.784 71.4062 113.87 72.0648 114 72.7153C114.123 73.3629 114.305 73.9981 114.543 74.613L114.462 74.539C115.981 74.9573 117.525 75.2793 119.084 75.5028C120.644 75.7323 122.213 75.9046 123.788 75.9843C125.361 76.0654 126.938 76.1092 128.512 76.0459C130.088 76.0097 131.657 75.862 133.221 75.6878L132.986 75.9361C133.063 74.7907 133.161 73.6556 133.351 72.5119C133.376 72.3689 133.404 72.2257 133.434 72.082L133.482 71.8661C133.504 71.7894 133.534 71.7057 133.56 71.6264C133.687 71.3053 133.91 71.0311 134.199 70.8409C134.471 70.6652 134.775 70.5447 135.094 70.4861C135.402 70.4249 135.716 70.4041 136.029 70.4243L135.748 70.5677L136.865 68.6764L136.993 69.0956C136.791 68.9906 136.611 68.8466 136.464 68.672C136.318 68.4955 136.211 68.2903 136.149 68.0697C136.055 67.6392 136.111 67.1894 136.309 66.7953C136.393 66.6118 136.492 66.435 136.604 66.2666C136.722 66.113 136.837 65.9446 136.961 65.8043C137.205 65.5152 137.455 65.2402 137.705 64.9646C138.708 63.8729 139.719 62.8015 140.68 61.6878C141.647 60.5898 142.54 59.4282 143.352 58.2108C143.56 57.9114 143.721 57.5895 143.907 57.2793C143.993 57.1211 144.064 56.9575 144.143 56.7969C144.225 56.6395 144.295 56.4759 144.352 56.3076C144.41 56.1415 144.478 55.9767 144.527 55.8099L144.635 55.3052C144.691 54.9555 144.725 54.5861 144.747 54.2302C144.773 53.8788 144.767 53.5258 144.729 53.1755C144.7 52.8426 144.603 52.5193 144.443 52.2257C144.12 51.6531 143.536 51.1678 143.032 50.6157C142.774 50.3417 142.527 50.0548 142.286 49.7949C142.037 49.5319 141.779 49.2741 141.513 49.0216C140.982 48.5165 140.433 48.0253 139.881 47.5353C138.78 46.5492 137.653 45.5895 136.619 44.498C136.354 44.2194 136.114 43.9185 135.901 43.5987C135.7 43.2712 135.531 42.9249 135.397 42.5647C135.122 41.8492 134.965 41.0934 134.935 40.3274L135.143 40.535L133.939 40.5273H133.935C133.883 40.5268 133.833 40.5061 133.797 40.4696C133.76 40.4331 133.74 40.3837 133.739 40.332C133.728 39.5172 133.765 38.7024 133.849 37.8918C133.89 37.4794 133.966 37.0713 134.076 36.6719C134.133 36.4537 134.232 36.2485 134.366 36.0675C134.433 35.9855 134.505 35.9085 134.583 35.8372L134.794 35.6227C135.922 34.4821 136.933 33.2303 137.808 31.8864C138.245 31.2207 138.588 30.498 138.827 29.7388C138.866 29.5471 138.928 29.3573 138.949 29.1636C138.976 28.9707 138.985 28.7755 138.976 28.5808L138.956 28.2885C138.948 28.1913 138.918 28.0964 138.901 28.0002C138.863 27.8073 138.809 27.6181 138.737 27.4351C138.445 26.6946 138.017 26.0153 137.475 25.4321C136.944 24.8348 136.346 24.3 135.693 23.8382C135.677 23.8271 135.665 23.8116 135.658 23.7936C135.651 23.7756 135.65 23.756 135.654 23.7373L135.656 23.7277C135.689 23.4587 135.622 23.1871 135.469 22.9637C135.316 22.7197 135.131 22.4983 134.917 22.3058C134.486 21.9123 133.997 21.5873 133.467 21.3421C132.374 20.911 131.192 20.7519 130.024 20.8787C129.439 20.9237 128.86 21.0227 128.294 21.1745C127.729 21.3068 127.197 21.5502 126.727 21.8905C126.28 22.27 125.867 22.6876 125.493 23.1386C125.289 23.3701 125.056 23.5741 124.8 23.7453C124.524 23.9223 124.199 24.0082 123.872 23.9908L124.015 23.8996C123.948 24.1125 123.963 24.3427 124.056 24.5454C124.168 24.7454 124.346 24.9008 124.559 24.9853C124.786 25.0814 125.025 25.1449 125.27 25.1737C125.521 25.2044 125.775 25.2197 126.028 25.2195C126.074 25.2207 126.118 25.24 126.15 25.2733C126.182 25.3066 126.199 25.3511 126.198 25.3971C126.197 25.4222 126.191 25.4468 126.18 25.4694C125.88 26.079 125.625 26.7093 125.415 27.3554C125.2 27.9967 125.061 28.6613 125.003 29.3351C124.863 30.7427 124.278 32.0476 124.294 33.3648C124.278 33.7206 124.24 34.075 124.178 34.4257C124.127 34.7654 124.08 35.1002 124.054 35.4338C123.973 36.0789 124.052 36.7339 124.282 37.3419C124.414 37.6245 124.603 37.8773 124.836 38.0851C125.069 38.2928 125.342 38.4511 125.639 38.5503C126.264 38.7626 126.92 38.8685 127.581 38.8636C127.642 38.8647 127.701 38.887 127.747 38.9267C127.794 38.9664 127.825 39.021 127.835 39.0811C127.9 39.46 127.947 39.834 127.984 40.2154C128.03 40.6077 128.035 41.0036 128.001 41.3971C127.989 41.5286 127.948 41.6558 127.881 41.7697C127.867 41.7901 127.853 41.8098 127.837 41.8292C127.814 41.8519 127.79 41.8729 127.764 41.8919C127.715 41.9217 127.661 41.9433 127.605 41.9558L127.469 41.9877L126.924 42.1156L125.834 42.371L126.023 42.1306C126.016 42.3802 125.981 42.6282 125.916 42.8695C125.853 43.1246 125.739 43.3643 125.58 43.5737C125.491 43.6871 125.381 43.7826 125.257 43.8553C125.143 43.9188 125.024 43.9702 124.9 44.0086L124.242 44.2238C123.372 44.5001 122.51 44.7856 121.673 45.1281C120.837 45.4515 120.042 45.8722 119.305 46.3815C118.953 46.6299 118.647 46.9379 118.401 47.2916C118.289 47.4723 118.2 47.6668 118.137 47.8703C118.057 48.0787 117.99 48.2965 117.917 48.5107C117.363 50.2423 116.848 52.0072 116.153 53.708C115.809 54.5624 115.4 55.3896 114.93 56.1825C114.467 56.9914 113.847 57.6998 113.106 58.2662L113.132 58.1293C113.595 58.8967 114.009 59.6925 114.372 60.512C114.552 60.9226 114.708 61.343 114.841 61.7711C114.981 62.199 115.057 62.6455 115.064 63.0958C115.064 63.1035 115.061 63.1109 115.056 63.1164C115.05 63.1218 115.043 63.1249 115.035 63.1249C115.027 63.1247 115.02 63.1216 115.015 63.1161C115.009 63.1107 115.006 63.1034 115.006 63.0958Z" fill="#333333"/>
<path id="Vector_2" d="M127.362 29.083C127.604 28.9252 127.873 28.8152 128.156 28.7591C128.441 28.6982 128.733 28.6808 129.022 28.7076C129.315 28.734 129.6 28.813 129.864 28.9408C130.127 29.0639 130.36 29.2445 130.543 29.4694C130.289 29.3657 130.029 29.2765 129.765 29.202C129.511 29.1326 129.25 29.0862 128.988 29.0635C128.446 29.0203 127.902 29.0268 127.362 29.083ZM123.665 29.4694C123.808 29.3656 123.969 29.2888 124.139 29.2427C124.306 29.1942 124.478 29.1663 124.651 29.1596C124.827 29.1543 125.002 29.1738 125.172 29.2177C125.348 29.2604 125.51 29.3471 125.643 29.4694L125.14 29.4949C124.98 29.5053 124.822 29.5099 124.662 29.5169C124.329 29.5349 123.995 29.519 123.665 29.4694ZM129.082 31.2935C129.221 31.2886 129.353 31.23 129.45 31.1299C129.547 31.0298 129.601 30.8961 129.601 30.7569C129.601 30.6178 129.547 30.4841 129.45 30.384C129.353 30.2839 129.221 30.2253 129.082 30.2204C128.943 30.2253 128.811 30.2839 128.714 30.384C128.617 30.4841 128.563 30.6178 128.563 30.7569C128.563 30.8961 128.617 31.0298 128.714 31.1299C128.811 31.23 128.943 31.2886 129.082 31.2935ZM135.014 34.1692C135.154 34.1643 135.285 34.1057 135.382 34.0056C135.479 33.9055 135.533 33.7718 135.533 33.6327C135.533 33.4935 135.479 33.3598 135.382 33.2597C135.285 33.1596 135.154 33.101 135.014 33.0961C134.875 33.101 134.743 33.1596 134.646 33.2597C134.549 33.3598 134.495 33.4935 134.495 33.6327C134.495 33.7718 134.549 33.9055 134.646 34.0056C134.743 34.1057 134.875 34.1643 135.014 34.1692ZM124.869 31.5939C125.008 31.5891 125.14 31.5305 125.237 31.4304C125.334 31.3303 125.388 31.1966 125.388 31.0574C125.388 30.9182 125.334 30.7845 125.237 30.6844C125.14 30.5843 125.008 30.5257 124.869 30.5209C124.73 30.5257 124.598 30.5843 124.501 30.6844C124.404 30.7845 124.35 30.9182 124.35 31.0574C124.35 31.1966 124.404 31.3303 124.501 31.4304C124.598 31.5305 124.73 31.5891 124.869 31.5939ZM124.869 35.3924C124.982 35.5045 125.1 35.6107 125.224 35.7106C125.336 35.8007 125.455 35.8818 125.58 35.9532C125.706 36.0256 125.836 36.09 125.97 36.1463C126.109 36.2077 126.256 36.2577 126.417 36.3367C126.168 36.4372 125.891 36.4479 125.635 36.367C125.379 36.2861 125.16 36.1186 125.014 35.8933C124.913 35.7463 124.862 35.5706 124.869 35.3924ZM134.507 36.4745C134.101 36.7819 133.686 37.0561 133.258 37.3187C132.83 37.5784 132.392 37.8224 131.941 38.0382C131.05 38.4949 130.079 38.7769 129.082 38.8691C130.062 38.7194 131.005 38.3834 131.858 37.8794C132.29 37.6404 132.706 37.3744 133.111 37.094C133.514 36.8128 133.911 36.5138 134.279 36.1989L134.282 36.196C134.3 36.1805 134.321 36.1686 134.343 36.1612C134.365 36.1537 134.389 36.1507 134.413 36.1524C134.436 36.1541 134.459 36.1605 134.48 36.1711C134.502 36.1818 134.52 36.1965 134.536 36.2144C134.551 36.2323 134.563 36.2531 134.57 36.2756C134.577 36.298 134.58 36.3217 134.578 36.3453C134.576 36.3688 134.57 36.3917 134.559 36.4127C134.548 36.4338 134.533 36.4524 134.515 36.4677L134.507 36.4745ZM126.202 30.7569C126.304 31.1124 126.291 31.4913 126.165 31.839C126.103 32.0176 126.015 32.1864 125.905 32.3403C125.794 32.4672 125.691 32.6007 125.597 32.74C125.437 32.9978 125.4 33.2953 125.633 33.454C125.763 33.5404 125.913 33.5927 126.068 33.606C126.241 33.6281 126.415 33.637 126.588 33.6327C126.423 33.7099 126.247 33.7602 126.066 33.7816C125.869 33.8106 125.668 33.7798 125.489 33.693C125.387 33.6423 125.3 33.5659 125.237 33.4713C125.174 33.3768 125.137 33.2674 125.13 33.1541C125.122 32.9428 125.178 32.734 125.291 32.5547C125.395 32.4053 125.511 32.2644 125.638 32.1333C125.742 32.0086 125.833 31.8735 125.909 31.7301C126.065 31.4261 126.164 31.0964 126.202 30.7569Z" fill="#333333"/>
<path id="Vector_3" d="M136.224 34.2817C136.746 33.2997 136.519 32.9459 135.96 31.8729C135.401 30.7999 133.08 33.0318 133.08 33.0318V29.168C134.154 28.5232 134.24 26.2073 133.08 24.9626C131.919 23.7179 126.03 25.3918 126.03 25.3918L126.028 25.3904C123.279 25.3904 123.881 23.8474 123.881 23.8474C125.17 23.932 125.687 22.3015 127.063 21.5286C128.436 20.7556 131.962 20.2423 134.024 21.5286C136.09 22.8178 135.745 23.7599 135.745 23.7599C135.745 23.7599 139.099 25.9942 139.099 28.7389C139.099 30.4198 137.65 32.5504 136.368 34.1083M125.932 41.9958C126.247 42.709 126.536 43.4304 126.812 44.1563C127.09 44.8815 127.356 45.6105 127.611 46.3431L127.154 46.2669C127.467 45.8229 127.786 45.3833 128.111 44.9481C128.431 44.5092 128.757 44.0748 129.09 43.6449C129.416 43.211 129.752 42.7833 130.089 42.3574C130.422 41.9282 130.771 41.5104 131.112 41.0876L131.122 41.0753C131.145 41.0471 131.176 41.0268 131.21 41.017C132.265 40.7192 133.322 40.4274 134.393 40.1787C133.384 40.6162 132.362 41.0108 131.337 41.3993L131.435 41.3288C131.125 41.7751 130.821 42.2264 130.503 42.6664C130.188 43.1097 129.872 43.5511 129.546 43.9864C129.226 44.4248 128.9 44.8595 128.569 45.2905C128.242 45.7241 127.909 46.1537 127.571 46.5792L127.563 46.5892C127.534 46.626 127.495 46.6541 127.451 46.6704C127.407 46.6868 127.359 46.6907 127.313 46.6818C127.266 46.6729 127.223 46.6516 127.188 46.62C127.153 46.5885 127.128 46.548 127.114 46.503C126.89 45.7604 126.681 45.013 126.482 44.2624C126.281 43.5126 126.094 42.7582 125.932 41.9958ZM125.453 43.7438L123.966 45.9725L124.935 43.4753C124.949 43.4393 124.969 43.4065 124.996 43.3786C125.023 43.3507 125.055 43.3284 125.09 43.3128C125.125 43.2972 125.163 43.2888 125.202 43.2879C125.24 43.287 125.279 43.2937 125.315 43.3076C125.351 43.3215 125.384 43.3424 125.412 43.369C125.44 43.3956 125.462 43.4274 125.478 43.4627C125.493 43.4979 125.502 43.5359 125.503 43.5744C125.503 43.6129 125.497 43.6513 125.483 43.6872C125.475 43.707 125.465 43.726 125.453 43.7438Z" fill="#333333"/>
<path id="Vector_4" d="M131.274 41.2083C131.403 41.6824 131.504 42.1603 131.608 42.6379C131.705 43.1163 131.798 43.5953 131.881 44.0755C132.05 45.0356 132.19 45.9993 132.314 46.9653L131.83 46.7897C132.165 46.4888 132.495 46.1807 132.836 45.8858C133.177 45.59 133.515 45.2915 133.864 45.0043C134.556 44.4249 135.261 43.8584 136.003 43.3329C135.42 44.0303 134.799 44.6871 134.166 45.331C133.852 45.6555 133.527 45.9686 133.205 46.2845C132.884 46.601 132.55 46.9046 132.224 47.2153C132.185 47.2519 132.137 47.2772 132.085 47.2883C132.033 47.2994 131.979 47.2959 131.929 47.2782C131.879 47.2606 131.835 47.2294 131.801 47.1881C131.768 47.1469 131.746 47.0972 131.739 47.0446L131.739 47.0398C131.612 46.0742 131.501 45.1067 131.42 44.1352C131.377 43.6498 131.344 43.163 131.316 42.6757C131.294 42.1876 131.27 41.6998 131.274 41.2083ZM115.032 63.2839C115.057 61.8409 115.184 60.4016 115.412 58.9765C115.617 57.534 115.98 56.1185 116.497 54.7558L118.382 50.871C119.001 49.5762 119.625 48.2813 120.291 47.0026C119.849 48.375 119.342 49.7218 118.799 51.055C118.532 51.7238 118.241 52.3822 117.949 53.0422C117.66 53.6986 117.3 54.3542 117.036 54.979C116.533 56.3052 116.139 57.6702 115.858 59.0604C115.555 60.4572 115.29 61.8664 115.032 63.2839ZM137.465 52.1076L135.862 54.4686C135.326 55.2507 134.809 56.0435 134.3 56.8392L133.528 58.0281C133.283 58.4312 133.029 58.8317 132.808 59.2494C132.338 60.0694 132.01 60.9629 131.837 61.8921C131.834 61.9164 131.821 61.9383 131.802 61.9538C131.783 61.9693 131.759 61.9772 131.734 61.976L131.728 61.9757C131.106 61.9616 130.487 62.0744 129.91 62.3072C129.633 62.425 129.373 62.5795 129.138 62.7667C128.912 62.9511 128.719 63.172 128.566 63.4203L128.604 63.2563C128.765 64.0939 129.052 64.9023 129.456 65.6537C129.653 66.0331 129.873 66.4004 130.115 66.7538L130.489 67.2755L130.904 67.7656C131.037 67.935 131.199 68.0769 131.347 68.2322C131.494 68.3896 131.651 68.537 131.818 68.6734L132.311 69.0934L132.84 69.471C133.196 69.7229 133.568 69.9527 133.952 70.1592C134.333 70.3774 134.741 70.5418 135.135 70.7508L135.138 70.7523C135.144 70.7557 135.149 70.7613 135.152 70.7681C135.154 70.7748 135.154 70.7823 135.151 70.7889C135.149 70.7956 135.144 70.8011 135.137 70.8042C135.131 70.8074 135.123 70.808 135.116 70.806C134.903 70.7449 134.69 70.6804 134.477 70.6127C134.261 70.5521 134.049 70.4806 133.84 70.3984C133.423 70.2289 133.017 70.0341 132.624 69.8151C131.827 69.3767 131.101 68.8197 130.471 68.1633C129.193 66.8327 128.363 65.1363 128.098 63.3114L128.097 63.3007C128.09 63.2464 128.104 63.1915 128.136 63.1473C128.337 62.8616 128.585 62.612 128.87 62.4092C129.152 62.2181 129.461 62.0701 129.787 61.97C130.422 61.783 131.086 61.7163 131.746 61.7735L131.637 61.857C131.862 60.9223 132.171 60.0099 132.561 59.131C132.926 58.2422 133.36 57.3836 133.86 56.563C134.367 55.7501 134.92 54.9665 135.516 54.2158C136.105 53.4616 136.742 52.7449 137.421 52.0698C137.424 52.0671 137.427 52.065 137.43 52.0635C137.434 52.0621 137.438 52.0613 137.442 52.0614C137.445 52.0614 137.449 52.0622 137.453 52.0637C137.456 52.0652 137.46 52.0674 137.462 52.0701C137.467 52.0751 137.47 52.0815 137.47 52.0883C137.471 52.0951 137.469 52.1019 137.465 52.1076Z" fill="#333333"/>
<path id="Vector_5" d="M136.401 67.794C135.828 67.4834 135.283 67.1224 134.774 66.7151C134.259 66.3118 133.779 65.8653 133.339 65.3805C133.116 65.1401 132.917 64.8772 132.716 64.6174C132.525 64.3481 132.353 64.0656 132.202 63.772C131.881 63.1918 131.721 62.537 131.737 61.8747C131.856 62.502 132.097 63.1002 132.445 63.6355C132.783 64.1734 133.171 64.6776 133.605 65.1413C134.029 65.6172 134.486 66.0664 134.956 66.5042C135.429 66.9388 135.906 67.3729 136.401 67.794ZM131.274 71.8538C130.837 71.2216 130.434 70.5676 130.064 69.8946C129.688 69.2213 129.35 68.5282 129.05 67.8181C128.395 66.3874 128.057 64.8321 128.06 63.2588C128.063 63.1816 128.096 63.1087 128.153 63.0562C128.21 63.0036 128.285 62.9757 128.363 62.9784C128.44 62.9812 128.513 63.0145 128.566 63.0709C128.619 63.1274 128.647 63.2025 128.644 63.2797C128.644 63.2861 128.644 63.2923 128.643 63.2986L128.642 63.309C128.577 64.0482 128.61 64.7927 128.741 65.5232C128.877 66.2675 129.072 66.9999 129.323 67.7139C129.575 68.4339 129.865 69.1397 130.194 69.8281C130.519 70.5211 130.88 71.1972 131.274 71.8538ZM113.047 58.1834C113.285 58.1048 113.534 58.0657 113.785 58.0676C114.037 58.0644 114.288 58.0961 114.531 58.1616C114.784 58.225 115.02 58.3421 115.223 58.5048C115.328 58.5839 115.415 58.6828 115.481 58.7958C115.547 58.9088 115.59 59.0337 115.608 59.1633C115.459 58.9853 115.275 58.84 115.068 58.7368C114.866 58.6368 114.654 58.5594 114.436 58.506C113.995 58.3802 113.532 58.3097 113.047 58.1834Z" fill="#333333"/>
<path id="Vector_6" d="M128.33 63.8351C126.876 64.0219 125.422 64.1632 123.967 64.2774C123.239 64.3363 122.511 64.3864 121.783 64.4324L121.51 64.4504C121.411 64.4585 121.311 64.4615 121.211 64.4592C121.019 64.4537 120.828 64.4381 120.637 64.4124C120.264 64.3663 119.902 64.288 119.542 64.2101C118.824 64.0432 118.119 63.8477 117.413 63.6655C116.713 63.4683 116.001 63.3167 115.282 63.2117C115.104 63.1908 114.925 63.1804 114.746 63.1806C114.578 63.1723 114.41 63.2032 114.256 63.2709C114.226 63.2868 114.199 63.3081 114.177 63.3337C114.153 63.3652 114.129 63.4053 114.105 63.4406C114.054 63.5108 114.019 63.5941 113.975 63.6701C113.742 64.1517 113.607 64.6749 113.579 65.2091C113.55 65.5483 113.615 65.8889 113.766 66.194C113.846 66.3286 113.957 66.4422 114.089 66.5254C114.222 66.6086 114.372 66.6589 114.528 66.6722C114.688 66.7022 114.851 66.7078 115.013 66.6889C115.178 66.6649 115.341 66.6216 115.496 66.5597C115.691 66.4884 115.897 66.45 116.104 66.446C116.31 66.4467 116.515 66.4754 116.713 66.5313C117.08 66.6429 117.436 66.7892 117.775 66.9682C118.42 67.2878 119.082 67.5741 119.757 67.8261C120.432 68.0879 121.115 68.3325 121.8 68.5664C123.17 69.0413 124.564 69.4396 125.978 69.7594C127.384 70.1148 128.838 70.246 130.286 70.148L130.288 70.1478C130.295 70.1471 130.303 70.1492 130.308 70.1537C130.314 70.1583 130.318 70.1648 130.319 70.1721C130.321 70.1794 130.319 70.1869 130.315 70.1931C130.311 70.1992 130.304 70.2036 130.297 70.2052C128.843 70.4876 127.348 70.4884 125.894 70.2077C124.439 69.965 123.005 69.6137 121.603 69.1566C120.197 68.7019 118.83 68.1321 117.517 67.4531C117.214 67.2841 116.896 67.141 116.569 67.0253C116.268 66.9132 115.939 66.9048 115.633 67.0016C115.445 67.065 115.25 67.106 115.053 67.1239C114.849 67.1342 114.646 67.1134 114.449 67.0623C114.35 67.042 114.253 67.0112 114.161 66.9706C114.06 66.9363 113.966 66.8854 113.882 66.82C113.839 66.788 113.794 66.759 113.755 66.7236L113.65 66.6034C113.582 66.5238 113.525 66.4353 113.482 66.3404C113.326 65.9788 113.273 65.5812 113.328 65.1913C113.371 64.8187 113.458 64.4525 113.587 64.1003C113.652 63.9254 113.727 63.754 113.81 63.587C113.858 63.5055 113.896 63.4201 113.953 63.3424C113.981 63.3026 114.004 63.2636 114.035 63.2233C114.072 63.1797 114.117 63.1435 114.168 63.1168C114.348 63.036 114.545 62.9962 114.743 63.0003C114.929 62.9969 115.116 63.0047 115.301 63.0236C116.769 63.1797 118.204 63.4967 119.637 63.7339C119.993 63.7981 120.35 63.8511 120.702 63.8969C120.873 63.9187 121.046 63.9314 121.22 63.9351C121.308 63.9386 121.378 63.9322 121.469 63.93L121.743 63.9173C122.473 63.8814 123.204 63.8495 123.936 63.8265C125.399 63.7768 126.863 63.7543 128.327 63.7769C128.335 63.777 128.342 63.78 128.347 63.7851C128.352 63.7903 128.356 63.7973 128.356 63.8047C128.356 63.8121 128.354 63.8194 128.349 63.825C128.344 63.8307 128.337 63.8343 128.33 63.8351ZM125.385 49.4705C125.524 49.4657 125.656 49.407 125.753 49.3069C125.85 49.2068 125.904 49.0731 125.904 48.934C125.904 48.7948 125.85 48.6611 125.753 48.561C125.656 48.4609 125.524 48.4023 125.385 48.3975C125.246 48.4023 125.114 48.4609 125.017 48.561C124.92 48.6611 124.866 48.7948 124.866 48.934C124.866 49.0731 124.92 49.2068 125.017 49.3069C125.114 49.407 125.246 49.4657 125.385 49.4705ZM122.612 54.8785C122.751 54.8737 122.883 54.8151 122.98 54.715C123.077 54.6149 123.131 54.4812 123.131 54.342C123.131 54.2028 123.077 54.0691 122.98 53.969C122.883 53.8689 122.751 53.8103 122.612 53.8055C122.473 53.8103 122.341 53.8689 122.244 53.969C122.147 54.0691 122.093 54.2028 122.093 54.342C122.093 54.4812 122.147 54.6149 122.244 54.715C122.341 54.8151 122.473 54.8737 122.612 54.8785ZM120.936 59.7071C121.075 59.7023 121.207 59.6437 121.304 59.5436C121.4 59.4435 121.455 59.3098 121.455 59.1706C121.455 59.0315 121.4 58.8977 121.304 58.7976C121.207 58.6975 121.075 58.6389 120.936 58.6341C120.796 58.6389 120.664 58.6975 120.567 58.7976C120.471 58.8977 120.416 59.0315 120.416 59.1706C120.416 59.3098 120.471 59.4435 120.567 59.5436C120.664 59.6437 120.796 59.7023 120.936 59.7071Z" fill="#333333"/>
<path id="Vector_7" d="M119.587 63.9709C119.6 63.8461 119.66 63.731 119.755 63.6487C119.85 63.5664 119.972 63.5231 120.098 63.5275C120.175 63.5265 120.251 63.5428 120.321 63.5751C120.391 63.6074 120.453 63.655 120.502 63.7143C120.551 63.7737 120.586 63.8433 120.605 63.918C120.623 63.9926 120.625 64.0705 120.609 64.1459L119.587 63.9709ZM119.194 71.2958C119.334 71.291 119.466 71.2324 119.563 71.1323C119.659 71.0322 119.713 70.8985 119.713 70.7593C119.713 70.6201 119.659 70.4864 119.563 70.3863C119.466 70.2862 119.334 70.2276 119.194 70.2228C119.055 70.2276 118.923 70.2862 118.826 70.3863C118.729 70.4864 118.675 70.6201 118.675 70.7593C118.675 70.8985 118.729 71.0322 118.826 71.1323C118.923 71.2324 119.055 71.291 119.194 71.2958ZM114.66 74.7344C114.581 74.7122 114.52 74.6963 114.482 74.6836L114.66 74.7344ZM114.949 74.8169C114.835 74.7851 114.736 74.7565 114.66 74.7344L114.949 74.8169ZM119.522 87.8444C119.541 87.9236 119.553 88.0029 119.569 88.0789C119.202 87.8936 118.889 87.6162 118.661 87.2738C118.398 86.8698 118.201 86.4267 118.077 85.9611C117.951 85.4894 117.859 85.0094 117.801 84.5248C117.734 84.0365 117.696 83.5452 117.677 83.0506C117.642 82.5559 117.639 82.0582 117.639 81.5604C117.632 81.0627 117.648 80.5617 117.658 80.0609L117.756 77.2232C118.217 77.3406 118.68 77.442 119.144 77.537C118.998 78.5453 118.89 79.5567 118.829 80.5713C118.712 82.2009 118.766 83.8383 118.988 85.4569C119.023 85.6599 119.052 85.8628 119.093 86.0658L119.233 86.6649L119.522 87.8444Z" fill="#333333"/>
<path id="Vector_8" d="M123.329 133.912C124.247 140.344 125.358 146.765 127.06 153.039C123.707 153.039 119.195 148.147 119.195 148.147L121.868 140.677C121.868 140.677 115.454 118.015 114.327 106.17C113.199 94.3216 115.098 74.858 115.098 74.858C116.533 75.2287 117.986 75.5229 119.452 75.7394C119.363 76.1801 119.284 76.6272 119.214 77.071C117.791 76.8744 116.375 76.643 114.968 76.3132C115.86 76.6816 116.778 76.9825 117.715 77.2136C117.457 78.135 117.274 79.0754 117.166 80.0259C117.04 81.0384 116.999 82.0596 117.042 83.079C117.072 84.1156 117.263 85.1412 117.607 86.1196C117.79 86.6169 118.066 87.0751 118.42 87.4702C118.729 87.8111 119.136 88.049 119.585 88.1518C119.728 88.8399 119.858 89.531 119.957 90.2253C120.198 91.8265 120.354 93.4371 120.468 95.0509C120.582 96.6679 120.649 98.2816 120.69 99.9049L120.836 104.778C120.976 108.025 121.106 111.271 121.335 114.515C121.799 120.998 122.418 127.476 123.329 133.912Z" fill="#333333"/>
<path id="Vector_9" d="M119.268 77.0805C119.322 76.6303 119.382 76.1832 119.452 75.7394C124.022 76.4231 128.663 76.4945 133.253 75.9518C133.373 76.5003 133.487 77.0498 133.592 77.6005C132.805 77.6005 132.027 77.648 131.243 77.6607L130.071 77.6798C129.68 77.6892 129.29 77.6956 128.902 77.6892C128.512 77.683 128.121 77.683 127.73 77.6861L126.562 77.6544C125.784 77.6513 125.006 77.5942 124.231 77.5624C122.675 77.4674 121.125 77.3215 119.582 77.1249C119.477 77.1091 119.373 77.0932 119.268 77.0805Z" fill="#333333"/>
<path id="Vector_10" d="M137.12 155.357C133.51 157.288 127.06 153.039 127.06 153.039C126.321 149.875 125.727 146.682 125.206 143.48C124.672 140.281 124.207 137.071 123.809 133.848C123.005 127.409 122.391 120.95 121.967 114.47C121.726 111.236 121.57 107.996 121.414 104.753L121.24 99.889C121.195 98.2658 121.106 96.6329 120.957 95.0128C120.811 93.3927 120.624 91.7727 120.354 90.162C120.224 89.3598 120.059 88.5577 119.871 87.7619L119.557 86.5793L119.411 85.9991C119.366 85.8026 119.335 85.6027 119.296 85.4063C119.03 83.8124 118.93 82.1952 118.998 80.5807C119.033 79.5694 119.106 78.558 119.217 77.553C119.312 77.572 119.408 77.591 119.503 77.6099C121.052 77.9028 122.619 78.0977 124.193 78.1934C125.766 78.2806 127.342 78.2774 128.915 78.1838C129.702 78.1553 130.484 78.0476 131.265 77.9714C132.046 77.8731 132.821 77.7432 133.592 77.6005H133.596C136.904 94.5563 133.64 112.349 133.64 112.349C136.219 124.841 137.12 155.357 137.12 155.357Z" fill="#333333"/>
<path id="Vector_11" d="M127.49 153.295C127.263 154.476 126.766 155.588 126.039 156.547C125.668 157.033 125.225 157.46 124.727 157.816C124.221 158.171 123.655 158.432 123.056 158.588C122.493 158.712 121.942 158.883 121.407 159.097C121.146 159.204 120.901 159.346 120.678 159.518C120.477 159.691 120.293 159.936 120.377 160.169C120.419 160.289 120.503 160.389 120.614 160.452C120.729 160.525 120.857 160.573 120.991 160.595C121.283 160.646 121.57 160.704 121.86 160.747C122.438 160.837 123.021 160.897 123.605 160.926C124.182 160.953 124.76 160.938 125.335 160.882C125.887 160.837 126.425 160.688 126.921 160.442C127.931 159.823 128.975 159.259 130.047 158.754C130.605 158.503 131.19 158.319 131.791 158.204C132.108 158.151 132.432 158.144 132.751 158.185C132.903 158.206 133.054 158.236 133.203 158.274L133.42 158.323C133.479 158.337 133.539 158.346 133.6 158.35C133.853 158.367 134.105 158.3 134.317 158.16C134.529 158.02 134.69 157.815 134.773 157.575C134.817 157.448 134.842 157.316 134.847 157.182L134.877 156.741C134.896 156.447 134.916 156.154 134.942 155.86C134.942 155.853 134.946 155.846 134.951 155.841C134.957 155.836 134.964 155.833 134.971 155.833C134.978 155.833 134.985 155.836 134.991 155.841C134.996 155.846 135 155.853 135 155.86C135.027 156.154 135.046 156.447 135.065 156.741L135.095 157.182C135.109 157.341 135.096 157.502 135.057 157.658C134.976 157.987 134.786 158.278 134.518 158.487C134.251 158.695 133.921 158.807 133.582 158.806C133.495 158.805 133.409 158.797 133.324 158.782L133.108 158.748C132.97 158.721 132.831 158.702 132.691 158.69C132.423 158.674 132.155 158.696 131.894 158.757C131.345 158.891 130.81 159.081 130.299 159.323C129.249 159.797 128.231 160.371 127.184 160.924C126.616 161.19 125.998 161.333 125.371 161.343C124.771 161.365 124.171 161.331 123.577 161.244C122.986 161.171 122.405 161.053 121.825 160.942L120.96 160.77C120.803 160.741 120.653 160.685 120.517 160.604C120.369 160.521 120.256 160.389 120.198 160.23C120.169 160.147 120.156 160.06 120.162 159.972C120.173 159.888 120.196 159.806 120.231 159.728C120.303 159.584 120.399 159.454 120.515 159.342C120.738 159.13 120.989 158.95 121.262 158.807C121.795 158.528 122.352 158.298 122.927 158.12C123.459 157.946 123.966 157.701 124.432 157.391C124.897 157.069 125.319 156.69 125.688 156.261C126.433 155.372 127.023 154.365 127.433 153.281L127.434 153.279C127.437 153.272 127.442 153.267 127.449 153.264C127.455 153.26 127.463 153.26 127.47 153.262C127.477 153.264 127.483 153.268 127.486 153.275C127.49 153.281 127.492 153.288 127.49 153.295Z" fill="#333333"/>
<path id="Vector_12" d="M120.133 149.12C119.905 150.301 119.409 151.413 118.682 152.372C118.31 152.858 117.868 153.285 117.369 153.64C116.863 153.996 116.298 154.257 115.699 154.412C115.136 154.537 114.584 154.707 114.049 154.922C113.788 155.029 113.543 155.17 113.321 155.343C113.12 155.515 112.935 155.76 113.02 155.994C113.062 156.113 113.146 156.214 113.257 156.276C113.371 156.349 113.5 156.398 113.634 156.42C113.926 156.471 114.212 156.529 114.503 156.571C115.081 156.662 115.663 156.722 116.248 156.751C116.825 156.778 117.403 156.763 117.978 156.706C118.529 156.662 119.067 156.513 119.563 156.267C120.573 155.647 121.617 155.084 122.689 154.579C123.247 154.328 123.833 154.143 124.434 154.029C124.751 153.976 125.074 153.969 125.393 154.009C125.546 154.031 125.696 154.061 125.845 154.099L126.063 154.148C126.341 154.213 126.634 154.173 126.884 154.035C127.134 153.896 127.324 153.67 127.416 153.4C127.46 153.273 127.485 153.14 127.49 153.006L127.519 152.566C127.539 152.272 127.558 151.978 127.584 151.685C127.585 151.677 127.588 151.671 127.594 151.666C127.599 151.661 127.606 151.658 127.614 151.658C127.621 151.658 127.628 151.661 127.633 151.666C127.639 151.671 127.642 151.677 127.643 151.685C127.669 151.978 127.689 152.272 127.708 152.566L127.738 153.006C127.751 153.166 127.739 153.327 127.7 153.483C127.618 153.811 127.428 154.103 127.161 154.312C126.893 154.52 126.563 154.632 126.224 154.631C126.138 154.63 126.051 154.622 125.966 154.607L125.75 154.572C125.612 154.546 125.473 154.527 125.333 154.515C125.066 154.499 124.798 154.521 124.537 154.582C123.987 154.716 123.453 154.906 122.941 155.148C121.892 155.621 120.874 156.195 119.826 156.748C119.259 157.015 118.641 157.158 118.014 157.168C117.414 157.189 116.813 157.156 116.219 157.069C115.628 156.996 115.048 156.877 114.468 156.767L113.602 156.594C113.446 156.566 113.296 156.51 113.16 156.429C113.012 156.346 112.899 156.213 112.84 156.055C112.811 155.972 112.799 155.884 112.805 155.797C112.815 155.713 112.838 155.631 112.873 155.553C112.945 155.409 113.041 155.279 113.158 155.167C113.381 154.955 113.632 154.775 113.904 154.631C114.437 154.353 114.995 154.123 115.569 153.944C116.102 153.771 116.608 153.525 117.075 153.216C117.54 152.894 117.962 152.514 118.331 152.086C119.075 151.197 119.665 150.19 120.076 149.106L120.077 149.104C120.079 149.097 120.085 149.092 120.091 149.089C120.098 149.085 120.105 149.085 120.112 149.087C120.119 149.089 120.125 149.093 120.129 149.099C120.133 149.106 120.134 149.113 120.133 149.12ZM113.441 66.7227C112.555 66.5362 111.718 66.1659 110.984 65.6357C110.245 65.1192 109.567 64.5206 108.963 63.8513C108.314 63.226 107.707 62.5586 107.146 61.8535C106.606 61.1014 106.245 60.2367 106.089 59.3247C105.934 58.4329 105.854 57.5296 105.851 56.6244C105.835 55.7259 105.83 54.8428 105.802 53.9511C105.743 52.1724 105.692 50.3919 105.595 48.6132L105.559 47.9462L105.541 47.6126C105.537 47.5219 105.522 47.4319 105.497 47.3446C105.454 47.2151 105.383 47.0965 105.29 46.9967C105.196 46.897 105.083 46.8186 104.956 46.7669C104.83 46.7152 104.694 46.6915 104.557 46.6972C104.42 46.703 104.287 46.7382 104.165 46.8003L103.561 47.0946C103.157 47.2883 102.75 47.4775 102.34 47.6591C101.521 48.0349 100.678 48.3543 99.8162 48.6153C99.5962 48.6783 99.3723 48.7271 99.146 48.7613C98.9043 48.8108 98.6538 48.7963 98.4194 48.7194C98.3546 48.6884 98.2967 48.6447 98.2491 48.5909C98.2147 48.5523 98.1782 48.5157 98.1398 48.4811C98.0611 48.4091 97.976 48.3399 97.8896 48.2723C97.7165 48.1368 97.536 48.0074 97.3543 47.8798C96.6245 47.3721 95.871 46.8925 95.1214 46.4079C94.3698 45.9255 93.6086 45.4586 92.8724 44.9446C92.6887 44.8151 92.5066 44.6833 92.3311 44.5349C92.2316 44.4576 92.1464 44.3635 92.0794 44.2568C92.068 44.234 92.0603 44.2096 92.0565 44.1844C92.0543 44.1634 92.0564 44.1422 92.0626 44.122C92.0688 44.1018 92.0789 44.0831 92.0924 44.0669C92.1304 44.0279 92.1819 44.005 92.2363 44.0026C92.2984 43.9988 92.3609 44.0007 92.4227 44.0084C92.8746 44.0437 93.3174 44.1142 93.7607 44.1819C94.6462 44.3239 95.5239 44.4943 96.4009 44.6807L96.281 44.9431C95.6571 44.5091 95.0789 44.0128 94.5555 43.462C94.412 43.3084 94.2971 43.1306 94.2161 42.9368C94.1866 42.8652 94.1756 42.7873 94.1841 42.7103C94.1925 42.6333 94.2203 42.5597 94.2647 42.4962C94.3573 42.3908 94.4845 42.3217 94.6235 42.3014C94.8289 42.2682 95.0383 42.2684 95.2436 42.3021C95.4417 42.3264 95.6371 42.3686 95.8276 42.4282C96.5549 42.6934 97.2311 43.0816 97.8265 43.5758C98.4239 44.0493 98.9792 44.5735 99.486 45.1426L99.1001 45.138C99.5915 44.5839 100.128 44.0709 100.703 43.6043C100.997 43.3659 101.31 43.1522 101.64 42.9656C101.994 42.7449 102.403 42.6262 102.821 42.6224L102.54 43.0086C102.514 42.9613 102.484 42.9168 102.449 42.8758C102.407 42.8253 102.36 42.7787 102.31 42.7365C102.204 42.6484 102.086 42.5752 101.96 42.5189C101.69 42.4026 101.401 42.3371 101.107 42.3259C100.792 42.3028 100.53 42.3559 100.118 42.3431C99.7197 42.3212 99.3406 42.1642 99.0436 41.8982C98.7686 41.6389 98.558 41.319 98.4287 40.964C98.4111 40.9221 98.3973 40.8794 98.3822 40.8371L98.3596 40.7695L98.3356 40.6701C98.3122 40.5295 98.3303 40.3852 98.3876 40.2547C98.4439 40.1284 98.5332 40.0196 98.6461 39.9396C98.759 39.8596 98.8914 39.8114 99.0293 39.8C99.1639 39.7901 99.2988 39.8143 99.4215 39.8703L99.6354 39.961C99.78 40.0182 99.9276 40.07 100.078 40.1165C100.381 40.2097 100.689 40.2841 101 40.3394C101.64 40.428 102.284 40.4745 102.929 40.4786C103.635 40.4841 104.329 40.6563 104.956 40.9811C105.265 41.1535 105.55 41.3661 105.804 41.6135L105.992 41.7961L106.159 41.9652C106.269 42.0804 106.386 42.1822 106.503 42.2863C106.623 42.3874 106.741 42.4798 106.877 42.5838C107.033 42.6951 107.17 42.8307 107.283 42.9854C107.473 43.2814 107.63 43.5979 107.75 43.9289C108.23 45.17 108.637 46.4141 109.077 47.6524C109.514 48.8882 109.965 50.12 110.43 51.3475C111.372 53.7977 112.344 56.2389 113.369 58.659C113.372 58.666 113.372 58.674 113.369 58.6811C113.366 58.6883 113.361 58.694 113.354 58.6972C113.347 58.7004 113.339 58.7007 113.332 58.6981C113.325 58.6954 113.319 58.6901 113.315 58.6832C112.176 56.3134 111.093 53.9155 110.085 51.4847C109.577 50.2709 109.089 49.0483 108.631 47.8133C108.168 46.5839 107.732 45.3377 107.24 44.1367C107.131 43.8516 106.992 43.579 106.825 43.3235C106.742 43.2137 106.64 43.1189 106.525 43.043C106.398 42.9501 106.255 42.8425 106.124 42.7312C105.994 42.6174 105.863 42.5032 105.746 42.3812L105.565 42.2008L105.399 42.0406C105.181 41.8289 104.936 41.6471 104.67 41.5002C104.121 41.2212 103.514 41.0766 102.898 41.0783C102.227 41.0766 101.557 41.0299 100.893 40.9387C100.557 40.8804 100.224 40.8015 99.8973 40.7023C99.7331 40.6524 99.5703 40.596 99.4087 40.5329C99.3281 40.5009 99.2478 40.4677 99.168 40.432C99.1409 40.4188 99.1107 40.4129 99.0806 40.4149C99.054 40.4175 99.0285 40.4269 99.0066 40.4423C98.9847 40.4576 98.9672 40.4784 98.9558 40.5026C98.9471 40.5235 98.9442 40.5465 98.9473 40.569C98.9498 40.5755 98.9514 40.5823 98.952 40.5893L98.9682 40.6386C98.9803 40.6736 98.9912 40.7095 99.0052 40.7433C99.0971 41.0099 99.2497 41.2515 99.451 41.4492C99.6459 41.6284 99.897 41.7346 100.162 41.7496C100.407 41.766 100.802 41.7136 101.145 41.7427C101.51 41.762 101.868 41.8486 102.201 41.9982C102.375 42.0783 102.537 42.1821 102.682 42.3064C102.757 42.3709 102.826 42.4419 102.888 42.5185C102.959 42.6031 103.018 42.6972 103.064 42.7981C103.083 42.8409 103.092 42.888 103.088 42.9349C103.084 42.9819 103.068 43.027 103.041 43.066C103.015 43.1049 102.979 43.1364 102.936 43.1573C102.894 43.1782 102.847 43.1879 102.8 43.1854L102.783 43.1843C102.471 43.194 102.168 43.2858 101.903 43.4503C101.599 43.6187 101.31 43.8117 101.039 44.0274C100.484 44.4702 99.9635 44.9544 99.482 45.4758L99.4791 45.4789C99.4561 45.5036 99.4285 45.5235 99.3978 45.5375C99.3672 45.5515 99.334 45.5593 99.3003 45.5605C99.2666 45.5618 99.233 45.5563 99.2014 45.5446C99.1698 45.5328 99.1408 45.515 99.1162 45.4921L99.096 45.4712C98.62 44.9169 98.0972 44.4046 97.5334 43.9398C96.9859 43.4698 96.3645 43.0933 95.6942 42.8255C95.53 42.7691 95.3611 42.7275 95.1894 42.7013C95.0268 42.6689 94.8601 42.6623 94.6955 42.6817C94.6486 42.6864 94.6036 42.7025 94.5643 42.7286C94.5605 42.7284 94.5469 42.7524 94.5689 42.8208C94.6314 42.9718 94.7188 43.1113 94.8273 43.2336C95.3174 43.7787 95.8627 44.2718 96.4545 44.705L96.4588 44.7084C96.4854 44.7289 96.5042 44.758 96.512 44.7907C96.5198 44.8233 96.5161 44.8577 96.5016 44.888C96.487 44.9183 96.4626 44.9427 96.4322 44.9572C96.4018 44.9716 96.3674 44.9752 96.3347 44.9674C95.4692 44.7609 94.597 44.5688 93.7222 44.4062C93.2851 44.3248 92.8445 44.257 92.4062 44.2171C92.3573 44.2105 92.3079 44.2079 92.2586 44.2093C92.237 44.2078 92.2317 44.2212 92.2497 44.202C92.2546 44.1968 92.2584 44.1905 92.2605 44.1836C92.2627 44.1767 92.2633 44.1694 92.2622 44.1622C92.2654 44.1629 92.2602 44.1596 92.2661 44.1686C92.3214 44.2488 92.3882 44.3204 92.4643 44.3811C92.6283 44.5226 92.8069 44.6549 92.9868 44.7841C94.4387 45.8127 95.9884 46.7068 97.4747 47.7061C97.6598 47.8328 97.844 47.9613 98.0242 48.0986C98.1142 48.1676 98.2035 48.2381 98.2903 48.3156C98.3354 48.3552 98.3781 48.3972 98.4185 48.4415C98.4451 48.4713 98.4776 48.4954 98.5139 48.5121C98.7081 48.5671 98.9131 48.5711 99.1093 48.5237C99.3235 48.4843 99.5351 48.4312 99.7425 48.3647C100.582 48.0814 101.402 47.7413 102.195 47.3467C102.596 47.1539 102.994 46.9552 103.389 46.7503L103.98 46.4403C104.212 46.314 104.476 46.2579 104.739 46.279C105.006 46.3005 105.261 46.3985 105.474 46.561C105.686 46.7235 105.847 46.9438 105.938 47.1954C105.98 47.3209 106.006 47.4511 106.016 47.5829L106.04 47.917L106.083 48.5855C106.187 50.3682 106.291 52.1524 106.311 53.94C106.366 55.7282 106.225 57.5228 106.527 59.2433C106.66 60.0986 106.977 60.9149 107.457 61.6354C107.988 62.342 108.565 63.0132 109.184 63.6447C109.757 64.3195 110.399 64.9334 111.098 65.4767C111.45 65.7445 111.824 65.982 112.216 66.1867C112.605 66.3982 113.019 66.559 113.449 66.665L113.452 66.6658C113.46 66.6674 113.466 66.6719 113.471 66.6783C113.475 66.6847 113.476 66.6924 113.475 66.6999C113.473 66.7074 113.469 66.7139 113.462 66.7182C113.456 66.7225 113.448 66.7241 113.441 66.7227Z" fill="#333333"/>
<path id="Vector_13" d="M96.4626 44.6726L98.5171 46.1655L96.2728 44.976C96.2307 44.9537 96.1993 44.9156 96.1854 44.8702C96.1714 44.8247 96.1761 44.7756 96.1985 44.7336C96.2208 44.6916 96.2589 44.6602 96.3044 44.6463C96.3499 44.6323 96.3991 44.637 96.4412 44.6592C96.4486 44.6632 96.4558 44.6677 96.4626 44.6726Z" fill="#333333"/>
<path id="Vector_14" d="M59.2355 59.5002C59.191 58.511 59.1529 57.5377 59.1243 56.5738C59.0926 55.61 59.0735 54.6556 59.0608 53.7014C59.0545 52.8549 59.0545 52.0082 59.0671 51.1617C58.1495 51.149 57.2317 51.1396 56.314 51.1174C55.3423 51.0952 54.3738 51.0634 53.4022 51.0222C53.3736 51.9353 53.3387 52.8516 53.3354 53.7647C53.3228 54.7381 53.3387 55.7114 53.3767 56.6847L53.4974 59.6047C53.5228 60.4893 53.5228 61.3739 53.5133 62.2554C54.4151 62.268 55.317 62.2965 56.2347 62.3377L57.778 62.417L59.3688 62.5026L59.2355 59.5002ZM74.8239 46.1588C74.7762 45.4644 74.7381 44.7923 74.7349 44.1201C74.5317 44.117 74.3317 44.1106 74.1284 44.1043L73.1854 44.0758C72.6106 44.0631 72.0358 44.0187 71.461 43.9742C71.4356 44.323 71.4102 44.6749 71.4007 45.0237C71.3943 45.439 71.3912 45.8511 71.4134 46.2634C71.4547 46.9958 71.5499 47.7281 71.5722 48.4605C72.077 48.4637 72.5788 48.4891 73.0964 48.5239C73.7125 48.5715 74.3475 48.638 75.0493 48.7142C74.9636 47.8106 74.881 46.9672 74.8239 46.1588ZM74.8239 46.1588C74.7762 45.4644 74.7381 44.7923 74.7349 44.1201C74.5317 44.117 74.3317 44.1106 74.1284 44.1043L73.1854 44.0758C72.6106 44.0631 72.0358 44.0187 71.461 43.9742C71.4356 44.323 71.4102 44.6749 71.4007 45.0237C71.3943 45.439 71.3912 45.8511 71.4134 46.2634C71.4547 46.9958 71.5499 47.7281 71.5722 48.4605C72.077 48.4637 72.5788 48.4891 73.0964 48.5239C73.7125 48.5715 74.3475 48.638 75.0493 48.7142C74.9636 47.8106 74.881 46.9672 74.8239 46.1588ZM59.2355 59.5002C59.191 58.511 59.1529 57.5377 59.1243 56.5738C59.0926 55.61 59.0735 54.6556 59.0608 53.7014C59.0545 52.8549 59.0545 52.0082 59.0671 51.1617C58.1495 51.149 57.2317 51.1396 56.314 51.1174C55.3423 51.0952 54.3738 51.0634 53.4022 51.0222C53.3736 51.9353 53.3387 52.8516 53.3354 53.7647C53.3228 54.7381 53.3387 55.7114 53.3767 56.6847L53.4974 59.6047C53.5228 60.4893 53.5228 61.3739 53.5133 62.2554C54.4151 62.268 55.317 62.2965 56.2347 62.3377L57.778 62.417L59.3688 62.5026L59.2355 59.5002ZM59.2355 59.5002C59.191 58.511 59.1529 57.5377 59.1243 56.5738C59.0926 55.61 59.0735 54.6556 59.0608 53.7014C59.0545 52.8549 59.0545 52.0082 59.0671 51.1617C58.1495 51.149 57.2317 51.1396 56.314 51.1174C55.3423 51.0952 54.3738 51.0634 53.4022 51.0222C53.3736 51.9353 53.3387 52.8516 53.3354 53.7647C53.3228 54.7381 53.3387 55.7114 53.3767 56.6847L53.4974 59.6047C53.5228 60.4893 53.5228 61.3739 53.5133 62.2554C54.4151 62.268 55.317 62.2965 56.2347 62.3377L57.778 62.417L59.3688 62.5026L59.2355 59.5002ZM74.8239 46.1588C74.7762 45.4644 74.7381 44.7923 74.7349 44.1201C74.5317 44.117 74.3317 44.1106 74.1284 44.1043L73.1854 44.0758C72.6106 44.0631 72.0358 44.0187 71.461 43.9742C71.4356 44.323 71.4102 44.6749 71.4007 45.0237C71.3943 45.439 71.3912 45.8511 71.4134 46.2634C71.4547 46.9958 71.5499 47.7281 71.5722 48.4605C72.077 48.4637 72.5788 48.4891 73.0964 48.5239C73.7125 48.5715 74.3475 48.638 75.0493 48.7142C74.9636 47.8106 74.881 46.9672 74.8239 46.1588ZM74.8239 46.1588C74.7762 45.4644 74.7381 44.7923 74.7349 44.1201C74.5317 44.117 74.3317 44.1106 74.1284 44.1043L73.1854 44.0758C72.6106 44.0631 72.0358 44.0187 71.461 43.9742C71.4356 44.323 71.4102 44.6749 71.4007 45.0237C71.3943 45.439 71.3912 45.8511 71.4134 46.2634C71.4547 46.9958 71.5499 47.7281 71.5722 48.4605C72.077 48.4637 72.5788 48.4891 73.0964 48.5239C73.7125 48.5715 74.3475 48.638 75.0493 48.7142C74.9636 47.8106 74.881 46.9672 74.8239 46.1588ZM59.2355 59.5002C59.191 58.511 59.1529 57.5377 59.1243 56.5738C59.0926 55.61 59.0735 54.6556 59.0608 53.7014C59.0545 52.8549 59.0545 52.0082 59.0671 51.1617C58.1495 51.149 57.2317 51.1396 56.314 51.1174C55.3423 51.0952 54.3738 51.0634 53.4022 51.0222C53.3736 51.9353 53.3387 52.8516 53.3354 53.7647C53.3228 54.7381 53.3387 55.7114 53.3767 56.6847L53.4974 59.6047C53.5228 60.4893 53.5228 61.3739 53.5133 62.2554C54.4151 62.268 55.317 62.2965 56.2347 62.3377L57.778 62.417L59.3688 62.5026L59.2355 59.5002ZM59.2355 59.5002C59.191 58.511 59.1529 57.5377 59.1243 56.5738C59.0926 55.61 59.0735 54.6556 59.0608 53.7014C59.0545 52.8549 59.0545 52.0082 59.0671 51.1617C58.1495 51.149 57.2317 51.1396 56.314 51.1174C55.3423 51.0952 54.3738 51.0634 53.4022 51.0222C53.3736 51.9353 53.3387 52.8516 53.3354 53.7647C53.3228 54.7381 53.3387 55.7114 53.3767 56.6847L53.4974 59.6047C53.5228 60.4893 53.5228 61.3739 53.5133 62.2554C54.4151 62.268 55.317 62.2965 56.2347 62.3377L57.778 62.417L59.3688 62.5026L59.2355 59.5002ZM74.8239 46.1588C74.7762 45.4644 74.7381 44.7923 74.7349 44.1201C74.5317 44.117 74.3317 44.1106 74.1284 44.1043L73.1854 44.0758C72.6106 44.0631 72.0358 44.0187 71.461 43.9742C71.4356 44.323 71.4102 44.6749 71.4007 45.0237C71.3943 45.439 71.3912 45.8511 71.4134 46.2634C71.4547 46.9958 71.5499 47.7281 71.5722 48.4605C72.077 48.4637 72.5788 48.4891 73.0964 48.5239C73.7125 48.5715 74.3475 48.638 75.0493 48.7142C74.9636 47.8106 74.881 46.9672 74.8239 46.1588ZM74.8239 46.1588C74.7762 45.4644 74.7381 44.7923 74.7349 44.1201C74.5317 44.117 74.3317 44.1106 74.1284 44.1043L73.1854 44.0758C72.6106 44.0631 72.0358 44.0187 71.461 43.9742C71.4356 44.323 71.4102 44.6749 71.4007 45.0237C71.3943 45.439 71.3912 45.8511 71.4134 46.2634C71.4547 46.9958 71.5499 47.7281 71.5722 48.4605C72.077 48.4637 72.5788 48.4891 73.0964 48.5239C73.7125 48.5715 74.3475 48.638 75.0493 48.7142C74.9636 47.8106 74.881 46.9672 74.8239 46.1588ZM59.2355 59.5002C59.191 58.511 59.1529 57.5377 59.1243 56.5738C59.0926 55.61 59.0735 54.6556 59.0608 53.7014C59.0545 52.8549 59.0545 52.0082 59.0671 51.1617C58.1495 51.149 57.2317 51.1396 56.314 51.1174C55.3423 51.0952 54.3738 51.0634 53.4022 51.0222C53.3736 51.9353 53.3387 52.8516 53.3354 53.7647C53.3228 54.7381 53.3387 55.7114 53.3767 56.6847L53.4974 59.6047C53.5228 60.4893 53.5228 61.3739 53.5133 62.2554C54.4151 62.268 55.317 62.2965 56.2347 62.3377L57.778 62.417L59.3688 62.5026L59.2355 59.5002ZM75.9257 38.5654H51.8366C50.9962 38.5656 50.1902 38.899 49.5959 39.4923C49.0016 40.0857 48.6677 40.8904 48.6675 41.7295V63.143C48.6677 63.9822 49.0016 64.7869 49.5959 65.3802C50.1902 65.9736 50.9962 66.307 51.8366 66.3072H71.2991V61.653C70.5275 61.7765 69.7558 61.8431 68.9842 61.8908C68.1903 61.9414 67.3964 61.9541 66.6025 61.9604C65.8087 61.9541 65.0148 61.9383 64.2209 61.8908C63.4244 61.8493 62.6305 61.7667 61.8425 61.6434C62.6303 61.5185 63.4243 61.436 64.2209 61.3962C65.0148 61.3454 65.8087 61.3327 66.6025 61.3263C67.3964 61.3327 68.1903 61.3454 68.9842 61.3962C69.7595 61.4345 70.5322 61.5138 71.2991 61.6339V59.3321C70.5157 59.4584 69.7259 59.5409 68.9334 59.5795C68.1459 59.6301 67.3584 59.646 66.5708 59.6491C65.7802 59.6428 64.9926 59.6301 64.2051 59.5795C63.4137 59.5394 62.625 59.4568 61.8425 59.3321C62.6251 59.2085 63.4137 59.127 64.2051 59.088C64.9926 59.0373 65.7802 59.0214 66.5708 59.015C67.3584 59.0214 68.1459 59.0341 68.9334 59.0849C69.7257 59.1265 70.5153 59.209 71.2991 59.3321V57.1699C70.532 57.2883 69.7593 57.3677 68.9842 57.4077C68.1903 57.4584 67.3964 57.4711 66.6025 57.4773C65.8087 57.4711 65.0148 57.4584 64.2209 57.4077C63.4244 57.3662 62.6305 57.2837 61.8425 57.1603C62.6305 57.037 63.4244 56.9545 64.2209 56.913C65.0148 56.8623 65.8087 56.8496 66.6025 56.8432C67.3964 56.8496 68.1903 56.8623 68.9842 56.913C69.7593 56.953 70.532 57.0324 71.2991 57.1508V56.8338C71.2988 56.418 71.3806 56.0063 71.5398 55.6222C71.6989 55.238 71.9323 54.8889 72.2266 54.5948C72.5209 54.3007 72.8703 54.0673 73.2549 53.908C73.6395 53.7488 74.0518 53.6667 74.4682 53.6665H79.0949V41.7295C79.095 41.3139 79.0132 40.9024 78.854 40.5184C78.6948 40.1345 78.4613 39.7856 78.167 39.4918C77.8727 39.1979 77.5233 38.9648 77.1387 38.8059C76.7541 38.6469 76.342 38.5652 75.9257 38.5654ZM57.2667 43.5399C58.6099 43.4892 59.9531 43.4765 61.2963 43.4702C62.6396 43.4765 63.9828 43.4892 65.3261 43.5399C66.6724 43.5875 68.0156 43.6541 69.3589 43.7872C68.0156 43.9204 66.6724 43.9869 65.3261 44.0345C63.9828 44.0852 62.6396 44.0979 61.2963 44.1043C59.9531 44.0979 58.6099 44.0852 57.2667 44.0345C55.9235 43.9869 54.5803 43.9173 53.237 43.7872C54.5803 43.6572 55.9235 43.5875 57.2667 43.5399ZM57.2667 46.0478C58.6099 45.997 59.9531 45.9812 61.2963 45.9748C62.6396 45.9812 63.9828 45.9939 65.3261 46.0447C66.6724 46.0922 68.0156 46.1619 69.3589 46.2919C68.0156 46.425 66.6724 46.4948 65.3261 46.5391C63.9828 46.5899 62.6396 46.6057 61.2963 46.6089C59.9531 46.6026 58.6099 46.5899 57.2667 46.5391C55.9235 46.4916 54.5803 46.425 53.237 46.2919C54.5803 46.1618 55.9235 46.0922 57.2667 46.0478ZM59.7245 53.8282C59.7086 54.8205 59.6896 55.8128 59.6578 56.7957C59.6292 57.7786 59.5932 58.7509 59.5498 59.7126C59.5118 60.6732 59.4641 61.6213 59.4133 62.547L57.9272 62.6357L56.3934 62.715C55.355 62.7594 54.2944 62.7911 53.237 62.8006L52.9639 62.8038L52.9607 62.5249C52.9448 61.5514 52.948 60.5781 52.9766 59.6047L53.0942 56.6847C53.1322 55.7114 53.1481 54.7381 53.1354 53.7647C53.1322 52.7914 53.0942 51.8181 53.0624 50.8447L53.056 50.6767L53.237 50.6704C54.2627 50.6259 55.2884 50.5911 56.314 50.5721C57.3397 50.5467 58.3654 50.5372 59.3911 50.5213L59.7086 50.5149L59.715 50.8447C59.734 51.837 59.7309 52.8326 59.7245 53.8282ZM61.2963 49.0534C59.9531 49.047 58.6099 49.0343 57.2667 48.9836C55.9235 48.9393 54.5803 48.8695 53.237 48.7396C54.5803 48.6063 55.9235 48.5366 57.2667 48.4922C58.6099 48.4414 59.9531 48.4287 61.2963 48.4225C62.6396 48.4256 63.9828 48.4414 65.3261 48.4922C66.6724 48.5366 68.0156 48.6063 69.3589 48.7396C68.0156 48.8695 66.6724 48.9393 65.3261 48.9868C63.9828 49.0343 62.6396 49.0503 61.2963 49.0534ZM68.9334 55.0994C68.1458 55.1502 67.3583 55.1629 66.5708 55.1693C65.7801 55.1629 64.9926 55.1471 64.205 55.0964C63.4137 55.0574 62.6251 54.9759 61.8425 54.8522C62.625 54.7275 63.4137 54.645 64.205 54.605C64.9926 54.5542 65.7801 54.5415 66.5708 54.5352C67.3583 54.5384 68.1458 54.5542 68.9334 54.605C69.7259 54.6434 70.5157 54.7259 71.2991 54.8522C70.5153 54.9754 69.7257 55.0579 68.9334 55.0994ZM68.9334 52.6837C68.1458 52.7343 67.3583 52.747 66.5708 52.7533C65.7801 52.747 64.9926 52.7343 64.205 52.6837C63.4138 52.6421 62.6252 52.5595 61.8425 52.4363C62.6252 52.3132 63.4138 52.2307 64.205 52.189C64.9926 52.1383 65.7801 52.1256 66.5708 52.1192C67.3583 52.1256 68.1458 52.1383 68.9334 52.189C69.7258 52.229 70.5155 52.3116 71.2991 52.4363C70.5157 52.5625 69.7259 52.6451 68.9334 52.6837ZM75.3192 46.3648C75.262 47.2082 75.1795 48.0166 75.0937 48.7617C74.538 48.8377 73.9156 48.9043 73.2742 48.952C72.6296 48.9963 71.9628 49.0249 71.2991 49.0217L71.0133 49.0186L71.0165 48.7396C71.0165 47.912 71.1371 47.0878 71.1816 46.2634C71.207 45.8512 71.2038 45.4391 71.1974 45.0237C71.1848 44.6116 71.153 44.1994 71.1244 43.7873L71.1149 43.6287L71.2991 43.6128C71.9278 43.5622 72.5565 43.5145 73.1853 43.4987L74.1284 43.4702C74.4428 43.4639 74.7572 43.4479 75.0716 43.4479L75.4082 43.4512L75.4113 43.7873C75.4208 44.6528 75.3764 45.5247 75.3192 46.3648ZM74.7349 44.1201C74.5317 44.117 74.3317 44.1106 74.1284 44.1043L73.1854 44.0758C72.6106 44.0631 72.0358 44.0187 71.461 43.9742C71.4356 44.323 71.4102 44.6749 71.4007 45.0237C71.3943 45.439 71.3912 45.8511 71.4134 46.2634C71.4547 46.9958 71.5499 47.7281 71.5722 48.4605C72.077 48.4637 72.5788 48.4891 73.0964 48.5239C73.7125 48.5715 74.3475 48.638 75.0493 48.7142C74.9636 47.8106 74.881 46.9672 74.8239 46.1588C74.7762 45.4644 74.7381 44.7923 74.7349 44.1201ZM59.1243 56.5738C59.0926 55.61 59.0735 54.6556 59.0608 53.7014C59.0545 52.8549 59.0545 52.0082 59.0671 51.1617C58.1495 51.149 57.2317 51.1396 56.314 51.1174C55.3423 51.0952 54.3738 51.0634 53.4022 51.0222C53.3736 51.9353 53.3387 52.8516 53.3354 53.7647C53.3228 54.7381 53.3387 55.7114 53.3767 56.6847L53.4974 59.6047C53.5228 60.4893 53.5228 61.3739 53.5133 62.2554C54.4151 62.268 55.317 62.2965 56.2347 62.3377L57.778 62.417L59.3688 62.5026L59.2355 59.5002C59.191 58.511 59.1529 57.5377 59.1243 56.5738ZM59.2355 59.5002C59.191 58.511 59.1529 57.5377 59.1243 56.5738C59.0926 55.61 59.0735 54.6556 59.0608 53.7014C59.0545 52.8549 59.0545 52.0082 59.0671 51.1617C58.1495 51.149 57.2317 51.1396 56.314 51.1174C55.3423 51.0952 54.3738 51.0634 53.4022 51.0222C53.3736 51.9353 53.3387 52.8516 53.3354 53.7647C53.3228 54.7381 53.3387 55.7114 53.3767 56.6847L53.4974 59.6047C53.5228 60.4893 53.5228 61.3739 53.5133 62.2554C54.4151 62.268 55.317 62.2965 56.2347 62.3377L57.778 62.417L59.3688 62.5026L59.2355 59.5002ZM74.8239 46.1588C74.7762 45.4644 74.7381 44.7923 74.7349 44.1201C74.5317 44.117 74.3317 44.1106 74.1284 44.1043L73.1854 44.0758C72.6106 44.0631 72.0358 44.0187 71.461 43.9742C71.4356 44.323 71.4102 44.6749 71.4007 45.0237C71.3943 45.439 71.3912 45.8511 71.4134 46.2634C71.4547 46.9958 71.5499 47.7281 71.5722 48.4605C72.077 48.4637 72.5788 48.4891 73.0964 48.5239C73.7125 48.5715 74.3475 48.638 75.0493 48.7142C74.9636 47.8106 74.881 46.9672 74.8239 46.1588ZM74.8239 46.1588C74.7762 45.4644 74.7381 44.7923 74.7349 44.1201C74.5317 44.117 74.3317 44.1106 74.1284 44.1043L73.1854 44.0758C72.6106 44.0631 72.0358 44.0187 71.461 43.9742C71.4356 44.323 71.4102 44.6749 71.4007 45.0237C71.3943 45.439 71.3912 45.8511 71.4134 46.2634C71.4547 46.9958 71.5499 47.7281 71.5722 48.4605C72.077 48.4637 72.5788 48.4891 73.0964 48.5239C73.7125 48.5715 74.3475 48.638 75.0493 48.7142C74.9636 47.8106 74.881 46.9672 74.8239 46.1588ZM59.2355 59.5002C59.191 58.511 59.1529 57.5377 59.1243 56.5738C59.0926 55.61 59.0735 54.6556 59.0608 53.7014C59.0545 52.8549 59.0545 52.0082 59.0671 51.1617C58.1495 51.149 57.2317 51.1396 56.314 51.1174C55.3423 51.0952 54.3738 51.0634 53.4022 51.0222C53.3736 51.9353 53.3387 52.8516 53.3354 53.7647C53.3228 54.7381 53.3387 55.7114 53.3767 56.6847L53.4974 59.6047C53.5228 60.4893 53.5228 61.3739 53.5133 62.2554C54.4151 62.268 55.317 62.2965 56.2347 62.3377L57.778 62.417L59.3688 62.5026L59.2355 59.5002ZM59.2355 59.5002C59.191 58.511 59.1529 57.5377 59.1243 56.5738C59.0926 55.61 59.0735 54.6556 59.0608 53.7014C59.0545 52.8549 59.0545 52.0082 59.0671 51.1617C58.1495 51.149 57.2317 51.1396 56.314 51.1174C55.3423 51.0952 54.3738 51.0634 53.4022 51.0222C53.3736 51.9353 53.3387 52.8516 53.3354 53.7647C53.3228 54.7381 53.3387 55.7114 53.3767 56.6847L53.4974 59.6047C53.5228 60.4893 53.5228 61.3739 53.5133 62.2554C54.4151 62.268 55.317 62.2965 56.2347 62.3377L57.778 62.417L59.3688 62.5026L59.2355 59.5002ZM74.8239 46.1588C74.7762 45.4644 74.7381 44.7923 74.7349 44.1201C74.5317 44.117 74.3317 44.1106 74.1284 44.1043L73.1854 44.0758C72.6106 44.0631 72.0358 44.0187 71.461 43.9742C71.4356 44.323 71.4102 44.6749 71.4007 45.0237C71.3943 45.439 71.3912 45.8511 71.4134 46.2634C71.4547 46.9958 71.5499 47.7281 71.5722 48.4605C72.077 48.4637 72.5788 48.4891 73.0964 48.5239C73.7125 48.5715 74.3475 48.638 75.0493 48.7142C74.9636 47.8106 74.881 46.9672 74.8239 46.1588ZM74.8239 46.1588C74.7762 45.4644 74.7381 44.7923 74.7349 44.1201C74.5317 44.117 74.3317 44.1106 74.1284 44.1043L73.1854 44.0758C72.6106 44.0631 72.0358 44.0187 71.461 43.9742C71.4356 44.323 71.4102 44.6749 71.4007 45.0237C71.3943 45.439 71.3912 45.8511 71.4134 46.2634C71.4547 46.9958 71.5499 47.7281 71.5722 48.4605C72.077 48.4637 72.5788 48.4891 73.0964 48.5239C73.7125 48.5715 74.3475 48.638 75.0493 48.7142C74.9636 47.8106 74.881 46.9672 74.8239 46.1588ZM59.2355 59.5002C59.191 58.511 59.1529 57.5377 59.1243 56.5738C59.0926 55.61 59.0735 54.6556 59.0608 53.7014C59.0545 52.8549 59.0545 52.0082 59.0671 51.1617C58.1495 51.149 57.2317 51.1396 56.314 51.1174C55.3423 51.0952 54.3738 51.0634 53.4022 51.0222C53.3736 51.9353 53.3387 52.8516 53.3354 53.7647C53.3228 54.7381 53.3387 55.7114 53.3767 56.6847L53.4974 59.6047C53.5228 60.4893 53.5228 61.3739 53.5133 62.2554C54.4151 62.268 55.317 62.2965 56.2347 62.3377L57.778 62.417L59.3688 62.5026L59.2355 59.5002ZM74.8239 46.1588C74.7762 45.4644 74.7381 44.7923 74.7349 44.1201C74.5317 44.117 74.3317 44.1106 74.1284 44.1043L73.1854 44.0758C72.6106 44.0631 72.0358 44.0187 71.461 43.9742C71.4356 44.323 71.4102 44.6749 71.4007 45.0237C71.3943 45.439 71.3912 45.8511 71.4134 46.2634C71.4547 46.9958 71.5499 47.7281 71.5722 48.4605C72.077 48.4637 72.5788 48.4891 73.0964 48.5239C73.7125 48.5715 74.3475 48.638 75.0493 48.7142C74.9636 47.8106 74.881 46.9672 74.8239 46.1588ZM74.8239 46.1588C74.7762 45.4644 74.7381 44.7923 74.7349 44.1201C74.5317 44.117 74.3317 44.1106 74.1284 44.1043L73.1854 44.0758C72.6106 44.0631 72.0358 44.0187 71.461 43.9742C71.4356 44.323 71.4102 44.6749 71.4007 45.0237C71.3943 45.439 71.3912 45.8511 71.4134 46.2634C71.4547 46.9958 71.5499 47.7281 71.5722 48.4605C72.077 48.4637 72.5788 48.4891 73.0964 48.5239C73.7125 48.5715 74.3475 48.638 75.0493 48.7142C74.9636 47.8106 74.881 46.9672 74.8239 46.1588ZM180.514 51.6752C178.019 51.6919 175.525 51.6909 173.03 51.7223L165.546 51.8291C163.051 51.8745 160.557 51.8805 158.062 51.8988C156.808 51.9071 155.582 51.9166 154.305 51.8901C153.634 51.8487 152.986 51.6237 152.435 51.2395C151.883 50.8553 151.447 50.3269 151.176 49.7121C151.041 49.4069 150.951 49.0837 150.909 48.7526C150.886 48.5879 150.875 48.422 150.874 48.2558L150.878 47.7872L150.898 45.9193L150.94 42.1831L150.982 38.4469L151.001 34.7108C151.021 32.22 151.01 29.7293 151 27.2386L150.993 25.3705C150.983 25.0515 151.004 24.7322 151.057 24.4174C151.123 24.1012 151.229 23.795 151.373 23.5061C151.667 22.9252 152.116 22.4365 152.67 22.0938C153.227 21.7485 153.867 21.5619 154.522 21.5542C159.512 21.5176 164.501 21.4548 169.49 21.4396L176.974 21.4099C178.23 21.4071 179.451 21.3944 180.734 21.4181C181.416 21.4589 182.073 21.6864 182.634 22.0754C183.195 22.4645 183.638 23.0002 183.915 23.6238C184.052 23.9341 184.145 24.2621 184.192 24.5982C184.216 24.7657 184.229 24.9346 184.232 25.1038L184.232 25.5727L184.229 27.4408C184.228 28.6861 184.228 29.9315 184.212 31.177C184.187 33.6677 184.172 36.1584 184.126 38.6491L184.015 46.1215L183.995 47.9894C184.002 48.3048 183.976 48.62 183.919 48.9303C183.851 49.2394 183.742 49.5383 183.596 49.8195C183.301 50.3804 182.858 50.8499 182.315 51.177C181.771 51.5042 181.148 51.6765 180.514 51.6752ZM180.514 51.6169C181.135 51.6112 181.742 51.436 182.271 51.1103C182.798 50.7865 183.226 50.3237 183.506 49.7729C183.644 49.4988 183.746 49.208 183.809 48.9079C183.861 48.6046 183.882 48.2969 183.872 47.9894L183.853 46.1215L183.742 38.6491C183.695 36.1584 183.68 33.6677 183.656 31.177C183.64 29.9315 183.64 28.6861 183.638 27.4408L183.635 25.5727L183.634 25.1077C183.631 24.9656 183.619 24.8238 183.598 24.6832C183.559 24.4018 183.48 24.1274 183.364 23.868C183.131 23.3468 182.76 22.8996 182.289 22.5754C181.819 22.2512 181.269 22.0625 180.698 22.0301C180.562 22.0203 180.407 22.0195 180.249 22.0211L179.781 22.0218L178.845 22.0232L176.974 22.018L169.49 21.9883C164.501 21.9731 159.512 21.9102 154.522 21.8737C153.921 21.8704 153.331 22.0316 152.815 22.3396C152.299 22.6477 151.878 23.091 151.597 23.6213C151.457 23.8878 151.353 24.1711 151.287 24.4643C151.231 24.763 151.206 25.0667 151.212 25.3705L151.205 27.2386C151.196 29.7293 151.185 32.2201 151.204 34.7108L151.223 38.447L151.265 42.1831L151.307 45.9193L151.327 47.7872L151.334 48.2527C151.338 48.3979 151.351 48.5426 151.374 48.686C151.418 48.9724 151.5 49.2515 151.618 49.5161C151.856 50.0461 152.235 50.5005 152.714 50.8296C153.194 51.1586 153.754 51.3496 154.335 51.3816L158.062 51.3933C160.557 51.4116 163.051 51.4176 165.546 51.463L173.03 51.5698C175.525 51.6012 178.019 51.6001 180.514 51.6169Z" fill="#333333"/>
<path id="Vector_15" d="M193.464 74.8714C190.969 74.8881 188.474 74.887 185.98 74.9184L178.496 75.0252C176.001 75.0706 173.506 75.0766 171.012 75.0949C169.758 75.1034 168.532 75.1127 167.255 75.0862C166.583 75.0449 165.936 74.8199 165.384 74.4357C164.832 74.0515 164.397 73.5231 164.126 72.9082C163.99 72.6031 163.9 72.2798 163.858 71.9487C163.836 71.7841 163.824 71.6181 163.823 71.4519L163.827 70.9835L163.848 69.1154L163.89 65.3792L163.932 61.6431L163.951 57.9071C163.97 55.4162 163.959 52.9255 163.95 50.4347L163.943 48.5667C163.933 48.2477 163.954 47.9284 164.007 47.6136C164.072 47.2975 164.179 46.9911 164.323 46.7023C164.617 46.1214 165.066 45.6327 165.62 45.29C166.177 44.9447 166.817 44.7581 167.472 44.7504C172.462 44.7138 177.451 44.6509 182.44 44.6357L189.924 44.6062C191.179 44.6032 192.401 44.5905 193.684 44.6144C194.366 44.6552 195.023 44.8826 195.584 45.2716C196.145 45.6607 196.588 46.1964 196.864 46.8201C197.002 47.1304 197.095 47.4583 197.142 47.7945C197.166 47.9619 197.179 48.1307 197.182 48.2999L197.182 48.7688L197.179 50.6369C197.178 51.8823 197.177 53.1276 197.162 54.3731C197.137 56.8638 197.122 59.3545 197.076 61.8452L196.965 69.3176L196.945 71.1857C196.951 71.501 196.926 71.8162 196.869 72.1264C196.8 72.4355 196.692 72.7344 196.546 73.0157C196.251 73.5766 195.808 74.0462 195.264 74.3733C194.721 74.7005 194.098 74.8727 193.464 74.8714ZM193.464 74.813C194.085 74.8075 194.692 74.6323 195.221 74.3066C195.748 73.9827 196.175 73.5199 196.456 72.9692C196.594 72.6951 196.696 72.4043 196.759 72.104C196.811 71.8008 196.832 71.4931 196.822 71.1857L196.802 69.3176L196.691 61.8453C196.645 59.3545 196.63 56.8638 196.605 54.3731C196.59 53.1276 196.589 51.8824 196.588 50.6369L196.585 48.7688L196.583 48.3038C196.581 48.1617 196.569 48.0199 196.548 47.8793C196.509 47.598 196.43 47.3235 196.314 47.0641C196.081 46.5429 195.709 46.0958 195.239 45.7716C194.769 45.4474 194.218 45.2588 193.648 45.2263C193.511 45.2166 193.357 45.2158 193.198 45.2174L192.731 45.218L191.795 45.2194L189.924 45.2141L182.44 45.1845C177.451 45.1694 172.462 45.1065 167.472 45.0698C166.871 45.0665 166.281 45.2277 165.765 45.5358C165.249 45.8439 164.828 46.2871 164.546 46.8175C164.407 47.084 164.303 47.3673 164.236 47.6604C164.181 47.9592 164.155 48.2628 164.161 48.5667L164.155 50.4347C164.145 52.9255 164.134 55.4162 164.153 57.9071L164.172 61.6431L164.215 65.3792L164.257 69.1154L164.277 70.9835L164.283 71.4489C164.288 71.594 164.301 71.7387 164.324 71.8822C164.368 72.1685 164.45 72.4477 164.568 72.7122C164.806 73.2423 165.185 73.6967 165.664 74.0258C166.143 74.3548 166.704 74.5458 167.285 74.5777L171.012 74.5895C173.506 74.6077 176.001 74.6138 178.496 74.6591L185.98 74.7659C188.474 74.7974 190.969 74.7963 193.464 74.813Z" fill="#333333"/>
<path id="Vector_16" d="M167.472 44.9101C167.023 44.9101 166.579 44.9984 166.164 45.17C165.749 45.3416 165.372 45.5931 165.054 45.9102C164.737 46.2273 164.485 46.6037 164.313 47.018C164.141 47.4322 164.052 47.8762 164.052 48.3247V51.646H180.514C181.421 51.646 182.291 51.2863 182.932 50.6459C183.574 50.0055 183.934 49.137 183.934 48.2315V44.9101H167.472ZM62.3048 97.9296C57.6808 97.9203 53.0567 98.0139 48.4328 98.0834C46.1207 98.1288 43.8087 98.1348 41.4967 98.1531C40.3342 98.1618 39.1993 98.1701 38.014 98.1452C37.3882 98.1066 36.7852 97.8967 36.271 97.5386C35.7568 97.1806 35.3511 96.6881 35.0986 96.1152C34.9725 95.8309 34.8888 95.5297 34.85 95.2212C34.8294 95.0678 34.8187 94.9132 34.8179 94.7584L34.8219 94.3241L34.8425 92.5928L34.8842 89.1302L34.9267 85.6675L34.9456 82.2049C34.9648 79.8966 34.9538 77.5882 34.9441 75.2799L34.9377 73.5485C34.9278 73.2522 34.9475 72.9558 34.9963 72.6634C35.057 72.3696 35.1556 72.0848 35.2895 71.8163C35.5626 71.2762 35.9795 70.8217 36.4945 70.5027C37.0117 70.1814 37.6072 70.0075 38.2163 69.9999C42.8404 69.9439 47.4644 69.9057 52.0884 69.8852L59.0245 69.8556C60.1884 69.8524 61.3189 69.8408 62.5103 69.8631C63.1462 69.9013 63.7594 70.1134 64.2827 70.4764C64.8059 70.8393 65.219 71.339 65.4767 71.9208C65.605 72.2102 65.692 72.5162 65.7352 72.8297C65.7577 72.9859 65.7701 73.1433 65.7724 73.3011L65.7728 73.7359L65.7699 75.4672C65.7687 76.6214 65.7681 77.7755 65.7526 78.9298C65.7278 81.2381 65.7127 83.5465 65.6667 85.855L65.5556 92.7801L65.5359 94.5115C65.5416 94.8041 65.5178 95.0965 65.465 95.3843C65.4011 95.671 65.3003 95.9483 65.165 96.2091C64.8903 96.7287 64.4788 97.1636 63.9747 97.4668C63.4707 97.77 62.8933 97.93 62.3048 97.9296ZM62.3048 97.8712C62.8786 97.8652 63.4398 97.7029 63.928 97.4018C64.4161 97.1007 64.8127 96.6723 65.0749 96.1627C65.2025 95.9089 65.2967 95.6398 65.3551 95.3619C65.4029 95.0811 65.4223 94.7962 65.4129 94.5115L65.3932 92.7801L65.2821 85.8551C65.236 83.5465 65.2209 81.2382 65.1962 78.9298C65.1807 77.7756 65.18 76.6215 65.1788 75.4672L65.176 73.736L65.1742 73.3051C65.1716 73.1744 65.1607 73.044 65.1416 72.9147C65.1053 72.6559 65.0327 72.4034 64.926 72.1648C64.7121 71.6856 64.3702 71.2744 63.9377 70.9763C63.5053 70.6783 62.999 70.5048 62.4743 70.4751C62.3492 70.4661 62.2057 70.4655 62.059 70.4669L61.6256 70.4677L60.7585 70.469L59.0245 70.4636L52.0884 70.4341C47.4644 70.417 42.8403 70.3788 38.2163 70.3193C37.6614 70.3169 37.1163 70.4658 36.6399 70.75C36.1635 71.0341 35.7738 71.4427 35.5129 71.9317C35.3841 72.1778 35.2876 72.4396 35.2259 72.7104C35.174 72.9866 35.1505 73.2675 35.1558 73.5485L35.1495 75.2799C35.1398 77.5883 35.1288 79.8966 35.1479 82.205L35.1669 85.6676L35.2095 89.1302L35.2511 92.5929L35.2716 94.3241L35.2778 94.7554C35.2819 94.8891 35.2945 95.0225 35.3155 95.1546C35.3563 95.4184 35.4322 95.6755 35.541 95.9192C35.7601 96.4073 36.1095 96.8258 36.5509 97.1288C36.9924 97.4317 37.5089 97.6074 38.0438 97.6367L41.4967 97.6477C43.8087 97.666 46.1207 97.672 48.4328 97.7173C53.0567 97.7867 57.6808 97.8803 62.3048 97.8712Z" fill="#333333"/>
<path id="Vector_17" d="M71.3657 57.1603C71.3436 57.1635 71.3213 57.1666 71.2991 57.1699V57.1508C71.3213 57.1541 71.3436 57.1572 71.3657 57.1603ZM71.3657 61.6434C71.3436 61.6466 71.3213 61.6497 71.2991 61.653V61.6339C71.3213 61.637 71.3436 61.6403 71.3657 61.6434Z" fill="white"/>
<path id="Vector_18" d="M75.5942 58.169C76.9377 58.0482 78.2812 57.9851 79.6248 57.9422C80.9683 57.8956 82.3118 57.8832 83.6553 57.8775C84.9989 57.8825 86.3424 57.895 87.6859 57.9413C89.0294 57.984 90.3729 58.0475 91.7164 58.169C90.3729 58.2904 89.0294 58.3538 87.6859 58.3966C86.3424 58.4428 84.9989 58.4554 83.6553 58.4605C82.3118 58.4546 80.9683 58.4422 79.6248 58.3956C78.2812 58.3528 76.9377 58.2896 75.5942 58.169ZM75.5942 60.6744C76.9377 60.5538 78.2812 60.4907 79.6248 60.4478C80.9683 60.4012 82.3118 60.3888 83.6553 60.3829C84.9989 60.388 86.3424 60.4006 87.6859 60.4469C89.0294 60.4896 90.3729 60.5531 91.7164 60.6744C90.3729 60.796 89.0294 60.8594 87.6859 60.9022C86.3424 60.9484 84.9989 60.961 83.6553 60.9659C82.3118 60.9602 80.9683 60.9478 79.6248 60.9012C78.2812 60.8583 76.9377 60.7952 75.5942 60.6744ZM75.5942 63.1196C76.9377 62.9989 78.2812 62.9357 79.6248 62.8928C80.9683 62.8464 82.3118 62.8339 83.6553 62.8281C84.9989 62.8332 86.3424 62.8456 87.6859 62.8921C89.0294 62.9348 90.3729 62.9981 91.7164 63.1196C90.3729 63.241 89.0294 63.3045 87.6859 63.3472C86.3424 63.3936 84.9989 63.406 83.6553 63.4111C82.3118 63.4053 80.9683 63.3929 79.6248 63.3464C78.2812 63.3034 76.9377 63.2404 75.5942 63.1196ZM97.4513 63.1402C96.8884 63.2113 96.2672 63.2717 95.625 63.3152C94.9817 63.3565 94.317 63.3845 93.6571 63.3797L93.3959 63.3779L93.3966 63.1196C93.3986 62.2945 93.5077 61.4694 93.5501 60.6442C93.5726 60.2317 93.5699 59.8191 93.5632 59.4065C93.5534 58.9941 93.5223 58.5816 93.4971 58.169L93.4882 58.0219L93.6571 58.0092C94.286 57.9622 94.915 57.9174 95.5439 57.9026L96.4872 57.877C96.8017 57.8701 97.1162 57.8557 97.4306 57.8581L97.7388 57.8605L97.742 58.169C97.751 59.0313 97.7101 59.8988 97.6588 60.7387C97.606 61.5791 97.5299 62.3889 97.4513 63.1402ZM97.41 63.099C97.3314 62.2001 97.2553 61.3596 97.2025 60.55C97.1512 59.7395 97.1104 58.9568 97.1194 58.169L97.4306 58.4797C97.1162 58.4822 96.8017 58.4678 96.4872 58.4608L95.5439 58.4353C94.915 58.4204 94.286 58.3757 93.6571 58.3286L93.8171 58.169C93.7919 58.5816 93.7608 58.9941 93.751 59.4065C93.7443 59.8191 93.7416 60.2317 93.764 60.6442C93.8065 61.4694 93.9156 62.2945 93.9176 63.1196L93.6571 62.8594C94.2551 62.8548 94.8481 62.8828 95.4628 62.9241C96.0784 62.9676 96.7151 63.028 97.41 63.099ZM81.7712 76.928L80.2804 77.0088L78.7443 77.0806C77.7074 77.1217 76.6501 77.1528 75.5942 77.1605L75.3438 77.1624L75.3406 76.9072C75.328 75.9338 75.3284 74.9602 75.3544 73.9868L75.4638 71.0663C75.4987 70.0927 75.5117 69.1192 75.5028 68.1457C75.4992 67.1722 75.4644 66.1986 75.4342 65.2252L75.4295 65.0718L75.5942 65.0654C76.6202 65.0263 77.6463 64.9934 78.6723 64.9741L81.7505 64.9283L82.0429 64.9239L82.0478 65.2252C82.0643 66.2163 82.0633 67.2111 82.055 68.2037C82.043 69.1957 82.0249 70.1864 81.9921 71.1662C81.942 73.1311 81.8602 75.0658 81.7712 76.928ZM81.7299 76.8867C81.6409 74.8549 81.5592 72.8954 81.5091 70.9664C81.4762 69.9992 81.4582 69.0426 81.4461 68.0878C81.4379 67.1334 81.4368 66.1811 81.4533 65.2252L81.7505 65.522L78.6723 65.4761C77.6463 65.4568 76.6202 65.424 75.5942 65.3848L75.7541 65.2252C75.7239 66.1986 75.6891 67.1722 75.6856 68.1457C75.6756 69.1193 75.6886 70.0928 75.7246 71.0663L75.8339 73.9868C75.8599 74.9602 75.8603 75.9338 75.8477 76.9073L75.5941 76.6541C76.5904 76.6619 77.5852 76.693 78.6005 76.734L81.7299 76.8867ZM84.1995 66.8183C85.2947 66.6976 86.3899 66.6344 87.4851 66.5915C88.5803 66.5451 89.6755 66.5326 90.7707 66.5268C91.8659 66.5319 92.9611 66.5443 94.0563 66.5908C95.1514 66.6335 96.2467 66.697 97.3419 66.8183C96.2467 66.9397 95.1515 67.0032 94.0563 67.0459C92.9611 67.0923 91.8659 67.1047 90.7707 67.1098C89.6755 67.104 88.5803 67.0916 87.4851 67.0451C86.3899 67.0021 85.2947 66.9391 84.1995 66.8183ZM84.1995 69.2324C85.2947 69.1117 86.3899 69.0485 87.4851 69.0056C88.5803 68.9592 89.6755 68.9466 90.7707 68.9409C91.8659 68.946 92.9611 68.9584 94.0563 69.0049C95.1514 69.0476 96.2467 69.1109 97.3419 69.2324C96.2467 69.3538 95.1515 69.4173 94.0563 69.46C92.9611 69.5064 91.8659 69.5188 90.7707 69.5239C89.6755 69.5181 88.5803 69.5057 87.4851 69.4591C86.3899 69.4162 85.2947 69.353 84.1995 69.2324ZM84.1995 71.5417C85.3002 71.421 86.4009 71.3578 87.5016 71.3149C88.6024 71.2683 89.7031 71.2559 90.8038 71.2502C91.9045 71.2553 93.0051 71.2677 94.1059 71.314C95.2066 71.3567 96.3073 71.4202 97.408 71.5417C96.3073 71.6631 95.2066 71.7266 94.1059 71.7693C93.0051 71.8157 91.9045 71.8281 90.8038 71.8332C89.7031 71.8273 88.6024 71.815 87.5016 71.7684C86.4009 71.7255 85.3002 71.6623 84.1995 71.5417ZM84.1995 73.7151C85.2947 73.5943 86.3899 73.5313 87.4851 73.4884C88.5803 73.4418 89.6755 73.4295 90.7707 73.4236C91.8659 73.4287 92.9611 73.4411 94.0563 73.4875C95.1514 73.5302 96.2467 73.5937 97.3419 73.7151C96.2467 73.8366 95.1515 73.8999 94.0563 73.9427C92.9611 73.9891 91.8659 74.0015 90.7707 74.0066C89.6755 74.0009 88.5803 73.9883 87.4851 73.9419C86.3899 73.899 85.2947 73.8358 84.1995 73.7151ZM84.1995 76.0244C85.3002 75.9036 86.4009 75.8406 87.5016 75.7976C88.6024 75.7511 89.7031 75.7387 90.8038 75.7329C91.9045 75.738 93.0051 75.7504 94.1059 75.7968C95.2066 75.8395 96.3073 75.903 97.408 76.0244C96.3073 76.1457 95.2066 76.2092 94.1059 76.2519C93.0051 76.2984 91.9045 76.3108 90.8038 76.3159C89.7031 76.3102 88.6024 76.2976 87.5016 76.2512C86.4009 76.2083 85.3002 76.1451 84.1995 76.0244Z" fill="#333333"/>
<path id="Vector_19" d="M98.5566 81.4376C93.9326 81.4285 89.3085 81.5221 84.6845 81.5915C82.3725 81.6368 80.0604 81.6429 77.7485 81.6611C76.5859 81.67 75.451 81.6782 74.2657 81.6532C73.64 81.6146 73.037 81.4047 72.5227 81.0467C72.0085 80.6886 71.6029 80.1962 71.3503 79.6232C71.2242 79.3389 71.1405 79.0377 71.1018 78.7292C71.0812 78.5758 71.0704 78.4213 71.0696 78.2665L71.0737 77.8322L71.0942 76.1009L71.1359 72.6384L71.1784 69.1758L71.1974 65.7132C71.2165 63.4048 71.2055 61.0963 71.1958 58.7879L71.1895 57.0567C71.1795 56.7605 71.1991 56.464 71.248 56.1716C71.3087 55.8778 71.4073 55.593 71.5413 55.3245C71.8143 54.7844 72.2312 54.3299 72.7462 54.011C73.2634 53.6896 73.8589 53.5157 74.4681 53.5082C79.0921 53.4521 83.7162 53.4139 88.3401 53.3935L95.2762 53.3639C96.4401 53.3607 97.5706 53.349 98.762 53.3713C99.398 53.4095 100.011 53.6217 100.534 53.9846C101.058 54.3476 101.471 54.8473 101.729 55.4291C101.857 55.7184 101.944 56.0243 101.987 56.3378C102.009 56.494 102.022 56.6515 102.024 56.8093L102.025 57.244L102.022 58.9754C102.02 60.1295 102.02 61.2838 102.004 62.4379C101.98 64.7464 101.965 67.0548 101.918 69.3631L101.807 76.2883L101.788 78.0196C101.793 78.3122 101.77 78.6046 101.717 78.8924C101.653 79.1792 101.552 79.4565 101.417 79.7174C101.142 80.237 100.731 80.6718 100.226 80.9749C99.7224 81.2781 99.145 81.4381 98.5566 81.4376ZM98.5566 81.3792C99.1304 81.3733 99.6916 81.211 100.18 80.91C100.668 80.6089 101.064 80.1805 101.327 79.6709C101.454 79.4171 101.548 79.1479 101.607 78.8699C101.655 78.5891 101.674 78.3043 101.665 78.0196L101.645 76.2883L101.534 69.3631C101.488 67.0548 101.473 64.7464 101.448 62.4379C101.432 61.2838 101.432 60.1295 101.431 58.9754L101.428 57.244L101.426 56.8132C101.423 56.6825 101.412 56.5521 101.393 56.4228C101.357 56.164 101.284 55.9116 101.178 55.673C100.964 55.1938 100.622 54.7826 100.19 54.4845C99.7571 54.1864 99.2507 54.013 98.7261 53.9833C98.6009 53.9743 98.4575 53.9735 98.3108 53.9751L97.8773 53.9757L97.0103 53.9771L95.2762 53.9718L88.3401 53.9423C83.7162 53.9251 79.0921 53.8868 74.4681 53.8275C73.9131 53.8251 73.3681 53.974 72.8917 54.2581C72.4152 54.5422 72.0256 54.9509 71.7647 55.4399C71.6358 55.686 71.5393 55.9477 71.4776 56.2186C71.4258 56.4948 71.4023 56.7757 71.4076 57.0567L71.4012 58.7879C71.3915 61.0963 71.3805 63.4048 71.3997 65.7132L71.4186 69.1758L71.4612 72.6384L71.5029 76.1009L71.5234 77.8323L71.5296 78.2636C71.5336 78.3973 71.5462 78.5306 71.5673 78.6627C71.6081 78.9264 71.6839 79.1835 71.7927 79.4273C72.0118 79.9154 72.3612 80.3338 72.8027 80.6368C73.2442 80.9397 73.7607 81.1155 74.2956 81.1447L77.7484 81.1559C80.0604 81.174 82.3725 81.18 84.6845 81.2254C89.3085 81.2949 93.9326 81.3885 98.5566 81.3792ZM155.774 41.2831C157.731 41.1227 159.689 41.0386 161.646 40.9816C163.603 40.9197 165.561 40.9033 167.518 40.8956C169.475 40.9024 171.433 40.9188 173.39 40.9804C175.348 41.0372 177.305 41.1216 179.262 41.2831C177.305 41.4445 175.348 41.5289 173.39 41.5857C171.433 41.6473 169.475 41.6639 167.518 41.6705C165.561 41.6628 163.603 41.6464 161.646 41.5845C159.689 41.5275 157.731 41.4436 155.774 41.2831Z" fill="#333333"/>
<path id="Vector_20" d="M157.716 25.3438C157.876 26.8658 157.961 28.3881 158.018 29.9102C158.08 31.4324 158.096 32.9545 158.104 34.4767C158.097 35.9988 158.081 37.521 158.019 39.0431C157.962 40.5653 157.877 42.0874 157.716 43.6097C157.554 42.0874 157.47 40.5653 157.413 39.0431C157.351 37.521 157.334 35.9988 157.328 34.4767C157.335 32.9545 157.352 31.4324 157.414 29.9102C157.471 28.3881 157.555 26.8658 157.716 25.3438ZM164.052 41.3948C163.375 41.4359 162.666 41.4713 161.944 41.4995C161.223 41.5337 160.485 41.5465 159.751 41.5529L159.582 41.5544L159.579 41.381C159.559 40.1972 159.629 39.0132 159.671 37.8294C159.688 37.2374 159.698 36.6454 159.687 36.0536C159.684 35.4616 159.664 34.8696 159.645 34.2778L159.641 34.1761L159.751 34.1716C160.465 34.1423 161.18 34.1206 161.895 34.1065L164.038 34.0754L164.239 34.0725L164.241 34.2778C164.246 34.8812 164.249 35.4881 164.238 36.0915C164.232 36.6962 164.214 37.2975 164.195 37.8941C164.164 39.0906 164.107 40.2638 164.052 41.3948ZM164.025 41.3674C163.97 40.1307 163.913 38.936 163.882 37.7647C163.863 37.1774 163.845 36.5948 163.839 36.0157C163.827 35.4353 163.831 34.858 163.836 34.2778L164.038 34.48L161.895 34.4489C161.18 34.4345 160.465 34.4128 159.751 34.3838L159.857 34.2778C159.837 34.8696 159.817 35.4616 159.815 36.0536C159.803 36.6455 159.813 37.2374 159.83 37.8294C159.873 39.0133 159.943 40.1972 159.923 41.3811L159.751 41.2092C160.446 41.2157 161.137 41.2286 161.845 41.2627C162.552 41.2908 163.273 41.3264 164.025 41.3674Z" fill="#333333"/>
<path id="Vector_21" d="M168.331 41.3948C167.644 41.424 166.938 41.4607 166.215 41.4824C165.495 41.5084 164.763 41.5329 164.03 41.5363L163.876 41.537L163.874 41.381C163.865 40.5001 163.848 39.6191 163.86 38.7383C163.87 37.8572 163.906 36.9764 163.93 36.0953C163.962 35.2145 163.974 34.3336 163.968 33.4526C163.965 32.5716 163.95 31.6906 163.923 30.8097L163.92 30.7069L164.03 30.7035C165.459 30.6592 166.888 30.6318 168.317 30.6213L168.504 30.6198L168.506 30.8097C168.515 31.7015 168.526 32.5971 168.521 33.4914C168.516 34.385 168.508 35.2797 168.485 36.1649C168.463 37.0494 168.45 37.9371 168.419 38.807L168.331 41.3948ZM168.303 41.3674L168.216 38.6694C168.184 37.7773 168.172 36.9033 168.149 36.026C168.126 35.1493 168.119 34.2821 168.113 33.4137C168.108 32.5462 168.119 31.6799 168.128 30.8097L168.317 30.9981C166.888 30.9862 165.459 30.9588 164.03 30.9159L164.136 30.8097C164.11 31.6907 164.095 32.5717 164.091 33.4526C164.085 34.3335 164.098 35.2144 164.129 36.0953C164.153 36.9764 164.189 37.8572 164.199 38.7383C164.211 39.6191 164.194 40.5001 164.185 41.381L164.03 41.2257C164.725 41.2291 165.422 41.2537 166.131 41.2796L168.303 41.3674Z" fill="#333333"/>
<path id="Vector_22" d="M172.619 41.3948L170.501 41.4771C169.78 41.496 169.051 41.5296 168.317 41.5316L168.167 41.5321L168.166 41.381C168.16 40.3703 168.135 39.3595 168.145 38.3488C168.15 37.3382 168.186 36.3274 168.212 35.3167C168.245 34.3059 168.254 33.2952 168.257 32.2844L168.245 30.7684L168.211 29.2523L168.209 29.1491L168.317 29.1462C169.746 29.1076 171.176 29.0785 172.605 29.0683L172.788 29.0669L172.789 29.2524C172.796 30.2733 172.814 31.2992 172.808 32.3233C172.809 33.3481 172.794 34.3708 172.776 35.3876C172.753 36.4016 172.741 37.4198 172.709 38.4195L172.619 41.3948ZM172.591 41.3674L172.501 38.2783L172.433 35.2458C172.415 34.2411 172.4 33.2422 172.401 32.2457C172.396 31.2483 172.413 30.2527 172.42 29.2523L172.605 29.4364C171.176 29.426 169.746 29.3969 168.317 29.3584L168.424 29.2523L168.39 30.7684L168.378 32.2844C168.381 33.2952 168.39 34.3059 168.423 35.3167C168.448 36.3274 168.484 37.3382 168.49 38.3487C168.499 39.3595 168.474 40.3702 168.468 41.381L168.317 41.2304C169.013 41.2324 169.713 41.266 170.421 41.285L172.591 41.3674Z" fill="#333333"/>
<path id="Vector_23" d="M176.906 41.3948C176.219 41.424 175.513 41.4607 174.791 41.4824C174.071 41.5084 173.338 41.5329 172.605 41.5363L172.451 41.537L172.449 41.381C172.44 40.5001 172.423 39.6191 172.435 38.7383C172.445 37.8572 172.482 36.9764 172.505 36.0953C172.537 35.2145 172.55 34.3336 172.544 33.4526C172.54 32.5716 172.525 31.6906 172.498 30.8097L172.495 30.7069L172.605 30.7035C174.034 30.6592 175.463 30.6318 176.892 30.6213L177.079 30.6198L177.081 30.8097C177.09 31.7015 177.101 32.5971 177.096 33.4914C177.091 34.385 177.083 35.2797 177.06 36.1649C177.038 37.0494 177.025 37.9371 176.994 38.807L176.906 41.3948ZM176.879 41.3674L176.791 38.6694C176.759 37.7773 176.747 36.9033 176.724 36.026C176.702 35.1493 176.694 34.2821 176.688 33.4137C176.684 32.5462 176.694 31.6799 176.704 30.8097L176.892 30.9981C175.463 30.9862 174.034 30.9588 172.605 30.9159L172.711 30.8097C172.686 31.6907 172.669 32.5716 172.666 33.4526C172.66 34.3335 172.673 35.2144 172.704 36.0953C172.728 36.9764 172.765 37.8572 172.774 38.7383C172.787 39.6191 172.77 40.5001 172.76 41.381L172.605 41.2257C173.3 41.2291 173.997 41.2537 174.707 41.2796L176.879 41.3674ZM172.65 67.192C173.26 65.4623 173.912 63.75 174.589 62.048C174.926 61.1966 175.27 60.3477 175.62 59.5016L175.685 59.3427C175.715 59.2732 175.752 59.2068 175.795 59.1444C175.881 59.0155 175.997 58.9097 176.133 58.8362C176.268 58.7625 176.417 58.7189 176.57 58.7085C176.722 58.6982 176.876 58.7212 177.019 58.7761C177.162 58.8339 177.291 58.9219 177.397 59.0342C177.488 59.1404 177.561 59.2599 177.615 59.3884L177.909 60.0092C178.682 61.6703 179.416 63.3503 180.207 65.0022L180.507 65.6202C180.549 65.7201 180.601 65.8152 180.663 65.9042C180.724 65.9856 180.804 66.0503 180.897 66.0924C180.989 66.1364 181.089 66.1596 181.191 66.1604C181.292 66.1612 181.393 66.1397 181.485 66.0972C181.578 66.0563 181.658 65.9933 181.721 65.9138C181.784 65.8267 181.837 65.7328 181.879 65.6339C182.289 64.8151 182.677 63.9848 183.077 63.1608C183.861 61.5049 184.662 59.8572 185.478 58.2176L186.091 56.9881L186.397 56.3733L186.551 56.0659C186.58 56.0095 186.592 55.9752 186.637 55.9005C186.675 55.8311 186.721 55.7663 186.775 55.7073C186.883 55.5884 187.017 55.4953 187.166 55.4347C187.315 55.3741 187.476 55.3477 187.637 55.3573C187.798 55.3669 187.955 55.4123 188.096 55.4903C188.237 55.5682 188.359 55.6766 188.452 55.8077C188.495 55.8705 188.533 55.9367 188.566 56.0057L188.638 56.1614L188.782 56.473L189.07 57.0969C190.579 60.4346 192.053 63.7882 193.421 67.1911L193.367 67.2155C191.663 63.9676 190.066 60.6705 188.504 57.3575L188.215 56.7342L188.071 56.4223L188 56.2664C187.984 56.2317 187.965 56.1984 187.943 56.1667C187.903 56.1118 187.85 56.0664 187.79 56.0337C187.73 56.0009 187.664 55.9815 187.595 55.9768C187.527 55.9721 187.458 55.9822 187.394 56.0065C187.33 56.0307 187.272 56.0685 187.224 56.1173C187.168 56.1842 187.121 56.259 187.086 56.3393L186.926 56.6433L186.607 57.2513L185.968 58.4673C185.118 60.0898 184.249 61.7028 183.362 63.3062C182.927 64.1123 182.48 64.9125 182.056 65.724C181.963 65.959 181.787 66.1516 181.561 66.2647C181.444 66.3173 181.317 66.3434 181.189 66.3412C181.061 66.3391 180.935 66.3087 180.819 66.2522C180.599 66.132 180.43 65.9356 180.345 65.6998L180.037 65.0858C179.207 63.4528 178.321 61.8479 177.473 60.2238L177.159 59.6127C177.122 59.5306 177.075 59.4541 177.017 59.3853C176.964 59.3317 176.901 59.2893 176.831 59.2607C176.76 59.2341 176.683 59.2233 176.606 59.2291C176.53 59.2348 176.456 59.257 176.389 59.2941C176.323 59.3297 176.266 59.3806 176.224 59.4426C176.201 59.4742 176.182 59.5078 176.165 59.5429L176.098 59.7008C175.739 60.5436 175.376 61.3841 175.007 62.2223C174.27 63.8992 173.508 65.5656 172.704 67.2146L172.65 67.192Z" fill="#333333"/>
<path id="Vector_24" d="M168.29 67.192C168.901 65.4623 169.553 63.75 170.23 62.048C170.567 61.1966 170.91 60.3478 171.261 59.5016L171.326 59.3427C171.356 59.2732 171.392 59.2068 171.435 59.1444C171.521 59.0155 171.637 58.9097 171.774 58.8362C171.908 58.7625 172.057 58.7189 172.21 58.7085C172.363 58.6982 172.516 58.7212 172.659 58.7761C172.803 58.8339 172.932 58.9219 173.038 59.0342C173.128 59.1404 173.202 59.2598 173.256 59.3884L173.549 60.0092C174.322 61.6703 175.056 63.3503 175.847 65.0022L176.147 65.6202C176.189 65.7201 176.242 65.8152 176.303 65.9042C176.364 65.9856 176.445 66.0503 176.538 66.0924C176.629 66.1364 176.729 66.1596 176.831 66.1604C176.933 66.1612 177.033 66.1397 177.126 66.0972C177.218 66.0563 177.299 65.9933 177.361 65.9138C177.424 65.8267 177.477 65.7328 177.519 65.6339C177.929 64.8151 178.317 63.9848 178.717 63.1608C179.502 61.505 180.302 59.8572 181.119 58.2176L181.731 56.9881L182.038 56.3733L182.191 56.0659C182.221 56.0095 182.232 55.9752 182.277 55.9005C182.316 55.8311 182.362 55.7663 182.415 55.7073C182.523 55.5884 182.657 55.4953 182.807 55.4347C182.956 55.3741 183.117 55.3477 183.278 55.3573C183.439 55.3669 183.595 55.4123 183.736 55.4903C183.877 55.5682 183.999 55.6766 184.093 55.8077C184.136 55.8705 184.174 55.9367 184.206 56.0057L184.278 56.1614L184.423 56.473L184.71 57.0969C186.219 60.4346 187.694 63.7882 189.061 67.1911L189.008 67.2155C187.304 63.9677 185.707 60.6705 184.144 57.3575L183.855 56.7342L183.712 56.4223L183.64 56.2664C183.624 56.2317 183.605 56.1984 183.584 56.1667C183.543 56.1118 183.491 56.0664 183.431 56.0337C183.37 56.0009 183.304 55.9815 183.236 55.9768C183.167 55.9721 183.099 55.9822 183.035 56.0065C182.971 56.0307 182.913 56.0685 182.865 56.1173C182.808 56.1842 182.762 56.259 182.727 56.3393L182.567 56.6433L182.247 57.2513L181.608 58.4673C180.758 60.0898 179.89 61.7028 179.002 63.3062C178.567 64.1123 178.12 64.9125 177.696 65.724C177.604 65.959 177.428 66.1516 177.202 66.2647C177.085 66.3173 176.958 66.3434 176.829 66.3412C176.701 66.3391 176.575 66.3087 176.46 66.2522C176.239 66.132 176.07 65.9356 175.985 65.6998L175.677 65.0858C174.848 63.4528 173.961 61.8479 173.113 60.2238L172.799 59.6127C172.763 59.5307 172.715 59.4541 172.657 59.3853C172.604 59.3317 172.541 59.2893 172.472 59.2607C172.4 59.2341 172.323 59.2233 172.247 59.2291C172.17 59.2349 172.096 59.257 172.029 59.2941C171.963 59.3298 171.906 59.3807 171.864 59.4426C171.841 59.4742 171.822 59.5078 171.805 59.5429L171.738 59.7008C171.38 60.5436 171.016 61.3841 170.647 62.2223C169.91 63.8992 169.148 65.5656 168.344 67.2146L168.29 67.192Z" fill="#333333"/>
<path id="Vector_25" d="M181.89 65.8302C181.824 65.958 181.725 66.0651 181.602 66.1395C181.479 66.214 181.338 66.2529 181.194 66.2518C181.05 66.2508 180.91 66.2098 180.788 66.1335C180.666 66.0572 180.568 65.9487 180.504 65.8199L179.047 62.8664L177.53 65.8302C177.465 65.958 177.365 66.0651 177.242 66.1395C177.119 66.214 176.978 66.2529 176.834 66.2518C176.691 66.2508 176.55 66.2098 176.428 66.1335C176.306 66.0573 176.208 65.9487 176.145 65.8199L174.582 62.6519L172.677 67.2034H189.034L185.312 59.1444L181.89 65.8302ZM50.7442 84.4836L51.9318 92.8316C51.9128 92.8346 51.8938 92.8346 51.8779 92.8379C51.7572 92.8506 51.6365 92.8601 51.5158 92.8664H51.4778C49.6976 92.9564 47.9335 92.4911 46.4302 91.535C44.9269 90.5788 43.7589 89.1793 43.0881 87.5304C43.085 87.5146 43.0787 87.5019 43.0755 87.4893C43.031 87.3815 42.9866 87.2705 42.9484 87.1595C42.9294 87.1087 42.9135 87.0548 42.8977 87.0042C42.8722 86.9281 42.8469 86.8488 42.8214 86.7695C42.7802 86.6364 42.7452 86.5 42.7103 86.3638C42.6722 86.2116 42.6404 86.0562 42.6087 85.904C42.6024 85.8692 42.5992 85.8343 42.5928 85.7994C42.5706 85.6758 42.5515 85.5552 42.5357 85.4317C42.5293 85.3999 42.5261 85.3682 42.523 85.3365C42.5071 85.2064 42.4943 85.0796 42.4848 84.9498C42.4822 84.9266 42.4811 84.9033 42.4816 84.8799C42.4721 84.7405 42.4657 84.5977 42.4626 84.4582V84.4234C42.4483 83.474 42.5932 82.5288 42.8913 81.6271C42.8976 81.6111 42.904 81.5921 42.9103 81.5763C42.9516 81.4495 42.996 81.3259 43.0437 81.2054L43.0818 81.1102C43.1262 81.0024 43.1739 80.8947 43.2215 80.7868C43.2374 80.7489 43.2532 80.7139 43.2691 80.679C43.3232 80.568 43.3771 80.4603 43.4311 80.3525C43.447 80.3239 43.4629 80.2954 43.4756 80.2669C43.5486 80.1305 43.6248 79.9974 43.7042 79.8674C43.7169 79.8483 43.7296 79.8293 43.7423 79.8071C43.809 79.6994 43.8789 79.5915 43.9487 79.487C43.9773 79.4457 44.0059 79.4077 44.0345 79.3697C44.0471 79.3506 44.0598 79.3316 44.0725 79.3158L50.7442 84.4836ZM50.9919 83.8655L44.4631 78.8116C45.8714 77.1281 47.8732 76.0488 50.0554 75.7963C52.2376 75.5438 54.4337 76.1374 56.1902 77.4547L50.9919 83.8655ZM53.1005 92.6286C52.9226 92.673 52.7416 92.7111 52.5638 92.7428L51.3793 84.4013L56.6887 77.8541C56.7744 77.9302 56.857 78.0063 56.9396 78.0855C56.9586 78.1015 56.9745 78.1173 56.9904 78.1332C57.1492 78.2854 57.3047 78.4439 57.4509 78.6088C57.4509 78.6092 57.4509 78.6096 57.4511 78.61C57.4513 78.6104 57.4515 78.6107 57.4518 78.611C57.4521 78.6113 57.4524 78.6115 57.4528 78.6117C57.4532 78.6118 57.4536 78.6119 57.454 78.6119C57.7595 78.9546 58.0366 79.3215 58.2828 79.7088C58.286 79.7121 58.286 79.7152 58.2891 79.7184C58.5337 80.1024 58.7471 80.5053 58.9274 80.9232C58.9309 80.929 58.9331 80.9355 58.9338 80.9422C59.0195 81.1388 59.0925 81.3385 59.1624 81.5415C59.1751 81.5763 59.1878 81.6112 59.1974 81.6461C59.264 81.8458 59.3243 82.0486 59.3751 82.2548C59.6455 83.3474 59.6976 84.4823 59.5286 85.595C59.3595 86.7076 58.9726 87.7761 58.3899 88.7394C57.8073 89.7027 57.0402 90.542 56.1327 91.2093C55.2251 91.8766 54.1947 92.3589 53.1005 92.6286Z" fill="#333333"/>
<path id="Vector_26" d="M44.0662 79.3094L44.2218 79.1097C44.171 79.1763 44.1201 79.2459 44.0725 79.3158L44.0662 79.3094ZM44.4567 78.8052L44.4631 78.8116C44.3964 78.8908 44.3298 78.9733 44.2631 79.0557L44.4567 78.8052ZM51.9763 92.8283C52.0462 92.8188 52.116 92.8125 52.1859 92.803L51.9318 92.8379V92.8315C51.9445 92.8315 51.9604 92.8283 51.9763 92.8283ZM52.3287 92.7808C52.4081 92.7713 52.4843 92.7586 52.5637 92.7428V92.749L52.3287 92.7808ZM56.1965 77.4483L56.4441 77.6513C56.3616 77.5847 56.2759 77.518 56.1902 77.4547L56.1965 77.4483ZM56.6918 77.851L56.6887 77.8541C56.6124 77.7875 56.5331 77.7209 56.4537 77.6576L56.6918 77.851Z" fill="white"/>
</g>
</svg>
