<svg width="236" height="186" viewBox="0 0 236 186" fill="none" xmlns="http://www.w3.org/2000/svg">
<g id="male-employee-performance-board">
<path id="Vector" d="M114.098 43.1409C114.098 43.1409 113.685 43.8537 112.18 44.7188C112.325 45.8853 112.403 47.0518 112.457 48.2182C112.49 48.7982 112.503 49.3814 112.519 49.9647C112.528 50.253 112.532 50.5414 112.535 50.8265C112.777 50.5835 113.026 50.3438 113.271 50.104C113.74 49.6698 114.211 49.2389 114.709 48.8338C115.204 48.4213 115.724 48.0404 116.266 47.6933C116.541 47.5192 116.829 47.3675 117.128 47.2397C117.282 47.1767 117.443 47.13 117.606 47.1004C117.741 47.0733 117.881 47.0916 118.004 47.1522C116.867 46.1024 115.571 44.7901 114.098 43.1409ZM134.61 52.3721C134.255 52.0773 133.906 51.7921 133.564 51.5167C133.851 52.5859 134.075 53.6711 134.236 54.7666C134.424 56.0204 134.542 57.284 134.588 58.5511C134.601 59.1862 134.607 59.8213 134.588 60.4596C134.581 60.7771 134.559 61.0947 134.533 61.4122C134.51 61.7297 134.494 62.0473 134.446 62.3648C134.319 63.6243 134.021 64.8605 133.56 66.0392C134.917 65.4527 137.143 64.6977 139.281 64.9051C142.699 65.2324 145.092 70.6985 145.092 70.6985C146.071 65.6763 141.526 58.023 134.61 52.3721ZM137.766 63.3271C137.146 63.4375 136.544 63.6327 135.977 63.9071C135.829 63.9741 135.685 64.051 135.547 64.1372L135.111 64.3705C134.833 64.5487 134.555 64.7366 134.248 64.9051C134.447 64.6226 134.66 64.3511 134.888 64.0918C135.138 63.8464 135.406 63.62 135.689 63.4146C135.979 63.2076 136.292 63.0357 136.623 62.9027C136.955 62.7613 137.303 62.6602 137.66 62.6014C138.38 62.4965 139.116 62.5848 139.792 62.8573C140.452 63.1104 141.027 63.545 141.452 64.1113C140.344 63.4476 139.047 63.1718 137.766 63.3271ZM135.925 75.9833C135.925 75.9833 132.443 76.9683 125.934 69.6163C125.934 69.6163 121.87 71.4989 120.233 72.8014C118.246 74.3826 112.18 74.5867 104.178 73.4138C104.178 73.4138 102.008 68.1485 110.322 64.2117C110.793 64.0019 111.318 63.9475 111.821 64.0562C113.617 64.4061 118.133 65.2615 119.751 65.3652C121.79 65.4981 126.393 64.377 127.707 64.5066C129.022 64.6394 132.246 66.6839 132.246 66.6839C132.246 66.6839 132.714 66.4118 133.476 66.0748L133.48 66.0489L133.483 66.0294L133.486 66.0262C133.699 64.8001 133.824 63.5603 133.861 62.3162C133.874 62.0051 133.88 61.6941 133.887 61.383C133.893 61.072 133.896 60.7609 133.89 60.4466C133.9 59.8245 133.877 59.1991 133.858 58.577C133.829 57.3263 133.748 56.0789 133.673 54.8249L133.454 51.4292C130.98 49.4236 128.99 47.8618 127.484 46.7018C127.669 47.0453 127.84 47.392 127.998 47.7419C128.163 48.0886 128.311 48.445 128.463 48.795C128.605 49.1514 128.76 49.5046 128.893 49.8642C129.025 50.2239 129.171 50.5771 129.293 50.94L129.746 52.2814L128.712 51.3094C127.914 50.5576 127.145 49.7832 126.396 48.9829C125.64 48.1842 124.929 47.3437 124.267 46.4653C125.157 47.1096 126.012 47.8007 126.829 48.5358C127.3 48.9602 127.765 49.3944 128.221 49.8318C128.137 49.5435 128.063 49.2518 127.982 48.9602C127.888 48.5876 127.791 48.215 127.71 47.8391C127.623 47.4633 127.549 47.0841 127.484 46.7018C125.136 44.8938 123.96 44.0643 123.96 44.0643L124.861 51.1862C124.861 51.1862 122.975 51.7047 118.062 47.204C117.994 47.1728 117.92 47.1574 117.846 47.1591C117.771 47.1608 117.698 47.1795 117.632 47.2138C117.488 47.2681 117.352 47.3399 117.225 47.4276C116.966 47.5997 116.719 47.7891 116.485 47.9946C116.007 48.3964 115.552 48.8339 115.1 49.2713C114.651 49.7119 114.202 50.1526 113.762 50.6062C113.313 51.0501 112.881 51.5135 112.444 51.9639L111.805 52.6249L111.818 51.7144C111.828 51.1311 111.821 50.5479 111.844 49.9647C111.86 49.3815 111.873 48.7982 111.905 48.2182C111.96 47.0518 112.037 45.8853 112.18 44.7188C111.203 45.2668 110.171 45.71 109.101 46.0408C105.025 47.3596 98.1863 50.5252 97.7922 56.7269C97.5209 60.9715 98.1863 66.7099 99.992 70.4393C100.374 69.1545 100.905 67.919 101.575 66.7585C102.278 65.4864 103.182 64.3373 104.253 63.3563C104.811 62.8691 105.435 62.4633 106.107 62.151C106.793 61.839 107.537 61.6787 108.29 61.6811C108.518 61.6847 108.745 61.7064 108.969 61.7459C108.956 61.0752 108.94 60.411 108.885 59.75C108.833 59.0469 108.765 58.347 108.675 57.6504C108.581 56.9537 108.484 56.2603 108.365 55.5702C108.239 54.8865 108.122 54.1963 107.964 53.5321C107.726 52.8252 107.387 52.1563 106.96 51.5459C106.549 50.9392 105.982 50.4555 105.319 50.1461C104.633 49.8574 103.882 49.7589 103.145 49.861C102.374 49.9586 101.624 50.1818 100.926 50.522C101.564 50.0343 102.297 49.6845 103.077 49.4948C103.478 49.3995 103.889 49.356 104.301 49.3652C104.722 49.3777 105.139 49.4576 105.535 49.6018C106.33 49.9067 107.02 50.4355 107.522 51.1247C108.011 51.789 108.393 52.5258 108.655 53.3085L108.662 53.3312L108.665 53.3442C108.814 54.057 108.946 54.7536 109.033 55.4665C109.124 56.1761 109.192 56.8889 109.224 57.6018C109.262 58.3162 109.263 59.0322 109.227 59.7468C109.193 60.4187 109.114 61.0876 108.991 61.7492C109.489 61.8396 109.972 61.9954 110.429 62.2125C111.072 62.5336 111.663 62.9522 112.18 63.4535C111.586 63.0819 110.954 62.7776 110.293 62.5463C109.654 62.3237 108.979 62.2247 108.303 62.2546C106.964 62.3987 105.708 62.9805 104.731 63.9104C104.214 64.3617 103.738 64.8572 103.306 65.3911C102.857 65.9193 102.453 66.4863 102.056 67.0598C101.317 68.1682 100.637 69.3158 100.021 70.4977C100.851 72.1858 101.917 73.4527 103.242 73.9679C103.242 73.9679 105.813 81.1287 107.26 81.1287C108.707 81.1287 131.193 82.7099 133.69 81.1287C136.19 79.5442 135.925 75.9833 135.925 75.9833ZM127.052 62.4426C127.194 62.4474 127.328 62.5074 127.427 62.6099C127.526 62.7123 127.581 62.8493 127.581 62.9918C127.581 63.1343 127.526 63.2713 127.427 63.3737C127.328 63.4762 127.194 63.5362 127.052 63.541C126.91 63.5362 126.775 63.4762 126.676 63.3737C126.577 63.2713 126.522 63.1343 126.522 62.9918C126.522 62.8493 126.577 62.7123 126.676 62.6099C126.775 62.5074 126.91 62.4474 127.052 62.4426ZM125.801 57.2972C125.944 57.3017 126.079 57.3616 126.178 57.4641C126.276 57.5666 126.332 57.7037 126.332 57.8464C126.332 57.9891 126.276 58.1262 126.178 58.2287C126.079 58.3312 125.944 58.3911 125.801 58.3956C125.659 58.3911 125.524 58.3312 125.425 58.2287C125.326 58.1262 125.271 57.9891 125.271 57.8464C125.271 57.7037 125.326 57.5666 125.425 57.4641C125.524 57.3616 125.659 57.3017 125.801 57.2972ZM124.816 52.3527C124.958 52.3575 125.093 52.4175 125.192 52.52C125.29 52.6225 125.345 52.7594 125.345 52.9019C125.345 53.0444 125.29 53.1813 125.192 53.2838C125.093 53.3863 124.958 53.4463 124.816 53.4511C124.674 53.4463 124.54 53.3863 124.441 53.2838C124.342 53.1813 124.287 53.0444 124.287 52.9019C124.287 52.7594 124.342 52.6225 124.441 52.52C124.54 52.4175 124.674 52.3575 124.816 52.3527ZM127.052 75.6754C126.909 75.6707 126.775 75.6107 126.676 75.5083C126.577 75.4058 126.522 75.2688 126.522 75.1262C126.522 74.9837 126.577 74.8467 126.676 74.7442C126.775 74.6418 126.909 74.5818 127.052 74.577C127.194 74.5818 127.328 74.6418 127.427 74.7442C127.526 74.8467 127.581 74.9837 127.581 75.1262C127.581 75.2688 127.526 75.4058 127.427 75.5082C127.328 75.6107 127.194 75.6707 127.052 75.6754Z" fill="#333333"/>
<path id="Vector_2" d="M135.926 75.9832C135.421 76.0653 134.905 76.0427 134.408 75.9168C133.909 75.804 133.422 75.6428 132.954 75.4357C132.021 75.0142 131.135 74.4933 130.313 73.8821C129.487 73.2775 128.7 72.6218 127.955 71.9188C127.208 71.2202 126.494 70.4859 125.804 69.73L126.017 69.7658L121.049 72.6063C120.226 73.1174 119.351 73.5393 118.439 73.8652C117.514 74.1714 116.558 74.3711 115.588 74.4602C113.67 74.6069 111.743 74.5834 109.829 74.39C107.922 74.2264 106.026 73.9913 104.134 73.7369L103.944 73.7113L103.882 73.5477C103.62 72.815 103.51 72.0363 103.558 71.2594C103.606 70.4824 103.812 69.7235 104.163 69.0291C104.86 67.6818 105.875 66.5254 107.118 65.6601C107.716 65.2192 108.345 64.8225 108.999 64.4733C109.322 64.2917 109.654 64.1312 109.986 63.9699C110.164 63.8748 110.352 63.7982 110.545 63.7414C110.747 63.6844 110.954 63.6513 111.163 63.6428C111.369 63.6343 111.575 63.6465 111.778 63.6793L112.324 63.7842L113.391 63.9899L115.526 64.3857C116.946 64.6323 118.387 64.9013 119.789 65.0232C120.494 65.0388 121.198 64.9977 121.896 64.9005C122.609 64.8143 123.323 64.7056 124.039 64.5949C124.755 64.4848 125.472 64.3682 126.2 64.2761C126.567 64.2343 126.929 64.187 127.316 64.1786C127.519 64.1694 127.723 64.1818 127.924 64.2155C128.118 64.2538 128.308 64.3066 128.493 64.3733C129.189 64.6344 129.864 64.948 130.512 65.3115C131.158 65.6625 131.786 66.0303 132.409 66.4241L132.091 66.4178C132.311 66.2953 132.521 66.1901 132.738 66.0846C132.955 65.9806 133.173 65.8812 133.393 65.7862L133.452 65.7606L133.512 65.7611L133.516 65.7611L133.398 65.7858C134.526 65.2947 135.709 64.9438 136.922 64.7411C137.534 64.6428 138.153 64.6024 138.772 64.6206C139.088 64.6276 139.403 64.6621 139.713 64.7238C140.025 64.7942 140.328 64.8981 140.618 65.0338C141.718 65.6207 142.667 66.4563 143.39 67.4745C144.127 68.4526 144.753 69.5101 145.256 70.6273L145.271 70.6611L145.271 70.6977C145.301 71.7911 145.073 72.8762 144.605 73.8644C144.355 74.3534 144.018 74.7919 143.609 75.1575C143.199 75.5157 142.731 75.8013 142.225 76.002C141.217 76.377 140.143 76.5415 139.069 76.4854C138.005 76.4452 136.95 76.2766 135.926 75.9832ZM135.926 75.9832C136.955 76.2397 138.011 76.371 139.071 76.3743C140.124 76.4015 141.171 76.2136 142.15 75.8221C142.628 75.6183 143.068 75.3343 143.451 74.9825C143.827 74.6281 144.134 74.2067 144.357 73.7398C144.778 72.7852 144.968 71.7443 144.911 70.7021L144.926 70.7724C144.416 69.6937 143.79 68.6744 143.059 67.7326C142.365 66.7835 141.461 66.0084 140.418 65.4679C140.16 65.3519 139.889 65.264 139.612 65.2057C139.33 65.155 139.044 65.1287 138.758 65.1272C138.171 65.1195 137.586 65.1672 137.008 65.2696C135.845 65.4837 134.711 65.8397 133.634 66.3296L133.579 66.3537L133.516 66.3542L133.512 66.3543L133.631 66.3292C133.42 66.4245 133.211 66.5239 133.003 66.6274C132.798 66.7306 132.589 66.8404 132.398 66.9506L132.239 67.0426L132.081 66.9444C131.473 66.5686 130.847 66.2036 130.215 65.8656C129.596 65.522 128.951 65.2257 128.287 64.9792C128.13 64.9236 127.97 64.8798 127.808 64.8479C127.651 64.8236 127.491 64.8157 127.333 64.8244C126.994 64.8329 126.635 64.8803 126.283 64.9227C125.572 65.0162 124.858 65.136 124.141 65.2502C123.424 65.3648 122.705 65.4784 121.978 65.5701C121.239 65.6769 120.493 65.723 119.747 65.7081C118.258 65.5859 116.841 65.3247 115.403 65.0841L113.258 64.6981L112.188 64.4975L111.665 64.3995C111.51 64.3753 111.353 64.3668 111.196 64.374C111.042 64.3808 110.89 64.4046 110.741 64.4452C110.587 64.4904 110.437 64.5516 110.296 64.6279C109.974 64.782 109.652 64.9353 109.341 65.108C108.712 65.4378 108.109 65.8132 107.535 66.2311C106.378 67.0228 105.43 68.0849 104.774 69.3259C104.471 69.9423 104.284 70.6096 104.223 71.2942C104.194 71.6344 104.201 71.9766 104.244 72.3153C104.281 72.6446 104.359 72.9679 104.476 73.2778L104.224 73.0888C106.108 73.3521 107.994 73.5958 109.883 73.7677C111.761 73.9731 113.652 74.0221 115.538 73.9142C116.469 73.8436 117.389 73.6669 118.28 73.3875C119.169 73.0841 120.024 72.688 120.83 72.2056L125.848 69.465L125.972 69.3975L126.061 69.5008C126.726 70.2682 127.415 71.0146 128.139 71.7263C128.858 72.4418 129.622 73.1117 130.424 73.7319C131.223 74.3571 132.086 74.8958 132.998 75.3391C133.454 75.5602 133.93 75.7364 134.421 75.8652C134.909 76.0073 135.422 76.0475 135.926 75.9832Z" fill="#333333"/>
<path id="Vector_3" d="M125.933 69.6153C126.471 69.3464 127.026 69.1124 127.593 68.9145C128.15 68.7074 128.712 68.5282 129.267 68.3475C129.545 68.2593 129.82 68.1682 130.086 68.073C130.341 67.9872 130.585 67.869 130.811 67.7212C131.29 67.4119 131.755 67.0511 132.245 66.6842C131.984 67.2463 131.616 67.7517 131.162 68.1717C130.926 68.4002 130.652 68.5842 130.351 68.7149C130.071 68.8415 129.784 68.9516 129.492 69.0446C128.918 69.2285 128.332 69.3692 127.737 69.4656C127.142 69.5732 126.538 69.6234 125.933 69.6153Z" fill="#333333"/>
<path id="Vector_4" d="M118.075 47.2105C118.071 47.2071 118.067 47.2049 118.062 47.2041C118.046 47.1879 118.026 47.1684 118.007 47.1522C118.032 47.1681 118.055 47.1877 118.075 47.2105ZM100.021 70.4977C99.9856 70.5657 99.9501 70.6337 99.9146 70.7018C99.9371 70.6143 99.9629 70.5268 99.992 70.4393C100.002 70.4588 100.011 70.4782 100.021 70.4977ZM133.515 66.0586C133.528 66.0521 133.541 66.0457 133.557 66.0392L133.548 66.0683L133.538 66.0943H133.531L133.428 66.334L133.476 66.0748C133.486 66.0683 133.499 66.0651 133.512 66.0586L133.515 66.0586ZM133.454 51.4292L133.428 51.0534C133.473 51.2089 133.518 51.3612 133.56 51.5167C133.541 51.4973 133.522 51.4843 133.502 51.4681L133.454 51.4292Z" fill="white"/>
<path id="Vector_5" d="M107.298 81.132L105.467 99.4043L103.604 117.672L101.763 135.942L100.861 145.076L100.449 149.646L100.265 151.929L100.191 153.069C100.182 153.257 100.172 153.448 100.168 153.633C100.168 153.724 100.162 153.823 100.166 153.908L100.17 154.039C100.173 154.062 100.175 154.085 100.174 154.109L99.9463 153.925C101.451 154.101 102.976 154.216 104.495 154.256C105.254 154.271 106.014 154.277 106.77 154.236C107.523 154.205 108.273 154.12 109.014 153.984L108.843 154.153L115.603 124.804C116.728 119.912 117.881 115.026 119.062 110.147C119.655 107.707 120.256 105.27 120.917 102.845C121.083 102.239 121.253 101.633 121.437 101.03C121.53 100.729 121.625 100.428 121.73 100.127C121.782 99.9768 121.837 99.8269 121.899 99.676C121.93 99.6005 121.962 99.5253 122.002 99.4475C122.045 99.3497 122.106 99.2608 122.181 99.1856C122.204 99.1643 122.23 99.1476 122.259 99.1365C122.304 99.1144 122.355 99.108 122.404 99.1183C122.451 99.1248 122.495 99.1459 122.53 99.1786C122.549 99.195 122.566 99.2134 122.581 99.2333C122.612 99.2776 122.64 99.3246 122.663 99.3737C122.699 99.4552 122.73 99.5336 122.758 99.6107C122.813 99.7652 122.86 99.9176 122.905 100.07C122.996 100.376 123.077 100.68 123.155 100.986C123.311 101.597 123.457 102.208 123.598 102.821C124.711 107.722 125.688 112.646 126.68 117.568C127.67 122.489 128.626 127.417 129.585 132.344C130.549 137.269 131.506 142.198 132.526 147.107C132.783 148.334 133.043 149.561 133.329 150.774C133.401 151.077 133.474 151.379 133.554 151.674C133.593 151.82 133.635 151.969 133.68 152.098C133.691 152.13 133.702 152.161 133.712 152.182L133.721 152.202C133.723 152.207 133.723 152.205 133.709 152.184C133.669 152.148 133.749 152.206 133.606 152.097C133.424 152.026 133.407 152.065 133.444 152.055L133.472 152.054L133.529 152.054L133.643 152.052C134.261 152.04 134.883 152.013 135.502 151.975C136.738 151.908 137.971 151.778 139.194 151.586C139.796 151.492 140.392 151.361 140.978 151.192C141.26 151.11 141.536 151.008 141.803 150.885C142.037 150.785 142.248 150.637 142.423 150.451L142.343 150.702C142.06 144.827 141.7 138.951 141.314 133.08C140.933 127.208 140.491 121.341 139.987 115.478C139.463 109.619 138.904 103.76 138.124 97.9303C137.728 95.0168 137.298 92.1066 136.728 89.2235C136.44 87.783 136.116 86.3484 135.699 84.9415C135.494 84.2377 135.245 83.5474 134.954 82.8748C134.809 82.5398 134.636 82.2177 134.437 81.9117C134.251 81.6012 133.989 81.3431 133.677 81.1612L133.708 81.0947C134.037 81.2768 134.314 81.5397 134.514 81.8589C134.722 82.1659 134.904 82.4897 135.057 82.827C135.363 83.4994 135.626 84.1903 135.846 84.8956C136.292 86.3023 136.642 87.7358 136.958 89.1751C137.585 92.0554 138.07 94.9633 138.497 97.8777C139.343 103.708 140.005 109.563 140.564 115.425C141.124 121.288 141.613 127.156 142.03 133.031C142.447 138.905 142.804 144.784 143.1 150.666L143.107 150.811L143.02 150.917C142.775 151.198 142.471 151.422 142.129 151.572C141.828 151.712 141.516 151.829 141.197 151.922C140.58 152.101 139.953 152.241 139.319 152.342C138.07 152.54 136.812 152.675 135.549 152.746C134.919 152.785 134.291 152.813 133.658 152.827L133.538 152.829L133.477 152.83L133.446 152.83C133.464 152.822 133.428 152.859 133.229 152.775C133.066 152.66 133.14 152.696 133.087 152.646C133.071 152.624 133.057 152.602 133.045 152.578C133.029 152.55 133.015 152.521 133.003 152.492C132.981 152.441 132.966 152.398 132.951 152.356C132.892 152.188 132.85 152.035 132.807 151.879C132.722 151.568 132.647 151.261 132.574 150.953C132.288 149.723 132.034 148.493 131.781 147.262C130.78 142.339 129.845 137.407 128.903 132.476L126.093 117.683C125.148 112.755 124.217 107.821 123.153 102.922C123.018 102.311 122.879 101.7 122.73 101.094C122.655 100.791 122.577 100.489 122.493 100.191C122.45 100.043 122.406 99.895 122.357 99.7538C122.333 99.6827 122.306 99.6152 122.279 99.5534C122.266 99.526 122.251 99.4984 122.245 99.4894C122.241 99.4831 122.251 99.4994 122.257 99.5011C122.28 99.5171 122.306 99.5287 122.333 99.5352C122.363 99.5389 122.393 99.5359 122.422 99.5263C122.445 99.5157 122.456 99.5034 122.452 99.5091C122.422 99.5496 122.397 99.5927 122.375 99.6379C122.343 99.6998 122.312 99.7684 122.283 99.8377C122.224 99.9761 122.17 100.121 122.118 100.266C122.014 100.557 121.917 100.853 121.823 101.15C121.635 101.746 121.459 102.347 121.287 102.949C120.605 105.36 119.98 107.79 119.362 110.221C118.126 115.085 116.98 119.972 115.828 124.856C113.55 134.632 111.366 144.43 109.276 154.249L109.246 154.389L109.105 154.418C108.343 154.569 107.572 154.666 106.796 154.707C106.025 154.758 105.255 154.761 104.485 154.755C102.945 154.734 101.415 154.637 99.8801 154.477L99.6891 154.457L99.6521 154.293C99.6352 154.223 99.6231 154.151 99.6159 154.08L99.6094 153.923C99.6038 153.817 99.6088 153.725 99.608 153.624C99.6096 153.428 99.6176 153.236 99.6244 153.042L99.6852 151.89C99.7326 151.124 99.7868 150.359 99.8479 149.596L100.242 145.019L101.11 135.876C101.731 129.785 102.372 123.697 103.035 117.612C103.681 111.525 104.383 105.444 105.072 99.3614C105.755 93.2783 106.503 87.2024 107.225 81.1239L107.298 81.132Z" fill="#333333"/>
<path id="Vector_6" d="M106.923 84.2021C108.13 84.3117 109.33 84.4427 110.536 84.5335C111.739 84.6442 112.942 84.7427 114.145 84.8384C115.348 84.9303 116.55 85.0269 117.753 85.0974L119.558 85.2116L121.363 85.3002C121.965 85.3337 122.567 85.3482 123.169 85.3732L124.072 85.406L124.974 85.42C125.576 85.4292 126.179 85.4564 126.78 85.4509C127.382 85.4449 127.984 85.4453 128.587 85.4482C130.994 85.4026 133.401 85.306 135.809 85.0387C133.44 85.5691 131.03 85.8972 128.606 86.0198C126.181 86.1583 123.753 86.1265 121.33 86.0317C118.908 85.9134 116.493 85.7046 114.087 85.4051C111.683 85.1093 109.29 84.7209 106.923 84.2021ZM120.718 97.7083C121.201 98.2705 121.807 98.7121 122.49 98.998C123.156 99.2852 123.855 99.4857 124.571 99.5945C125.3 99.7121 126.035 99.7822 126.772 99.8042L129.046 99.8579C128.319 100.126 127.561 100.3 126.791 100.376C126.011 100.46 125.224 100.44 124.45 100.317C124.06 100.247 123.675 100.148 123.299 100.02C122.922 99.8862 122.56 99.7116 122.221 99.4995C121.522 99.1018 120.989 98.4663 120.718 97.7083Z" fill="#333333"/>
<path id="Vector_7" d="M121.943 81.7748C122.228 83.9859 122.424 86.2042 122.577 88.4256C122.731 90.6472 122.83 92.8721 122.86 95.1043C122.858 96.2228 122.864 97.3349 122.759 98.4746C122.741 98.619 122.728 98.7601 122.698 98.9108C122.687 98.9879 122.671 99.0643 122.651 99.1396L122.618 99.2616L122.6 99.3223C122.601 99.3216 122.602 99.3206 122.602 99.3194C122.603 99.3182 122.602 99.317 122.602 99.3159C122.61 99.3709 122.633 99.4225 122.668 99.4655C122.734 99.562 122.81 99.6517 122.893 99.7333C123.285 100.096 123.708 100.424 124.156 100.713C125.993 101.91 127.967 102.939 129.923 103.991C128.876 103.614 127.852 103.181 126.835 102.727C125.814 102.271 124.818 101.761 123.852 101.197C123.35 100.913 122.879 100.577 122.447 100.194C122.329 100.085 122.222 99.9639 122.128 99.8333C121.988 99.6566 121.923 99.4325 121.945 99.2083L121.998 98.9806C122.012 98.9211 122.022 98.8608 122.029 98.8001C122.05 98.6772 122.058 98.5406 122.07 98.4088C122.15 97.3312 122.141 96.2155 122.13 95.1108C122.115 92.8946 122.048 90.6733 122.009 88.4508C121.964 86.2281 121.926 84.004 121.943 81.7748ZM114.063 43.1361C114.124 42.1854 114.125 41.2318 114.067 40.281C114.057 40.1736 114.037 40.0673 114.009 39.9633C113.996 39.9252 113.972 39.8729 113.973 39.8856C113.971 39.8805 113.984 39.9031 113.994 39.9047C114.013 39.9123 113.973 39.8933 113.965 39.8889L113.875 39.8411C113.223 39.4553 112.655 38.9421 112.204 38.3318C111.891 37.9061 111.684 37.4117 111.599 36.8895C111.523 36.3501 111.61 35.8003 111.85 35.3113C111.953 35.0742 112.081 34.848 112.23 34.6363C112.31 34.522 112.4 34.4149 112.499 34.3161C112.617 34.1917 112.763 34.0974 112.925 34.041C113.03 34.0083 113.142 34.0007 113.251 34.0188C113.359 34.037 113.462 34.0803 113.551 34.1454C113.683 34.2478 113.791 34.3777 113.868 34.5261C113.993 34.7692 114.083 35.0296 114.134 35.2988L113.537 35.4021C113.328 33.4016 113.494 31.3797 114.024 29.4399C114.281 28.4514 114.836 27.5671 115.615 26.9086C115.717 26.8313 115.829 26.7661 115.936 26.6945L116.279 26.5165C116.515 26.4285 116.75 26.3327 116.989 26.2512C117.235 26.193 117.478 26.1118 117.729 26.0731C117.98 26.028 118.234 25.9995 118.489 25.9876C119.53 25.9414 120.565 26.1706 121.49 26.6521C122.415 27.1336 123.198 27.8506 123.759 28.7311C124.044 29.1742 124.266 29.6559 124.416 30.1615C124.883 31.6498 124.958 33.2341 124.635 34.7603L124.335 34.2924C124.609 34.3556 124.868 34.4694 125.1 34.6278C125.337 34.7848 125.536 34.993 125.683 35.2371C125.945 35.7241 126.014 36.2921 125.877 36.828C125.759 37.2983 125.592 37.755 125.38 38.1908C125.277 38.4143 125.159 38.6299 125.025 38.836C124.948 38.9546 124.856 39.0625 124.751 39.157C124.675 39.2248 124.585 39.2743 124.488 39.3016C124.406 39.3228 124.319 39.3184 124.239 39.289C124.16 39.2595 124.091 39.2063 124.042 39.1365L124.528 39.0457C124.427 39.4432 124.341 39.861 124.267 40.274C124.194 40.6889 124.135 41.1062 124.09 41.5259C124.041 41.9451 124.006 42.366 123.989 42.7886C123.971 43.2113 123.979 43.6342 123.998 44.0592C123.998 44.064 123.998 44.0688 123.996 44.0734C123.995 44.078 123.992 44.0822 123.989 44.0859C123.986 44.0895 123.982 44.0925 123.978 44.0947C123.974 44.0968 123.969 44.0981 123.964 44.0984C123.955 44.0989 123.946 44.0961 123.939 44.0906C123.932 44.0851 123.927 44.0772 123.925 44.0684C123.847 43.6464 123.795 43.22 123.769 42.7915C123.745 42.3628 123.728 41.9317 123.745 41.5018C123.759 41.0719 123.787 40.6424 123.829 40.2135C123.873 39.7833 123.926 39.3605 124.003 38.9256L124.489 38.8348C124.476 38.8105 124.457 38.7908 124.432 38.7785C124.408 38.7661 124.38 38.7617 124.353 38.7659C124.34 38.7644 124.358 38.7619 124.382 38.734C124.443 38.6693 124.495 38.5979 124.539 38.521C124.645 38.3346 124.737 38.1409 124.816 37.9413C124.984 37.5399 125.116 37.1243 125.21 36.6993C125.295 36.333 125.241 35.9481 125.058 35.6197C124.964 35.4707 124.837 35.3449 124.687 35.252C124.536 35.1547 124.37 35.0841 124.196 35.0431C124.096 35.0228 124.009 34.9639 123.952 34.8791C123.895 34.7944 123.874 34.6907 123.893 34.5905L123.896 34.5752C124.067 33.6485 124.095 32.7011 123.98 31.7658C123.925 31.2957 123.833 30.8306 123.705 30.375C123.586 29.9283 123.403 29.501 123.163 29.1065C122.919 28.7107 122.628 28.3464 122.296 28.0218C121.958 27.6993 121.583 27.418 121.179 27.1835C120.366 26.7002 119.442 26.437 118.497 26.4197C118.259 26.4135 118.022 26.4244 117.786 26.4526C117.548 26.4742 117.316 26.5378 117.08 26.578C116.849 26.6417 116.621 26.7195 116.39 26.7895L116.068 26.9334C115.969 26.996 115.864 27.0517 115.768 27.1196C115.006 27.7196 114.469 28.5614 114.247 29.5071C113.995 30.452 113.878 31.4281 113.9 32.406C113.904 33.3802 113.983 34.3527 114.136 35.3146C114.149 35.3919 114.131 35.471 114.087 35.5354C114.042 35.5998 113.975 35.6446 113.899 35.6604C113.822 35.6762 113.743 35.6617 113.677 35.62C113.61 35.5784 113.563 35.5127 113.544 35.4368L113.54 35.418C113.492 35.2163 113.417 35.0221 113.317 34.8412C113.281 34.7765 113.233 34.7197 113.175 34.6739C113.135 34.651 113.154 34.6605 113.121 34.6627C112.975 34.7489 112.853 34.8703 112.765 35.016C112.639 35.1977 112.528 35.3898 112.435 35.5903C112.251 35.9774 112.176 36.4074 112.218 36.8341C112.26 37.2607 112.417 37.6678 112.673 38.0114C112.926 38.3901 113.227 38.7344 113.568 39.0356C113.738 39.1881 113.918 39.329 114.107 39.4571L114.172 39.4986L114.22 39.5292C114.253 39.5505 114.282 39.5772 114.307 39.608C114.361 39.6824 114.397 39.7678 114.414 39.858C114.44 39.9881 114.454 40.1202 114.456 40.2527C114.46 40.7419 114.427 41.2306 114.358 41.7149C114.3 42.1947 114.229 42.6713 114.136 43.145C114.134 43.1546 114.128 43.163 114.12 43.1684C114.112 43.1738 114.102 43.1758 114.093 43.1739C114.084 43.1721 114.077 43.1673 114.071 43.1604C114.066 43.1535 114.063 43.1449 114.063 43.1361Z" fill="#333333"/>
<path id="Vector_8" d="M115.612 33.1161C115.733 32.8397 115.93 32.6033 116.179 32.4335C116.428 32.2571 116.709 32.1319 117.006 32.0652C117.302 32.0061 117.606 31.9986 117.904 32.043C118.05 32.0665 118.194 32.1004 118.336 32.1444C118.474 32.1956 118.608 32.2558 118.738 32.3246C118.589 32.3337 118.447 32.3239 118.306 32.3218C118.164 32.3282 118.025 32.3194 117.887 32.3285C117.617 32.3382 117.348 32.3699 117.083 32.4231C116.547 32.5398 116.044 32.7767 115.612 33.1161ZM121.858 32.1768C121.992 31.9881 122.18 31.8443 122.397 31.764C122.604 31.6763 122.821 31.6152 123.042 31.5819C123.483 31.5111 123.933 31.5426 124.36 31.674C124.152 31.7464 123.939 31.8014 123.722 31.8385C123.512 31.8814 123.304 31.9099 123.097 31.944C122.889 31.9715 122.685 32.0061 122.479 32.0367C122.268 32.0655 122.06 32.1123 121.858 32.1768ZM117.255 34.9187C117.397 34.9138 117.532 34.8537 117.631 34.7512C117.729 34.6486 117.784 34.5117 117.784 34.3691C117.784 34.2266 117.729 34.0896 117.631 33.9871C117.532 33.8845 117.397 33.8245 117.255 33.8195C117.113 33.8245 116.979 33.8845 116.88 33.9871C116.781 34.0896 116.726 34.2266 116.726 34.3691C116.726 34.5117 116.781 34.6486 116.88 34.7512C116.979 34.8537 117.113 34.9138 117.255 34.9187ZM123.041 34.457C123.183 34.4521 123.318 34.3921 123.416 34.2895C123.515 34.187 123.57 34.05 123.57 33.9075C123.57 33.7649 123.515 33.6279 123.416 33.5254C123.318 33.4229 123.183 33.3628 123.041 33.3579C122.899 33.3628 122.764 33.4229 122.666 33.5254C122.567 33.6279 122.512 33.7649 122.512 33.9075C122.512 34.05 122.567 34.187 122.666 34.2895C122.764 34.3921 122.899 34.4521 123.041 34.457ZM114.099 39.7111C114.506 40.1646 114.93 40.5936 115.36 41.0099C115.788 41.4238 116.245 41.8073 116.726 42.1574C117.198 42.5074 117.718 42.7873 118.269 42.9884C118.829 43.1893 119.431 43.2417 120.017 43.1405C119.438 43.3852 118.795 43.4283 118.19 43.2629C117.586 43.1012 117.017 42.8273 116.514 42.4555C115.523 41.7237 114.7 40.788 114.099 39.7111ZM117.255 38.3261C117.713 38.4677 118.173 38.5739 118.629 38.6685C119.084 38.7589 119.544 38.8161 120.007 38.8395C120.465 38.8603 120.925 38.8309 121.378 38.7517C121.837 38.6613 122.285 38.5185 122.712 38.3261C122.345 38.648 121.913 38.8878 121.446 39.0294C120.974 39.1674 120.482 39.2268 119.991 39.2053C119.018 39.1601 118.074 38.8567 117.255 38.3261ZM121.858 35.1294C122.137 35.503 122.295 35.9536 122.311 36.4204C122.316 36.6824 122.223 36.9367 122.051 37.1339C121.871 37.3202 121.637 37.4457 121.382 37.4927C120.921 37.5669 120.449 37.5405 119.999 37.4155C119.562 37.3059 119.139 37.1468 118.738 36.9412C119.183 37.006 119.618 37.0789 120.049 37.1341C120.466 37.1988 120.889 37.1991 121.305 37.1348C121.492 37.1155 121.666 37.0316 121.798 36.8977C121.93 36.7638 122.011 36.5881 122.028 36.4006C122.056 35.9698 121.998 35.5377 121.858 35.1294ZM100.594 154.346C100.594 154.346 98.1558 161.389 100.182 162.338C102.209 163.286 116.597 164.913 116.462 163.625C116.327 162.338 109.437 159.766 108.694 158.882C107.951 157.999 107.92 154.484 107.92 154.484M134.549 152.448C134.549 152.448 133.124 159.766 135.264 160.419C137.404 161.071 151.877 160.648 151.562 159.392C151.248 158.137 144.065 156.564 143.205 155.794C142.345 155.025 141.822 151.549 141.822 151.549M122.174 42.8767C122.637 42.2986 123.047 41.6803 123.401 41.0291C123.577 40.7078 123.734 40.3766 123.871 40.0372C124.019 39.6981 124.129 39.3456 124.265 38.9857C124.282 39.3702 124.241 39.7551 124.142 40.1271C124.048 40.5022 123.907 40.8638 123.722 41.2035C123.54 41.5439 123.316 41.8607 123.058 42.1469C122.805 42.4375 122.507 42.6841 122.174 42.8767ZM121.594 29.8144H118.373C118.349 29.8145 118.325 29.8098 118.303 29.8006C118.281 29.7915 118.26 29.778 118.243 29.761C118.226 29.744 118.213 29.7237 118.204 29.7014C118.194 29.6792 118.19 29.6553 118.19 29.6311C118.19 29.607 118.194 29.5831 118.204 29.5609C118.213 29.5386 118.226 29.5183 118.243 29.5013C118.26 29.4843 118.281 29.4708 118.303 29.4617C118.325 29.4525 118.349 29.4478 118.373 29.4479H121.594C121.619 29.4478 121.642 29.4525 121.665 29.4617C121.687 29.4708 121.707 29.4843 121.724 29.5013C121.741 29.5183 121.755 29.5386 121.764 29.5609C121.773 29.5831 121.778 29.607 121.778 29.6311C121.778 29.6553 121.773 29.6792 121.764 29.7014C121.755 29.7237 121.741 29.744 121.724 29.761C121.707 29.778 121.687 29.7915 121.665 29.8006C121.642 29.8098 121.619 29.8145 121.594 29.8144ZM121.594 30.7601H118.373C118.325 30.7601 118.278 30.7408 118.244 30.7065C118.21 30.6721 118.19 30.6255 118.19 30.5769C118.19 30.5283 118.21 30.4817 118.244 30.4474C118.278 30.413 118.325 30.3937 118.373 30.3937H121.594C121.643 30.3937 121.689 30.413 121.724 30.4474C121.758 30.4817 121.777 30.5283 121.777 30.5769C121.777 30.6255 121.758 30.6721 121.724 30.7065C121.689 30.7408 121.643 30.7601 121.594 30.7601Z" fill="#333333"/>
<path id="Vector_9" d="M189.85 31.648H155.561C155.561 31.7808 155.565 31.9104 155.571 32.0433C155.593 32.521 155.662 32.9954 155.778 33.4593C155.934 34.1588 156.287 34.7986 156.795 35.3029C157.318 35.7716 157.99 36.0381 158.692 36.0546C159.396 36.0643 160.145 36.0352 160.872 36.0255C163.795 35.9736 166.719 35.9671 169.645 35.9607C172.569 35.9671 175.492 35.9736 178.418 36.0255L180.612 36.0644L181.158 36.0741C181.329 36.0771 181.5 36.0608 181.668 36.0255C182.013 35.963 182.345 35.8425 182.65 35.6691C183.279 35.3278 183.782 34.7943 184.087 34.1462C184.391 33.4839 184.582 32.7753 184.653 32.0498C184.644 32.7903 184.499 33.5228 184.226 34.211C184.01 34.7217 183.687 35.1801 183.28 35.5556C183.277 35.5589 183.277 35.5589 183.273 35.5589C183.125 35.6933 182.964 35.8127 182.792 35.9153C182.465 36.1136 182.108 36.258 181.736 36.343C181.546 36.386 181.352 36.4109 181.158 36.4175L180.612 36.4273L178.418 36.4662C175.492 36.518 172.569 36.5245 169.645 36.5309C166.719 36.5245 163.795 36.518 160.872 36.4662C160.135 36.4467 159.422 36.4532 158.666 36.4143C157.89 36.3685 157.158 36.0441 156.602 35.5006C156.091 34.9395 155.754 34.2415 155.632 33.4917C155.515 32.8846 155.482 32.2641 155.536 31.648H150.37C149.916 31.6482 149.481 31.8292 149.16 32.1512C148.839 32.4732 148.659 32.9099 148.658 33.3653V91.1635C148.659 91.6192 148.839 92.0563 149.16 92.3788C149.481 92.7014 149.916 92.8831 150.37 92.884H189.85C190.075 92.8838 190.298 92.8391 190.506 92.7526C190.714 92.666 190.902 92.5392 191.061 92.3794C191.22 92.2197 191.346 92.03 191.432 91.8214C191.518 91.6128 191.562 91.3892 191.562 91.1635V33.3653C191.562 33.1397 191.518 32.9163 191.432 32.7079C191.346 32.4995 191.22 32.3101 191.061 32.1506C190.902 31.9911 190.713 31.8646 190.506 31.7784C190.298 31.6921 190.075 31.6478 189.85 31.648ZM153.035 39.6188H164.034V51.7144H153.035V39.6188ZM155.4 86.6531C152.641 86.6531 152.644 82.3567 155.4 82.3567C158.162 82.3567 158.155 86.6531 155.4 86.6531ZM155.4 79.7581C152.641 79.7581 152.644 75.4648 155.4 75.4648C158.162 75.4649 158.155 79.7581 155.4 79.7581ZM155.4 72.8662C152.641 72.8662 152.644 68.5697 155.4 68.5697C158.162 68.5698 158.155 72.8662 155.4 72.8662ZM155.4 65.9711C152.641 65.9711 152.644 61.6747 155.4 61.6747C158.162 61.6747 158.155 65.9711 155.4 65.9711ZM155.4 59.076C152.641 59.076 152.644 54.7796 155.4 54.7796C158.162 54.7796 158.155 59.076 155.4 59.076ZM185.273 84.9909H160.458V84.0189H185.273V84.9909ZM185.273 78.0991H160.458V77.1271H185.273V78.0991ZM185.273 71.204H160.458V70.2319H185.273V71.204ZM185.273 64.3089H160.458V63.3369H185.273V64.3089ZM185.273 57.4138H160.458V56.4418H185.273V57.4138ZM185.273 50.5187H169.08V49.5467H185.273V50.5187ZM185.273 43.6269H169.08V42.6548H185.273V43.6269ZM176.38 28.1875C175.359 28.0247 174.331 27.9133 173.299 27.8538C173.282 27.8538 173.269 27.8505 173.253 27.8505C172.207 27.7792 171.157 27.7566 170.11 27.7533C169.083 27.763 168.053 27.7857 167.025 27.8537C167.006 27.8537 166.99 27.857 166.971 27.857C165.924 27.9218 164.881 28.019 163.84 28.1875C163.84 28.0741 163.844 27.9639 163.85 27.8537C163.935 26.2459 164.632 24.7319 165.796 23.624C166.961 22.516 168.505 21.8983 170.11 21.8983C171.716 21.8983 173.26 22.516 174.424 23.624C175.589 24.7319 176.286 26.2459 176.37 27.8537C176.377 27.9639 176.38 28.0741 176.38 28.1875Z" fill="#333333"/>
<path id="Vector_10" d="M176.38 28.1874C176.379 29.8546 175.718 31.4531 174.542 32.6316C173.367 33.81 171.773 34.472 170.11 34.472C168.448 34.472 166.854 33.81 165.679 32.6316C164.503 31.4531 163.842 29.8546 163.841 28.1874C164.89 28.2555 165.937 28.2847 166.98 28.3009C168.027 28.3235 169.067 28.3235 170.11 28.3268C171.154 28.3171 172.197 28.3171 173.241 28.2944C174.287 28.2749 175.33 28.2555 176.38 28.1874Z" fill="#333333"/>
<path id="Vector_11" d="M184.653 31.2883V32.0497C184.582 32.7753 184.391 33.4839 184.087 34.1461C183.782 34.7943 183.279 35.3278 182.65 35.669C182.345 35.8424 182.013 35.9629 181.668 36.0254C181.5 36.0607 181.329 36.077 181.158 36.074L180.612 36.0643L178.418 36.0254C175.492 35.9736 172.569 35.9671 169.645 35.9606C166.719 35.9671 163.795 35.9736 160.872 36.0254C160.145 36.0351 159.396 36.0643 158.691 36.0546C157.99 36.038 157.318 35.7715 156.795 35.3028C156.287 34.7986 155.934 34.1587 155.778 33.4592C155.662 32.9953 155.593 32.5209 155.571 32.0432V31.2883C155.574 30.3782 155.935 29.5061 156.577 28.8626C157.218 28.2191 158.088 27.8564 158.995 27.8537H167.025C167.006 27.8537 166.99 27.8569 166.971 27.8569C165.924 27.9217 164.881 28.0189 163.84 28.1874C164.89 28.2555 165.937 28.2846 166.98 28.3008C168.027 28.3235 169.067 28.3235 170.11 28.3268C171.154 28.317 172.197 28.317 173.24 28.2944C174.287 28.2749 175.33 28.2555 176.38 28.1874C175.359 28.0247 174.331 27.9133 173.299 27.8537H181.225C182.133 27.8557 183.003 28.2181 183.646 28.8617C184.288 29.5053 184.65 30.3777 184.653 31.2883Z" fill="#333333"/>
<path id="Vector_12" d="M184.226 34.2109C184.499 33.5228 184.644 32.7902 184.653 32.0497V32.8079C184.653 33.3414 184.528 33.8675 184.29 34.3445C184.052 34.8214 183.706 35.2361 183.28 35.5556C183.687 35.1801 184.01 34.7216 184.226 34.2109Z" fill="#333333"/>
<path id="Vector_13" d="M155.571 31.2883C155.565 31.4082 155.562 31.5313 155.562 31.6479H155.536C155.542 31.528 155.555 31.4082 155.571 31.2883Z" fill="white"/>
<path id="Vector_14" d="M153.312 71.0093C153.572 71.0948 153.826 71.198 154.071 71.3181C154.317 71.4324 154.554 71.5592 154.787 71.693L154.475 71.7196C154.668 71.5051 154.873 71.3043 155.078 71.1029C155.289 70.9086 155.496 70.7089 155.72 70.5282C156.161 70.1476 156.64 69.8137 157.149 69.5317C156.839 70.0257 156.48 70.4863 156.076 70.9063C155.884 71.1208 155.673 71.3162 155.468 71.5171C155.256 71.7109 155.045 71.9052 154.82 72.086L154.651 72.2225L154.508 72.1125C154.296 71.9486 154.088 71.7775 153.888 71.594C153.683 71.4124 153.49 71.2171 153.312 71.0093ZM153.312 64.115C153.572 64.2005 153.826 64.3037 154.071 64.4238C154.317 64.5381 154.554 64.6648 154.787 64.7987L154.475 64.8252C154.668 64.6108 154.873 64.41 155.078 64.2086C155.289 64.0143 155.496 63.8145 155.72 63.6339C156.161 63.2533 156.64 62.9193 157.149 62.6374C156.839 63.1314 156.48 63.592 156.076 64.0119C155.884 64.2264 155.673 64.4219 155.468 64.6228C155.256 64.8166 155.045 65.0109 154.82 65.1916L154.651 65.3282L154.508 65.2182C154.296 65.0542 154.088 64.8832 153.888 64.6997C153.683 64.5181 153.49 64.3228 153.312 64.115ZM153.312 84.798C153.572 84.8835 153.826 84.9867 154.071 85.1068C154.317 85.2211 154.554 85.3478 154.787 85.4817L154.475 85.5082C154.668 85.2938 154.873 85.0929 155.078 84.8916C155.289 84.6973 155.496 84.4975 155.72 84.3169C156.161 83.9363 156.64 83.6023 157.149 83.3203C156.839 83.8143 156.48 84.275 156.076 84.6949C155.884 84.9094 155.673 85.1048 155.468 85.3058C155.256 85.4995 155.045 85.6939 154.82 85.8746L154.651 86.0112L154.508 85.9012C154.296 85.7372 154.088 85.5662 153.888 85.3826C153.683 85.2011 153.49 85.0058 153.312 84.798ZM153.312 77.9037C153.572 77.9892 153.826 78.0923 154.071 78.2124C154.317 78.3267 154.554 78.4535 154.787 78.5874L154.475 78.6139C154.668 78.3995 154.873 78.1986 155.078 77.9972C155.289 77.803 155.496 77.6032 155.72 77.4225C156.161 77.0419 156.64 76.708 157.149 76.426C156.839 76.92 156.48 77.3806 156.076 77.8006C155.884 78.0151 155.673 78.2105 155.468 78.4114C155.256 78.6052 155.045 78.7996 154.82 78.9803L154.651 79.1168L154.508 79.0068C154.296 78.8429 154.088 78.6718 153.888 78.4883C153.683 78.3068 153.49 78.1114 153.312 77.9037ZM153.312 57.1814C153.572 57.2669 153.826 57.3701 154.071 57.4902C154.317 57.6045 154.554 57.7313 154.787 57.8651L154.475 57.8917C154.668 57.6772 154.873 57.4764 155.078 57.275C155.289 57.0807 155.496 56.881 155.72 56.7003C156.161 56.3197 156.64 55.9858 157.149 55.7038C156.839 56.1978 156.48 56.6584 156.076 57.0784C155.884 57.2929 155.673 57.4883 155.468 57.6892C155.256 57.883 155.045 58.0773 154.82 58.2581L154.651 58.3946L154.508 58.2846C154.296 58.1207 154.088 57.9496 153.888 57.7661C153.683 57.5846 153.49 57.3892 153.312 57.1814ZM49.0532 71.4202C49.3485 74.5051 49.503 77.59 49.608 80.6748C49.7124 83.7597 49.7653 86.8446 49.7666 89.9295C49.7704 93.0143 49.7182 96.0992 49.6101 99.1841C49.5055 102.269 49.3502 105.354 49.0532 108.439C48.756 105.354 48.6007 102.269 48.4962 99.1841C48.3927 96.0992 48.3405 93.0143 48.3396 89.9295C48.3385 86.8446 48.3914 83.7597 48.4983 80.6748C48.6033 77.59 48.7578 74.5051 49.0532 71.4202Z" fill="#333333"/>
<path id="Vector_15" d="M101.06 103.642C96.3416 103.939 91.623 104.094 86.9045 104.199C84.5453 104.265 82.186 104.28 79.8268 104.318L72.7489 104.358L65.6711 104.32C63.3119 104.28 60.9526 104.268 58.5934 104.201C53.8748 104.096 49.1562 103.94 44.4377 103.642C49.1563 103.344 53.8748 103.189 58.5934 103.084C60.9526 103.017 63.3119 103.004 65.6711 102.965L72.7489 102.927L79.8268 102.966C82.186 103.005 84.5453 103.02 86.9045 103.086C91.623 103.191 96.3416 103.346 101.06 103.642ZM48.995 102.49C49.6455 101.391 50.3245 100.313 51.0066 99.2377C51.6947 98.1663 52.3825 97.0948 53.0901 96.0374C53.7893 94.974 54.5035 93.9213 55.2209 92.8709C55.9306 91.815 56.6674 90.7785 57.3921 89.7334L57.8393 89.0886L58.3793 89.6821C58.9769 90.3388 59.5597 91.0087 60.1432 91.6781C60.7329 92.3419 61.2945 93.0307 61.8706 93.7065C62.4349 94.3928 63.0022 95.0765 63.5587 95.7697L65.236 97.8426L64.6362 97.8811L66.0508 95.9619C66.5099 95.3137 66.9777 94.6715 67.4296 94.0184C68.3359 92.714 69.2239 91.3971 70.0935 90.0677C70.9673 88.7411 71.8035 87.389 72.6524 86.0454L75.1781 82.0006L75.5715 81.3706L76.0632 81.9767C76.7816 82.8622 77.4928 83.7533 78.1968 84.6499L80.3037 87.3435L82.4077 90.0392C83.1113 90.9361 83.8108 91.8361 84.4966 92.7465L83.2711 92.7655C84.3677 91.198 85.4974 89.6541 86.6242 88.1081C87.7543 86.5646 88.8956 85.029 90.0483 83.5015C91.1994 81.9729 92.363 80.4533 93.539 78.9425C94.1266 78.1869 94.7201 77.4353 95.3194 76.688C95.9175 75.9399 96.5122 75.1892 97.1251 74.4516L97.2413 74.5347C96.7466 75.3567 96.2335 76.1656 95.724 76.9771C95.2175 77.7908 94.7032 78.5989 94.1812 79.4014C93.1425 81.0103 92.0907 82.6099 91.0258 84.2001C89.9632 85.7919 88.8891 87.3756 87.8037 88.9511C86.715 90.5243 85.6294 92.0997 84.5106 93.6513L83.9079 94.4872L83.2851 93.6704C82.5939 92.764 81.9165 91.8471 81.2432 90.9272L79.2165 88.1725L77.1925 85.4157C76.5199 84.4952 75.8542 83.5695 75.1953 82.6385L76.0803 82.6146L73.267 86.4636C72.3361 87.7514 71.3927 89.0305 70.4868 90.3353C69.5768 91.6372 68.685 92.9515 67.8115 94.2783C67.3735 94.9409 66.9516 95.6143 66.5208 96.2818L65.2658 98.3095L65.0161 98.7131L64.666 98.348L62.8208 96.4241C62.2032 95.785 61.5962 95.1365 60.9865 94.4905C60.3885 93.8341 59.7759 93.1906 59.1914 92.5221C58.6007 91.8591 58.0093 91.1968 57.4329 90.5213L58.42 90.47C57.6693 91.4965 56.9306 92.5315 56.1648 93.5473C55.4066 94.5685 54.6454 95.5874 53.8691 96.5956C53.1012 97.6098 52.3136 98.6099 51.5262 99.6101C50.7328 100.606 49.9362 101.6 49.1113 102.573L48.995 102.49Z" fill="#333333"/>
</g>
</svg>
