<svg width="25" height="25" viewBox="0 0 25 25" fill="none" xmlns="http://www.w3.org/2000/svg">
<g id="Frame">
<path id="Vector" d="M17.4 13.325C17.7 13.025 17.825 12.6 17.825 12.175C17.825 11.775 17.7 11.35 17.4 11.15L9.99995 3.65C9.69995 3.325 9.37495 3.125 8.84995 3.125C8.44995 3.125 8.12495 3.225 7.82495 3.55C7.49995 3.85 7.29995 4.275 7.29995 4.675C7.29995 5.1 7.39995 5.525 7.69995 5.825L14.075 12.3L7.59995 19.275C7.29995 19.575 7.19995 20 7.19995 20.425C7.19995 20.825 7.39995 21.25 7.69995 21.575C8.02495 21.775 8.44995 21.875 8.84995 21.875C9.27495 21.875 9.69995 21.675 9.99995 21.35L17.4 13.325Z" fill="black"/>
</g>
</svg>
