<svg width="24" height="25" viewBox="0 0 24 25" fill="none" xmlns="http://www.w3.org/2000/svg">
<g id="notification">
<path id="Vector" fill-rule="evenodd" clip-rule="evenodd" d="M11.9963 1.75293C9.70894 1.75293 7.70279 2.73988 6.31162 4.23305C4.93169 5.71272 4.11423 7.62588 3.7805 9.63052L2.28058 18.6331C2.05409 19.9905 3.12578 21.2504 4.50121 21.2504H8.32601C8.67624 22.9558 10.1942 24.2488 11.9993 24.2488C13.8045 24.2488 15.3216 22.9558 15.6726 21.2504H19.4974C20.8729 21.2504 21.9446 19.9905 21.7181 18.6331L20.2181 9.63052C19.8837 7.62588 19.0677 5.71272 17.6885 4.23305C16.9615 3.45017 16.0807 2.8258 15.1012 2.39904C14.1217 1.97228 13.0647 1.75232 11.9963 1.75293ZM11.9963 3.24685C13.8517 3.24685 15.4626 4.04556 16.5913 5.25675C17.732 6.48068 18.446 8.10885 18.74 9.87351L20.2399 18.876C20.2601 18.9841 20.256 19.0952 20.2278 19.2015C20.1996 19.3077 20.148 19.4063 20.0769 19.4901C20.0058 19.5739 19.9168 19.6407 19.8166 19.6858C19.7163 19.7308 19.6073 19.7529 19.4974 19.7505H4.50121C4.39133 19.7529 4.28229 19.7308 4.18205 19.6858C4.0818 19.6407 3.99287 19.5739 3.92173 19.4901C3.8506 19.4063 3.79905 19.3077 3.77086 19.2015C3.74266 19.0952 3.73853 18.9841 3.75875 18.876L5.26017 9.87351C5.55416 8.10885 6.26662 6.48068 7.40731 5.25675C8.536 4.04556 10.1402 3.24685 11.9963 3.24685ZM12.0796 4.88327C12.052 4.88275 12.0245 4.88375 11.9971 4.88627C10.6209 4.88627 9.43745 5.48024 8.60275 6.37569C7.71779 7.32514 7.12682 8.63907 6.87559 10.1457C6.85958 10.2431 6.86292 10.3427 6.88541 10.4389C6.9079 10.535 6.9491 10.6257 7.00665 10.7059C7.06421 10.7861 7.137 10.8542 7.22087 10.9062C7.30473 10.9583 7.39803 10.9933 7.49543 11.0093C7.59283 11.0253 7.69243 11.022 7.78855 10.9995C7.88466 10.977 7.9754 10.9358 8.05559 10.8783C8.13578 10.8207 8.20385 10.7479 8.25591 10.664C8.30797 10.5802 8.34301 10.4869 8.35901 10.3895C8.5705 9.12205 9.06397 8.0751 9.69994 7.39339C10.2894 6.76042 11.0379 6.38019 11.9963 6.38019C12.0963 6.3888 12.1971 6.37723 12.2926 6.34618C12.388 6.31513 12.4763 6.26522 12.5521 6.19942C12.628 6.13362 12.6898 6.05327 12.734 5.96312C12.7782 5.87297 12.8038 5.77487 12.8094 5.67463C12.815 5.57439 12.8004 5.47405 12.7664 5.37956C12.7325 5.28507 12.68 5.19835 12.6119 5.12455C12.5438 5.05075 12.4616 4.99136 12.3702 4.94992C12.2788 4.90847 12.1799 4.88581 12.0796 4.88327ZM9.88593 21.2504H14.1127C13.9603 21.6891 13.6747 22.0693 13.2959 22.3379C12.917 22.6065 12.4637 22.7502 11.9993 22.7488C11.5349 22.7502 11.0816 22.6065 10.7028 22.3379C10.3239 22.0693 10.0383 21.6891 9.88593 21.2504Z" fill="#1C1C1C"/>
<circle id="Ellipse 11" cx="18" cy="5" r="5" fill="#EB4335"/>
</g>
</svg>
