<svg width="24" height="24" viewBox="0 0 24 24" fill="none" xmlns="http://www.w3.org/2000/svg">
<g id="email">
<path id="Vector" d="M20.0325 19.995H3.96753C3.12246 19.994 2.31228 19.6579 1.71472 19.0603C1.11717 18.4628 0.781022 17.6526 0.780029 16.8075V7.1925C0.781022 6.34743 1.11717 5.53726 1.71472 4.9397C2.31228 4.34214 3.12246 4.006 3.96753 4.005H20.0325C20.8776 4.006 21.6878 4.34214 22.2853 4.9397C22.8829 5.53726 23.219 6.34743 23.22 7.1925V16.8075C23.219 17.6526 22.8829 18.4628 22.2853 19.0603C21.6878 19.6579 20.8776 19.994 20.0325 19.995ZM3.96753 5.13C3.42052 5.13 2.89592 5.3473 2.50912 5.7341C2.12233 6.12089 1.90503 6.6455 1.90503 7.1925V16.8075C1.90503 17.3545 2.12233 17.8791 2.50912 18.2659C2.89592 18.6527 3.42052 18.87 3.96753 18.87H20.0325C20.5795 18.87 21.1041 18.6527 21.4909 18.2659C21.8777 17.8791 22.095 17.3545 22.095 16.8075V7.1925C22.095 6.6455 21.8777 6.12089 21.4909 5.7341C21.1041 5.3473 20.5795 5.13 20.0325 5.13H3.96753Z" fill="#222222"/>
<path id="Vector_2" d="M11.9999 14.28C11.306 14.2811 10.6307 14.056 10.0762 13.6388L1.31993 7.01627C1.25806 6.97285 1.20558 6.91741 1.16562 6.85325C1.12566 6.7891 1.09903 6.71755 1.08734 6.64287C1.07565 6.5682 1.07912 6.49194 1.09756 6.41864C1.116 6.34534 1.14902 6.2765 1.19465 6.21625C1.24028 6.156 1.29759 6.10556 1.36315 6.06794C1.42871 6.03033 1.50117 6.00632 1.57622 5.99733C1.65127 5.98835 1.72736 5.99459 1.79994 6.01566C1.87252 6.03674 1.94012 6.07223 1.99868 6.12002L10.7549 12.75C11.1145 13.0184 11.5512 13.1635 11.9999 13.1635C12.4486 13.1635 12.8853 13.0184 13.2449 12.75L22.0012 6.12002C22.0597 6.07223 22.1273 6.03674 22.1999 6.01566C22.2725 5.99459 22.3486 5.98835 22.4236 5.99733C22.4987 6.00632 22.5712 6.03033 22.6367 6.06794C22.7023 6.10556 22.7596 6.156 22.8052 6.21625C22.8508 6.2765 22.8839 6.34534 22.9023 6.41864C22.9207 6.49194 22.9242 6.5682 22.9125 6.64287C22.9008 6.71755 22.8742 6.7891 22.8342 6.85325C22.7943 6.91741 22.7418 6.97285 22.6799 7.01627L13.9237 13.6388C13.3692 14.056 12.6938 14.2811 11.9999 14.28Z" fill="#222222"/>
<path id="Vector_3" d="M1.56381 18.4275C1.44973 18.4277 1.33829 18.3931 1.24428 18.3285C1.15028 18.2639 1.07815 18.1722 1.03747 18.0656C0.996785 17.959 0.989475 17.8426 1.01651 17.7317C1.04354 17.6209 1.10363 17.5209 1.18882 17.445L8.08881 11.2912C8.20021 11.1918 8.34654 11.1407 8.49563 11.1491C8.64473 11.1575 8.78436 11.2249 8.88381 11.3362C8.98327 11.4476 9.0344 11.594 9.02596 11.7431C9.01753 11.8922 8.95021 12.0318 8.83881 12.1312L1.93881 18.285C1.83635 18.3782 1.70234 18.4291 1.56381 18.4275ZM22.4363 18.4275C22.2978 18.4291 22.1638 18.3782 22.0613 18.285L15.1613 12.1312C15.0499 12.0318 14.9826 11.8922 14.9742 11.7431C14.9657 11.594 15.0169 11.4476 15.1163 11.3362C15.2158 11.2249 15.3554 11.1575 15.5045 11.1491C15.6536 11.1407 15.7999 11.1918 15.9113 11.2912L22.8076 17.445C22.8927 17.5209 22.9528 17.6209 22.9799 17.7317C23.0069 17.8426 22.9996 17.959 22.9589 18.0656C22.9182 18.1722 22.8461 18.2639 22.7521 18.3285C22.6581 18.3931 22.5466 18.4277 22.4326 18.4275H22.4363Z" fill="#222222"/>
</g>
</svg>
