<svg xmlns="http://www.w3.org/2000/svg" width="24" height="24" viewBox="0 0 24 24" fill="none">
  <g clip-path="url(#clip0_1459_32)">
    <path d="M19 19V6C19 4.89543 18.1046 4 17 4H15V3H7C5.89543 3 5 3.89543 5 5V19H4C3.44772 19 3 19.4477 3 20C3 20.5523 3.44772 21 4 21H15V6H17V21H20C20.5523 21 21 20.5523 21 20C21 19.4477 20.5523 19 20 19H19ZM13 19H7V5H13V19ZM10 11H12V13H10V11Z" fill="#333333"/>
  </g>
  <defs>
    <clipPath id="clip0_1459_32">
      <rect width="24" height="24" fill="white"/>
    </clipPath>
  </defs>
</svg>