<svg xmlns="http://www.w3.org/2000/svg" width="48" height="48" viewBox="0 0 48 48" fill="none">
  <path
    d="M37.75 29.2506V34H35.2087C35.0916 33.7133 34.956 33.4344 34.8028 33.165L34.8026 33.1646L34.3158 32.3104L33.9913 31.7409L33.5278 32.2044L28.5 37.2323L27.1339 35.8661L26.7803 35.5126L26.4268 35.8661L25.3661 36.9268L25.0126 37.2803L25.3661 37.6339L28.1464 40.4142L28.5 40.7677L28.8536 40.4142L33.201 36.0667C33.3179 36.8739 33.2254 37.7026 32.9256 38.4713C32.5221 39.5058 31.7687 40.3662 30.7964 40.9025C29.8241 41.4389 28.6945 41.6174 27.6042 41.407C26.5139 41.1965 25.5319 40.6105 24.8291 39.7508C24.1262 38.8911 23.7471 37.8121 23.7576 36.7017C23.7681 35.5914 24.1676 34.5198 24.8866 33.6736C25.6056 32.8273 26.5985 32.26 27.6926 32.0702C28.7867 31.8805 29.9127 32.0803 30.8747 32.635L31.3072 32.8845L31.5573 32.4523L32.3084 31.1539L32.559 30.7206L32.1254 30.4704C31.2036 29.9386 30.1761 29.6161 29.1157 29.526C28.0552 29.4359 26.988 29.5803 25.9897 29.949C24.9914 30.3177 24.0864 30.9016 23.3391 31.6593C22.6755 32.3323 22.1505 33.1276 21.7928 34H19.25V29.2504C19.2501 29.184 19.2765 29.1204 19.3235 29.0735C19.3704 29.0265 19.434 29.0001 19.5004 29H37.4996C37.566 29.0001 37.6296 29.0265 37.6765 29.0735C37.7235 29.1205 37.7499 29.1841 37.75 29.2506Z"
    stroke="#c79744" />
  <path
    d="M7.5 36.7504V27.4931C7.4992 27.1975 7.55703 26.9047 7.67016 26.6316C7.78328 26.3585 7.94945 26.1105 8.15904 25.9021L10.7197 23.3414C10.8471 23.2141 10.9482 23.0629 11.0172 22.8965C11.0862 22.7301 11.1217 22.5518 11.1218 22.3716C11.1218 22.1915 11.0864 22.0131 11.0174 21.8467C10.9485 21.6803 10.8475 21.529 10.7201 21.4017C10.5927 21.2743 10.4415 21.1732 10.2751 21.1043C10.1086 21.0354 9.93026 21 9.75013 21C9.56999 21 9.39162 21.0356 9.22522 21.1046C9.05882 21.1736 8.90764 21.2747 8.78032 21.4021L4.71968 25.4627C4.64982 25.5322 4.59443 25.6149 4.55672 25.7059C4.51901 25.7969 4.49973 25.8946 4.5 25.9931V32.3791C4.50135 32.8718 4.40497 33.3598 4.21644 33.815C4.0279 34.2701 3.75096 34.6834 3.40164 35.0308L3 35.4324V45.0004H4.18936L7.591 41.5988C7.93841 41.2495 8.35164 40.9725 8.8068 40.784C9.26196 40.5955 9.74999 40.4991 10.2426 40.5004H11.5074C11.8029 40.5012 12.0958 40.4434 12.3689 40.3303C12.642 40.2172 12.8899 40.051 13.0984 39.8414L13.9394 39.0004H9.75C9.15347 38.9998 8.58157 38.7625 8.15975 38.3407C7.73794 37.9189 7.50067 37.347 7.5 36.7504Z"
    fill="#c79744" />
  <path
    d="M22.3235 24.5735C22.3704 24.5265 22.434 24.5001 22.5004 24.5H25.4996C25.566 24.5001 25.6296 24.5265 25.6765 24.5735C25.7234 24.6204 25.7499 24.684 25.75 24.7503C25.75 24.7504 25.75 24.7505 25.75 24.7506L25.75 26.5H22.25V24.7504C22.2501 24.684 22.2765 24.6204 22.3235 24.5735Z"
    stroke="#c79744" />
  <path
    d="M13.0088 36.9998H9.75058C9.68414 36.9997 9.62045 36.9733 9.57348 36.9263C9.52656 36.8794 9.50014 36.8158 9.5 36.7494L9.5 27.4924L9.5 27.4911C9.49991 27.4586 9.50625 27.4265 9.51866 27.3966C9.53107 27.3666 9.54929 27.3394 9.57228 27.3166L9.57228 27.3166L9.57324 27.3156L11.5 25.3888V29.9996V29.9998H12L13.0088 36.9998Z"
    stroke="#c79744" />
  <path d="M12.5 9.5H13.0003L13.0006 10H12.5V9.5Z" stroke="#c79744" />
  <path
    d="M11.7803 20.341C11.8582 20.4192 11.9315 20.5017 12 20.5881V13.5H28.5V3.75C28.4998 3.55116 28.4207 3.36052 28.2801 3.21992C28.1395 3.07932 27.9488 3.00023 27.75 3H25.3356L25.0117 4.2957C24.8905 4.78278 24.6097 5.21525 24.2141 5.52414C23.8184 5.83304 23.3308 6.00056 22.8289 6H14.6711C14.1692 6.00056 13.6816 5.83304 13.2859 5.52414C12.8903 5.21525 12.6095 4.78278 12.4883 4.2957L12.1644 3H9.75C9.55116 3.00023 9.36052 3.07932 9.21992 3.21992C9.07932 3.36052 9.00023 3.55116 9 3.75V19.5992C9.24456 19.5334 9.49673 19.5 9.75 19.5C10.1272 19.499 10.5009 19.5728 10.8494 19.7171C11.1979 19.8615 11.5143 20.0735 11.7803 20.341ZM22.5 9C22.5005 8.60231 22.6586 8.22105 22.9398 7.93984C23.221 7.65864 23.6023 7.50045 24 7.5H25.5C25.8977 7.50045 26.279 7.65864 26.5602 7.93984C26.8414 8.22105 26.9995 8.60231 27 9V10.5C26.9995 10.8977 26.8414 11.279 26.5602 11.5602C26.279 11.8414 25.8977 11.9995 25.5 12H24C23.6023 11.9995 23.221 11.8414 22.9398 11.5602C22.6586 11.279 22.5005 10.8977 22.5 10.5V9ZM16.5 9C16.5005 8.60231 16.6586 8.22105 16.9398 7.93984C17.221 7.65864 17.6023 7.50045 18 7.5H19.5C19.8977 7.50045 20.279 7.65864 20.5602 7.93984C20.8414 8.22105 20.9995 8.60231 21 9V10.5C20.9995 10.8977 20.8414 11.279 20.5602 11.5602C20.279 11.8414 19.8977 11.9995 19.5 12H18C17.6023 11.9995 17.221 11.8414 16.9398 11.5602C16.6586 11.279 16.5005 10.8977 16.5 10.5V9ZM10.5 9C10.5005 8.60231 10.6586 8.22105 10.9398 7.93984C11.221 7.65864 11.6023 7.50045 12 7.5H13.5C13.8977 7.50045 14.279 7.65864 14.5602 7.93984C14.8414 8.22105 14.9995 8.60231 15 9V10.5C14.9995 10.8977 14.8414 11.279 14.5602 11.5602C14.279 11.8414 13.8977 11.9995 13.5 12H12C11.6023 11.9995 11.221 11.8414 10.9398 11.5602C10.6586 11.279 10.5005 10.8977 10.5 10.5V9Z"
    stroke="#c79744" />
  <path d="M18.5 9.5H19.0003L19.0006 10H18.5V9.5Z" stroke="#c79744" />
  <path
    d="M39.75 39.25H40.4999C38.2327 41.8205 35.0388 43.5552 31.4467 43.9258C31.5203 43.8956 31.5934 43.8642 31.666 43.8317C32.662 43.3859 33.5526 42.7349 34.2796 41.9211C35.0065 41.1074 35.5535 40.1493 35.8846 39.1096C36.1027 38.4248 36.2239 37.7148 36.2463 37H37.25V38.25V39.25H38.25H39.75ZM44 30C44 33.4043 42.7781 36.529 40.75 38.9586V38.25V21.75V21.7489C40.7497 21.4632 40.7118 21.1814 40.639 20.9101C42.7335 23.3579 44 26.534 44 30ZM22.7205 41.9211C23.2568 42.5215 23.8823 43.0333 24.5734 43.4394C21.9993 42.686 19.73 41.2112 18.0001 39.25H18.75H19.75V38.25V37H20.7538C20.7761 37.7148 20.8974 38.4248 21.1155 39.1096C21.4466 40.1493 21.9935 41.1074 22.7205 41.9211ZM16.25 21.75V36.7722C15.1353 34.764 14.5 32.4547 14.5 30V16H30C32.9898 16 35.7639 16.9424 38.0408 18.5457C37.8637 18.5157 37.6832 18.5002 37.5011 18.5H37.5L19.5 18.5L19.4989 18.5C18.6375 18.501 17.8117 18.8436 17.2026 19.4526C16.5936 20.0617 16.251 20.8875 16.25 21.7489V21.75Z"
    stroke="#c79744" stroke-width="2" />
  <path
    d="M31.3235 24.5735C31.3704 24.5265 31.434 24.5001 31.5004 24.5H34.4996C34.566 24.5001 34.6296 24.5265 34.6765 24.5735C34.7234 24.6204 34.7499 24.684 34.75 24.7503C34.75 24.7504 34.75 24.7505 34.75 24.7506L34.75 26.5H31.25V24.7504C31.2501 24.684 31.2765 24.6204 31.3235 24.5735Z"
    stroke="#c79744" />
  <path
    d="M14.6715 4L14.6709 4C14.6153 4.00006 14.5613 3.9815 14.5175 3.94728C14.4737 3.91305 14.4425 3.86514 14.4291 3.81118L14.429 3.8106L14.3513 3.5H23.1493L23.0717 3.8106L23.0715 3.81118C23.0581 3.86514 23.027 3.91305 22.9832 3.94728L23.2909 4.34136L22.9832 3.94728C22.9394 3.9815 22.8853 4.00006 22.8297 4H22.8292L14.6715 4ZM14.6715 4.5H22.8292H14.6715Z"
    stroke="#c79744" />
  <path
    d="M19.75 24.7494V24.75V26.5H19.5002C19.5001 26.5 19.5001 26.5 19.5 26.5C19.4164 26.5 19.333 26.5038 19.25 26.5113V21.7504C19.2501 21.684 19.2765 21.6204 19.3235 21.5735C19.3704 21.5265 19.434 21.5001 19.5004 21.5H37.4996C37.566 21.5001 37.6296 21.5265 37.6765 21.5735C37.7235 21.6205 37.7499 21.6841 37.75 21.7506V26.5113C37.667 26.5038 37.5836 26.5 37.5 26.5C37.4999 26.5 37.4999 26.5 37.4998 26.5H37.25V24.75V24.7494C37.2492 24.0205 36.9592 23.3216 36.4438 22.8062C35.9284 22.2908 35.2295 22.0008 34.5006 22H34.5L31.5 22L31.4994 22C30.7705 22.0008 30.0716 22.2908 29.5562 22.8062C29.0408 23.3216 28.7508 24.0205 28.75 24.7494V24.75V26.5H28.25V24.75V24.7494C28.2492 24.0205 27.9592 23.3216 27.4438 22.8062C26.9284 22.2908 26.2295 22.0008 25.5006 22H25.5L22.5 22L22.4994 22C21.7705 22.0008 21.0716 22.2908 20.5562 22.8062C20.0408 23.3216 19.7508 24.0205 19.75 24.7494Z"
    stroke="#c79744" />
  <path d="M24.5 9.5H25.0003L25.0006 10H24.5V9.5Z" stroke="#c79744" />
  <path d="M35.75 2.75H36.25V4H35.75V2.75Z" stroke="#c79744" />
  <path d="M33.5 5H34.75V5.5H33.5V5Z" stroke="#c79744" />
  <path d="M35.75 6.5H36.25V7.75H35.75V6.5Z" stroke="#c79744" />
  <path d="M37.25 5H38.5V5.5H37.25V5Z" stroke="#c79744" />
  <path d="M42.5 8.75H43V10H42.5V8.75Z" stroke="#c79744" />
  <path d="M40.25 11H41.5V11.5H40.25V11Z" stroke="#c79744" />
  <path d="M42.5 12.5H43V13.75H42.5V12.5Z" stroke="#c79744" />
  <path d="M44 11H45.25V11.5H44V11Z" stroke="#c79744" />
</svg>