<svg width="48" height="48" viewBox="0 0 48 48" fill="none" xmlns="http://www.w3.org/2000/svg">
<g id="Frame">
<g id="/ SOLID">
<path id="Vector" d="M37.5 28.5H19.5C19.3012 28.5002 19.1105 28.5793 18.9699 28.7199C18.8293 28.8605 18.7502 29.0512 18.75 29.25V34.5H22.137C22.4674 33.5659 22.9994 32.7159 23.6951 32.0104C24.3909 31.305 25.2334 30.7613 26.1629 30.4181C27.0924 30.0748 28.086 29.9403 29.0733 30.0242C30.0606 30.1081 31.0173 30.4083 31.8755 30.9035L31.1245 32.2019C30.0612 31.5887 28.8165 31.3678 27.6072 31.5776C26.3978 31.7873 25.3003 32.4145 24.5056 33.3498C23.7109 34.2852 23.2693 35.4697 23.2576 36.697C23.246 37.9244 23.6651 39.117 24.4419 40.0672C25.2188 41.0175 26.3043 41.6653 27.5094 41.8979C28.7146 42.1305 29.9632 41.9332 31.0379 41.3403C32.1126 40.7475 32.9454 39.7965 33.3914 38.653C33.8374 37.5095 33.8683 36.2458 33.4788 35.0818L28.5 40.0606L25.7197 37.2803L26.7803 36.2197L28.5 37.9394L33.8814 32.5579L34.3682 33.4121C34.5655 33.7592 34.7315 34.1233 34.8639 34.5H38.25V29.25C38.2498 29.0512 38.1707 28.8605 38.0301 28.7199C37.8895 28.5793 37.6988 28.5002 37.5 28.5Z" fill="#1C1C1C"/>
<path id="Vector_2" d="M7.5 36.75V27.4926C7.4992 27.197 7.55703 26.9042 7.67016 26.6311C7.78328 26.358 7.94945 26.1101 8.15904 25.9016L10.7197 23.341C10.8471 23.2137 10.9482 23.0625 11.0172 22.8961C11.0862 22.7297 11.1217 22.5513 11.1218 22.3712C11.1218 22.1911 11.0864 22.0127 11.0174 21.8462C10.9485 21.6798 10.8475 21.5286 10.7201 21.4012C10.5927 21.2738 10.4415 21.1728 10.2751 21.1039C10.1086 21.035 9.93026 20.9995 9.75013 20.9996C9.56999 20.9996 9.39162 21.0351 9.22522 21.1041C9.05882 21.1731 8.90764 21.2742 8.78032 21.4016L4.71968 25.4623C4.64982 25.5318 4.59443 25.6144 4.55672 25.7055C4.51901 25.7965 4.49973 25.8941 4.5 25.9926V32.3787C4.50135 32.8713 4.40497 33.3594 4.21644 33.8145C4.0279 34.2697 3.75096 34.6829 3.40164 35.0303L3 35.432V45H4.18936L7.591 41.5984C7.93841 41.249 8.35164 40.9721 8.8068 40.7836C9.26196 40.595 9.74999 40.4986 10.2426 40.5H11.5074C11.8029 40.5008 12.0958 40.443 12.3689 40.3299C12.642 40.2167 12.8899 40.0506 13.0984 39.841L13.9394 39H9.75C9.15347 38.9993 8.58157 38.7621 8.15975 38.3402C7.73794 37.9184 7.50067 37.3465 7.5 36.75Z" fill="#1C1C1C"/>
<path id="Vector_3" d="M25.5 24H22.5C22.3012 24.0002 22.1105 24.0793 21.9699 24.2199C21.8293 24.3605 21.7502 24.5512 21.75 24.75V27H26.25V24.75C26.2498 24.5512 26.1707 24.3605 26.0301 24.2199C25.8895 24.0793 25.6988 24.0002 25.5 24Z" fill="#1C1C1C"/>
<path id="Vector_4" d="M11.7803 24.4016L9.21968 26.9623C9.14982 27.0318 9.09443 27.1144 9.05672 27.2055C9.01901 27.2965 8.99973 27.3941 9 27.4926V36.75C9.00023 36.9488 9.07932 37.1395 9.21992 37.2801C9.36053 37.4207 9.55116 37.4998 9.75 37.5H13.8052C12.6157 35.1791 11.9968 32.608 12 30V24.1545C11.9315 24.241 11.8582 24.3235 11.7803 24.4016Z" fill="#1C1C1C"/>
<path id="Vector_5" d="M13.501 10.5L13.5 9H12V10.5H13.5L13.501 10.5Z" fill="#1C1C1C"/>
<path id="Vector_6" d="M11.7803 20.341C11.8582 20.4192 11.9315 20.5017 12 20.5881V13.5H28.5V3.75C28.4998 3.55116 28.4207 3.36052 28.2801 3.21992C28.1395 3.07932 27.9488 3.00023 27.75 3H25.3356L25.0117 4.2957C24.8905 4.78278 24.6097 5.21525 24.2141 5.52414C23.8184 5.83304 23.3308 6.00056 22.8289 6H14.6711C14.1692 6.00056 13.6816 5.83304 13.2859 5.52414C12.8903 5.21525 12.6095 4.78278 12.4883 4.2957L12.1644 3H9.75C9.55116 3.00023 9.36052 3.07932 9.21992 3.21992C9.07932 3.36052 9.00023 3.55116 9 3.75V19.5992C9.24456 19.5334 9.49673 19.5 9.75 19.5C10.1272 19.499 10.5009 19.5728 10.8494 19.7171C11.1979 19.8615 11.5143 20.0735 11.7803 20.341ZM22.5 9C22.5005 8.60231 22.6586 8.22105 22.9398 7.93984C23.221 7.65864 23.6023 7.50045 24 7.5H25.5C25.8977 7.50045 26.279 7.65864 26.5602 7.93984C26.8414 8.22105 26.9995 8.60231 27 9V10.5C26.9995 10.8977 26.8414 11.279 26.5602 11.5602C26.279 11.8414 25.8977 11.9995 25.5 12H24C23.6023 11.9995 23.221 11.8414 22.9398 11.5602C22.6586 11.279 22.5005 10.8977 22.5 10.5V9ZM16.5 9C16.5005 8.60231 16.6586 8.22105 16.9398 7.93984C17.221 7.65864 17.6023 7.50045 18 7.5H19.5C19.8977 7.50045 20.279 7.65864 20.5602 7.93984C20.8414 8.22105 20.9995 8.60231 21 9V10.5C20.9995 10.8977 20.8414 11.279 20.5602 11.5602C20.279 11.8414 19.8977 11.9995 19.5 12H18C17.6023 11.9995 17.221 11.8414 16.9398 11.5602C16.6586 11.279 16.5005 10.8977 16.5 10.5V9ZM10.5 9C10.5005 8.60231 10.6586 8.22105 10.9398 7.93984C11.221 7.65864 11.6023 7.50045 12 7.5H13.5C13.8977 7.50045 14.279 7.65864 14.5602 7.93984C14.8414 8.22105 14.9995 8.60231 15 9V10.5C14.9995 10.8977 14.8414 11.279 14.5602 11.5602C14.279 11.8414 13.8977 11.9995 13.5 12H12C11.6023 11.9995 11.221 11.8414 10.9398 11.5602C10.6586 11.279 10.5005 10.8977 10.5 10.5V9Z" fill="#1C1C1C"/>
<path id="Vector_7" d="M19.501 10.5L19.5 9H18V10.5H19.5L19.501 10.5Z" fill="#1C1C1C"/>
<path id="Vector_8" d="M30 15H13.5V30C13.5 38.271 20.229 45 28.5 45H30C38.271 45 45 38.271 45 30C45 21.729 38.271 15 30 15ZM39.75 38.25H38.25V36H35.2074C35.3141 36.9444 35.2202 37.9006 34.9318 38.8062C34.6434 39.7117 34.167 40.5462 33.5338 41.2549C32.9007 41.9636 32.125 42.5307 31.2575 42.9189C30.3901 43.3072 29.4504 43.5078 28.5 43.5078C27.5497 43.5078 26.61 43.3072 25.7425 42.9189C24.8751 42.5307 24.0994 41.9636 23.4662 41.2549C22.8331 40.5462 22.3567 39.7117 22.0683 38.8062C21.7799 37.9006 21.686 36.9444 21.7927 36H18.75V38.25H17.25V21.75C17.2507 21.1535 17.4879 20.5816 17.9097 20.1597C18.3316 19.7379 18.9035 19.5007 19.5 19.5H37.5C38.0965 19.5007 38.6684 19.7379 39.0903 20.1597C39.5121 20.5816 39.7493 21.1535 39.75 21.75V38.25Z" fill="#1C1C1C"/>
<path id="Vector_9" d="M34.5 24H31.5C31.3012 24.0002 31.1105 24.0793 30.9699 24.2199C30.8293 24.3605 30.7502 24.5512 30.75 24.75V27H35.25V24.75C35.2498 24.5512 35.1707 24.3605 35.0301 24.2199C34.8895 24.0793 34.6988 24.0002 34.5 24Z" fill="#1C1C1C"/>
<path id="Vector_10" d="M14.6711 4.5H22.8288C22.9961 4.50018 23.1587 4.44433 23.2906 4.34136C23.4224 4.23839 23.516 4.09423 23.5564 3.93187L23.7894 3H13.7106L13.9435 3.93187C13.9839 4.09423 14.0775 4.23839 14.2094 4.34136C14.3413 4.44433 14.5038 4.50018 14.6711 4.5Z" fill="#1C1C1C"/>
<path id="Vector_11" d="M37.5 21H19.5C19.3012 21.0002 19.1105 21.0793 18.9699 21.2199C18.8293 21.3605 18.7502 21.5512 18.75 21.75V27.129C18.9908 27.0435 19.2445 26.9999 19.5 27H20.25V24.75C20.2507 24.1535 20.488 23.5816 20.9098 23.1598C21.3316 22.738 21.9035 22.5007 22.5 22.5H25.5C26.0965 22.5007 26.6684 22.738 27.0902 23.1598C27.512 23.5816 27.7493 24.1535 27.75 24.75V27H29.25V24.75C29.2507 24.1535 29.488 23.5816 29.9098 23.1598C30.3316 22.738 30.9035 22.5007 31.5 22.5H34.5C35.0965 22.5007 35.6684 22.738 36.0902 23.1598C36.512 23.5816 36.7493 24.1535 36.75 24.75V27H37.5C37.7555 26.9999 38.0092 27.0435 38.25 27.129V21.75C38.2498 21.5512 38.1707 21.3605 38.0301 21.2199C37.8895 21.0793 37.6988 21.0002 37.5 21Z" fill="#1C1C1C"/>
<path id="Vector_12" d="M25.501 10.5L25.5 9H24V10.5H25.5L25.501 10.5Z" fill="#1C1C1C"/>
<path id="Vector_13" d="M35.25 2.25H36.75V4.5H35.25V2.25Z" fill="#1C1C1C"/>
<path id="Vector_14" d="M33 4.5H35.25V6H33V4.5Z" fill="#1C1C1C"/>
<path id="Vector_15" d="M35.25 6H36.75V8.25H35.25V6Z" fill="#1C1C1C"/>
<path id="Vector_16" d="M36.75 4.5H39V6H36.75V4.5Z" fill="#1C1C1C"/>
<path id="Vector_17" d="M42 8.25H43.5V10.5H42V8.25Z" fill="#1C1C1C"/>
<path id="Vector_18" d="M39.75 10.5H42V12H39.75V10.5Z" fill="#1C1C1C"/>
<path id="Vector_19" d="M42 12H43.5V14.25H42V12Z" fill="#1C1C1C"/>
<path id="Vector_20" d="M43.5 10.5H45.75V12H43.5V10.5Z" fill="#1C1C1C"/>
</g>
</g>
</svg>
