<svg width="48" height="48" viewBox="0 0 48 48" fill="none" xmlns="http://www.w3.org/2000/svg">
<g id="Layer_1" clipPath="url(#clip0_223_862)">
<path id="Vector" d="M17.7525 7.29939C17.4519 7.33489 17.1624 7.18979 16.9977 6.93589C16.1058 5.56079 14.5572 4.64999 12.8 4.64999H12.433C9.6487 4.64999 7.4039 6.90549 7.408 9.68099L7.449 43.35H8.2728C8.699 43.35 9.071 43.6718 9.0983 44.0971C9.1282 44.5631 8.7595 44.95 8.3 44.95H0.827199C0.400999 44.95 0.0289988 44.6282 0.00169876 44.2029C-0.0282012 43.7369 0.340499 43.35 0.799999 43.35H5.849L5.808 9.68299C5.8039 6.01999 8.7661 3.04999 12.433 3.04999H12.8C15.1309 3.04999 17.1838 4.26479 18.3585 6.09419C18.6558 6.55729 18.4044 7.22229 17.7525 7.29939ZM18.6 8.84999C15.512 8.84999 13 11.362 13 14.45V15.85C13 16.292 13.358 16.65 13.8 16.65H23.4C23.842 16.65 24.2 16.292 24.2 15.85V14.45C24.2 11.362 21.688 8.84999 18.6 8.84999ZM38.0059 44.1266C37.9845 43.4259 37.998 41.9257 37.9998 38.2506C38 37.8086 37.6418 37.45 37.1998 37.45H21.4002C20.9582 37.45 20.6 37.8086 20.6002 38.2506C20.6021 41.9261 20.6156 43.4261 20.5942 44.1267C20.5804 44.5777 20.9426 44.9501 21.3938 44.9501H37.2063C37.6575 44.95 38.0196 44.5776 38.0059 44.1266ZM44.413 30.85H43.187C41.209 30.85 39.6 32.459 39.6 34.437V44.15C39.6 44.592 39.958 44.95 40.4 44.95H44.413C46.391 44.95 48 43.341 48 41.363V34.437C48 32.459 46.391 30.85 44.413 30.85ZM15.413 30.85H14.187C12.209 30.85 10.6 32.459 10.6 34.437V41.363C10.6 43.341 12.209 44.95 14.187 44.95H18.2C18.642 44.95 19 44.592 19 44.15V34.437C19 32.459 17.391 30.85 15.413 30.85ZM27.7 21.35H18.284C15.918 21.35 14 23.268 14 25.634V28.45C14 28.8917 14.3577 29.2498 14.7994 29.25C14.9627 29.25 15.1637 29.2501 15.4122 29.2501C18.2772 29.2501 20.6 31.5725 20.6 34.4375V35.0501C20.6 35.4919 20.9582 35.8501 21.4 35.8501H27.7C28.1418 35.8501 28.5 35.4919 28.5 35.0501V22.1501C28.5 21.7082 28.1418 21.35 27.7 21.35ZM40.116 21.35H30.9C30.4582 21.35 30.1 21.7082 30.1 22.15V35.05C30.1 35.4918 30.4582 35.85 30.9 35.85H37.2C37.6418 35.85 38 35.4918 38 35.05V34.437C38 31.5794 40.3243 29.25 43.187 29.25H43.6C44.0418 29.25 44.4 28.8918 44.4 28.45V25.634C44.4 23.268 42.482 21.35 40.116 21.35Z" fill="#1C1C1C"/>
</g>
<defs>
<clipPath id="clip0_223_862">
<rect width="48" height="48" fill="white"/>
</clipPath>
</defs>
</svg>
