<svg width="48" height="48" viewBox="0 0 48 48" fill="none" xmlns="http://www.w3.org/2000/svg">
    <g id="Layer_1" clip-path="url(#clip0_1399_851)">
        <path id="Vector"
            d="M6.69991 44.0998L6.699 43.3507L6.658 9.68191C6.658 9.68185 6.658 9.68178 6.658 9.68172C6.65339 6.49224 9.23354 3.8998 12.433 3.8998H12.8C14.8226 3.8998 16.603 4.94889 17.6269 6.52758M6.69991 44.0998L17.6525 6.5517C17.6455 6.54829 17.6356 6.54097 17.6269 6.52758M6.69991 44.0998H7.449M6.69991 44.0998H7.449M17.6269 6.52758L17.001 6.93356L17.6269 6.52755C17.6269 6.52756 17.6269 6.52757 17.6269 6.52758ZM7.449 44.0998H8.2728C8.29688 44.0998 8.31983 44.1092 8.3357 44.1234C8.34989 44.1361 8.34976 44.1437 8.34984 44.1449C8.35184 44.1761 8.32902 44.1998 8.3 44.1998H0.827199C0.803114 44.1998 0.780167 44.1904 0.764296 44.1762C0.750618 44.164 0.750248 44.1565 0.750167 44.1548L0.750158 44.1547C0.74816 44.1235 0.770976 44.0998 0.799999 44.0998H5.849H6.59991M7.449 44.0998H6.59991M6.59991 44.0998L6.599 43.3489M6.59991 44.0998L6.599 43.3489M6.599 43.3489L6.558 9.68197M6.599 43.3489L6.558 9.68197M21.3438 44.1494L21.3438 44.1494C21.343 44.1762 21.3645 44.1999 21.3938 44.1999H37.2061C37.2353 44.1999 37.257 44.1762 37.2563 44.1493L21.3438 44.1494ZM21.3438 44.1494C21.3588 43.6601 21.3572 42.7936 21.354 41.1269C21.3526 40.354 21.3508 39.4091 21.3502 38.2501C21.3502 38.2221 21.3728 38.1998 21.4002 38.1998H37.1998C37.2272 38.1998 37.2498 38.2221 37.2498 38.25C37.2492 39.4111 37.2475 40.3573 37.246 41.1309C37.2429 42.7947 37.2413 43.6603 37.2562 44.1492L21.3438 44.1494ZM6.558 9.68197C6.558 9.68194 6.558 9.68192 6.558 9.68189M6.558 9.68197V9.68189M6.558 9.68189C6.5544 6.43309 9.18104 3.7998 12.433 3.7998M6.558 9.68189L12.433 3.7998M12.433 3.7998H12.8M12.433 3.7998H12.8M12.8 3.7998C14.8641 3.7998 16.6843 4.87484 17.7274 6.49918L12.8 3.7998ZM17.7229 6.53691C17.7207 6.53853 17.7055 6.54952 17.6645 6.55438L17.7297 6.5288C17.7282 6.53205 17.7264 6.53438 17.7229 6.53691ZM13.75 14.4498C13.75 11.776 15.9262 9.5998 18.6 9.5998C21.2738 9.5998 23.45 11.776 23.45 14.4498V15.8498C23.45 15.8776 23.4278 15.8998 23.4 15.8998H13.8C13.7722 15.8998 13.75 15.8776 13.75 15.8498V14.4498ZM43.187 31.5998H44.413C45.9768 31.5998 47.25 32.873 47.25 34.4368V41.3628C47.25 42.9266 45.9768 44.1998 44.413 44.1998H40.4C40.3722 44.1998 40.35 44.1776 40.35 44.1498V34.4368C40.35 32.873 41.6232 31.5998 43.187 31.5998ZM14.187 31.5998H15.413C16.9768 31.5998 18.25 32.873 18.25 34.4368V44.1498C18.25 44.1776 18.2278 44.1998 18.2 44.1998H14.187C12.6232 44.1998 11.35 42.9266 11.35 41.3628V34.4368C11.35 32.873 12.6232 31.5998 14.187 31.5998ZM18.284 22.0998H27.7C27.7275 22.0998 27.75 22.1222 27.75 22.1499V35.0499C27.75 35.0775 27.7276 35.0999 27.7 35.0999H21.4C21.3724 35.0999 21.35 35.0775 21.35 35.0499V34.4373C21.35 31.158 18.6913 28.4999 15.4122 28.4999L15.074 28.4999L14.7997 28.4998C14.7724 28.4998 14.75 28.4777 14.75 28.4498V25.6338C14.75 23.682 16.3322 22.0998 18.284 22.0998ZM30.9 22.0998H40.116C42.0678 22.0998 43.65 23.682 43.65 25.6338V28.4498C43.65 28.4774 43.6276 28.4998 43.6 28.4998H43.187C39.9096 28.4998 37.25 31.1655 37.25 34.4368V35.0498C37.25 35.0774 37.2276 35.0998 37.2 35.0998H30.9C30.8724 35.0998 30.85 35.0774 30.85 35.0498V22.1498C30.85 22.1222 30.8724 22.0998 30.9 22.0998Z"
            stroke="#c79744" stroke-width="1.5" />
    </g>
    <defs>
        <clipPath id="clip0_1399_851">
            <rect width="48" height="48" fill="white" />
        </clipPath>
    </defs>
</svg>