<svg width="24" height="24" viewBox="0 0 24 24" fill="none" xmlns="http://www.w3.org/2000/svg">
<g id="mail">
<path id="Vector" d="M12 11L20 6.34052C19.6784 6.1218 19.2878 6.00244 18.8858 6H5.11424C4.7122 6.00244 4.32163 6.1218 4 6.34052L12 11Z" fill="#1C1C1C"/>
<path id="Vector_2" d="M12.3471 12.3202L12.2379 12.3698H12.1864C12.1272 12.3953 12.0644 12.412 12 12.4194C11.9466 12.4259 11.8926 12.4259 11.8393 12.4194H11.7879L11.6786 12.3698L3.06429 7C3.02313 7.14977 3.00153 7.30391 3 7.45885V16.1398C3 16.6332 3.20319 17.1063 3.56487 17.4552C3.92654 17.804 4.41708 18 4.92857 18H19.0714C19.5829 18 20.0735 17.804 20.4351 17.4552C20.7968 17.1063 21 16.6332 21 16.1398V7.45885C20.9985 7.30391 20.9769 7.14977 20.9357 7L12.3471 12.3202Z" fill="#1C1C1C"/>
</g>
</svg>
