<svg xmlns="http://www.w3.org/2000/svg" width="25" height="24" viewBox="0 0 25 24" fill="none">
  <circle cx="9" cy="10" r="4" stroke="white" stroke-width="2"/>
  <mask id="path-2-inside-1_1127_1768" fill="white">
    <path d="M16 14.0098C16 14.5567 16.4476 15.0099 16.9838 14.9023C17.3985 14.819 17.8024 14.6832 18.1853 14.4972C18.8663 14.1663 19.4632 13.685 19.9311 13.0898C20.3989 12.4945 20.7255 11.8008 20.8861 11.0609C21.0468 10.3211 21.0373 9.55436 20.8584 8.81869C20.6796 8.08301 20.336 7.39756 19.8535 6.81405C19.3711 6.23054 18.7625 5.76421 18.0735 5.45023C17.3846 5.13625 16.6334 4.98282 15.8765 5.00153C15.4509 5.01204 15.0298 5.07683 14.6231 5.19333C14.0973 5.34393 13.9078 5.95204 14.1589 6.43787C14.41 6.9237 15.0106 7.09517 15.5514 7.01393C15.675 6.99538 15.7999 6.98446 15.9254 6.98135C16.3825 6.97006 16.8362 7.06271 17.2522 7.25233C17.6683 7.44195 18.0359 7.72357 18.3272 8.07596C18.6185 8.42835 18.8261 8.8423 18.9341 9.28659C19.0421 9.73087 19.0478 10.1939 18.9508 10.6407C18.8538 11.0875 18.6566 11.5065 18.374 11.866C18.0915 12.2254 17.731 12.5161 17.3197 12.7159C17.2068 12.7708 17.0908 12.8184 16.9726 12.8587C16.4548 13.0348 16 13.4629 16 14.0098Z"/>
  </mask>
  <path d="M16 14.0098C16 14.5567 16.4476 15.0099 16.9838 14.9023C17.3985 14.819 17.8024 14.6832 18.1853 14.4972C18.8663 14.1663 19.4632 13.685 19.9311 13.0898C20.3989 12.4945 20.7255 11.8008 20.8861 11.0609C21.0468 10.3211 21.0373 9.55436 20.8584 8.81869C20.6796 8.08301 20.336 7.39756 19.8535 6.81405C19.3711 6.23054 18.7625 5.76421 18.0735 5.45023C17.3846 5.13625 16.6334 4.98282 15.8765 5.00153C15.4509 5.01204 15.0298 5.07683 14.6231 5.19333C14.0973 5.34393 13.9078 5.95204 14.1589 6.43787C14.41 6.9237 15.0106 7.09517 15.5514 7.01393C15.675 6.99538 15.7999 6.98446 15.9254 6.98135C16.3825 6.97006 16.8362 7.06271 17.2522 7.25233C17.6683 7.44195 18.0359 7.72357 18.3272 8.07596C18.6185 8.42835 18.8261 8.8423 18.9341 9.28659C19.0421 9.73087 19.0478 10.1939 18.9508 10.6407C18.8538 11.0875 18.6566 11.5065 18.374 11.866C18.0915 12.2254 17.731 12.5161 17.3197 12.7159C17.2068 12.7708 17.0908 12.8184 16.9726 12.8587C16.4548 13.0348 16 13.4629 16 14.0098Z" stroke="white" stroke-width="4" mask="url(#path-2-inside-1_1127_1768)"/>
  <mask id="path-3-inside-2_1127_1768" fill="white">
    <path d="M16.7567 20.0411C17.2921 19.9059 17.6217 19.3596 17.428 18.8425C16.8507 17.3018 15.8595 15.9422 14.5549 14.9188C12.9871 13.6889 11.0553 13.0141 9.06268 13.0002C7.07002 12.9863 5.1291 13.6342 3.54426 14.8421C2.22557 15.8473 1.21547 17.1929 0.61684 18.7254C0.415949 19.2397 0.737918 19.7906 1.27133 19.9332C1.80473 20.0759 2.34628 19.755 2.56339 19.2474C3.03673 18.1405 3.79002 17.1689 4.75635 16.4324C5.98909 15.4928 7.4988 14.9889 9.04876 14.9997C10.5987 15.0105 12.1013 15.5354 13.3208 16.492C14.2768 17.242 15.0165 18.224 15.4743 19.3373C15.6843 19.8479 16.2214 20.1763 16.7567 20.0411Z"/>
  </mask>
  <path d="M16.7567 20.0411C17.2921 19.9059 17.6217 19.3596 17.428 18.8425C16.8507 17.3018 15.8595 15.9422 14.5549 14.9188C12.9871 13.6889 11.0553 13.0141 9.06268 13.0002C7.07002 12.9863 5.1291 13.6342 3.54426 14.8421C2.22557 15.8473 1.21547 17.1929 0.61684 18.7254C0.415949 19.2397 0.737918 19.7906 1.27133 19.9332C1.80473 20.0759 2.34628 19.755 2.56339 19.2474C3.03673 18.1405 3.79002 17.1689 4.75635 16.4324C5.98909 15.4928 7.4988 14.9889 9.04876 14.9997C10.5987 15.0105 12.1013 15.5354 13.3208 16.492C14.2768 17.242 15.0165 18.224 15.4743 19.3373C15.6843 19.8479 16.2214 20.1763 16.7567 20.0411Z" stroke="white" stroke-width="4" mask="url(#path-3-inside-2_1127_1768)"/>
  <mask id="path-4-inside-3_1127_1768" fill="white">
    <path d="M23.7409 19.9797C24.2752 19.8403 24.6005 19.2913 24.4027 18.7758C23.8154 17.2454 22.8186 15.8979 21.5129 14.8861C20.2072 13.8742 18.6536 13.2452 17.025 13.0585C16.4764 12.9957 16.026 13.4476 16.0244 13.9998C16.0227 14.5519 16.4712 14.9936 17.0175 15.0738C18.2038 15.2481 19.3315 15.7252 20.2881 16.4666C21.2447 17.2079 21.9882 18.1808 22.453 19.2861C22.6671 19.795 23.2067 20.1191 23.7409 19.9797Z"/>
  </mask>
  <path d="M23.7409 19.9797C24.2752 19.8403 24.6005 19.2913 24.4027 18.7758C23.8154 17.2454 22.8186 15.8979 21.5129 14.8861C20.2072 13.8742 18.6536 13.2452 17.025 13.0585C16.4764 12.9957 16.026 13.4476 16.0244 13.9998C16.0227 14.5519 16.4712 14.9936 17.0175 15.0738C18.2038 15.2481 19.3315 15.7252 20.2881 16.4666C21.2447 17.2079 21.9882 18.1808 22.453 19.2861C22.6671 19.795 23.2067 20.1191 23.7409 19.9797Z" stroke="white" stroke-width="4" mask="url(#path-4-inside-3_1127_1768)"/>
</svg>