<svg xmlns="http://www.w3.org/2000/svg" width="48" height="48" viewBox="0 0 48 48" fill="none">
  <g clip-path="url(#clip0_1399_842)">
    <path
      d="M47.3336 25.5241V47.3336H31.5241V31.1068C31.7972 31.3655 32.1659 31.5241 32.5717 31.5241C33.4133 31.5241 34.0955 30.8418 34.0955 30.0003V26.5717C34.0955 26.1659 33.9369 25.7972 33.6783 25.5241H47.3336Z"
      stroke="#c79744" stroke-width="1.33333" />
    <path
      d="M31.5241 16.8932V11.8092H47.3336V22.4759H33.6783C33.9369 22.2028 34.0955 21.8341 34.0955 21.4283V17.9997C34.0955 17.1582 33.4133 16.4759 32.5717 16.4759C32.1659 16.4759 31.7972 16.6345 31.5241 16.8932Z"
      stroke="#c79744" stroke-width="1.33333" />
    <path
      d="M9.42857 30.1902H8.7619V30.8569V32.5711V33.2378H9.42857H11.3333V35.3331H0.666667V33.2378H2.57143H3.2381V32.5711V30.8569V30.1902H2.57143H1.71429C1.60912 30.1902 1.52381 30.1049 1.52381 29.9997C1.52381 29.8946 1.60912 29.8092 1.71429 29.8092H10.2857C10.3909 29.8092 10.4762 29.8946 10.4762 29.9997C10.4762 30.1049 10.3909 30.1902 10.2857 30.1902H9.42857ZM3.61905 32.5711V33.2378H4.28571H7.71429H8.38095V32.5711V30.8569V30.1902H7.71429H4.28571H3.61905V30.8569V32.5711Z"
      stroke="#c79744" stroke-width="1.33333" />
    <path d="M0.666667 38.3805H11.3333V47.3329H0.666667V38.3805Z" stroke="#c79744" stroke-width="1.33333" />
    <path
      d="M24.1901 32.5711V33.2378H24.8567H28.4758V47.3331H14.3805V33.2378H17.9996H18.6662V32.5711V30.8569V30.1902H17.9996H17.1424C17.0373 30.1902 16.952 30.1049 16.952 29.9997C16.952 29.8946 17.0373 29.8092 17.1424 29.8092H25.7139C25.819 29.8092 25.9043 29.8946 25.9043 29.9997C25.9043 30.1049 25.819 30.1902 25.7139 30.1902H24.8567H24.1901V30.8569V32.5711ZM19.7139 30.1902H19.0472V30.8569V32.5711V33.2378H19.7139H23.1424H23.8091V32.5711V30.8569V30.1902H23.1424H19.7139ZM26.571 46.9521C27.4126 46.9521 28.0948 46.2698 28.0948 45.4283V35.1426C28.0948 34.301 27.4126 33.6188 26.571 33.6188H16.2853C15.4438 33.6188 14.7615 34.301 14.7615 35.1426V45.4283C14.7615 46.2698 15.4438 46.9521 16.2853 46.9521H26.571Z"
      stroke="#c79744" stroke-width="1.33333" />
    <path d="M17.8092 36.6667H25.0473V43.9048H17.8092V36.6667Z" stroke="#c79744" stroke-width="1.33333" />
    <path d="M23.3177 11.3335H4.11001L10.1426 4.09538H17.2852L23.3177 11.3335Z" stroke="#c79744"
      stroke-width="1.33333" />
    <path d="M12.6667 0.666667H14.7619V1.04762H12.6667V0.666667Z" stroke="#c79744" stroke-width="1.33333" />
  </g>
  <defs>
    <clipPath id="clip0_1399_842">
      <rect width="48" height="48" fill="white" />
    </clipPath>
  </defs>
</svg>