<svg width="48" height="48" viewBox="0 0 48 48" fill="none" xmlns="http://www.w3.org/2000/svg">
<g id="Frame" clip-path="url(#clip0_223_851)">
<path id="Vector" d="M30.8572 48H48V24.8571H30.8572V48ZM31.7143 26.5714C31.7143 26.0981 32.0981 25.7143 32.5715 25.7143C33.0448 25.7143 33.4286 26.0981 33.4286 26.5714V30C33.4286 30.4734 33.0448 30.8571 32.5715 30.8571C32.0981 30.8571 31.7143 30.4734 31.7143 30V26.5714Z" fill="#1C1C1C"/>
<path id="Vector_2" d="M48 11.1429H30.8572V23.1429H48V11.1429ZM33.4286 21.4286C33.4286 21.9019 33.0448 22.2857 32.5715 22.2857C32.0981 22.2857 31.7143 21.9019 31.7143 21.4286V18C31.7143 17.5266 32.0981 17.1429 32.5715 17.1429C33.0448 17.1429 33.4286 17.5266 33.4286 18V21.4286Z" fill="#1C1C1C"/>
<path id="Vector_3" d="M9.42857 30.8571H10.2857C10.7591 30.8571 11.1429 30.4733 11.1429 30C11.1429 29.5266 10.7591 29.1429 10.2857 29.1429H1.71429C1.24093 29.1429 0.857143 29.5266 0.857143 30C0.857143 30.4733 1.24093 30.8571 1.71429 30.8571H2.57143V32.5714H0V36H12V32.5714H9.42857V30.8571ZM4.28571 32.5714V30.8571H7.71429V32.5714H4.28571Z" fill="#1C1C1C"/>
<path id="Vector_4" d="M0 37.7143H12V48H0V37.7143Z" fill="#1C1C1C"/>
<path id="Vector_5" d="M24.8571 32.5714V30.8571H25.7142C26.1876 30.8571 26.5714 30.4733 26.5714 30C26.5714 29.5266 26.1876 29.1429 25.7142 29.1429H17.1428C16.6695 29.1429 16.2857 29.5266 16.2857 30C16.2857 30.4733 16.6695 30.8571 17.1428 30.8571H17.9999V32.5714H13.7142V48H29.1428V32.5714H24.8571ZM19.7142 30.8571H23.1428V32.5714H19.7142V30.8571ZM27.4285 45.4286C27.4285 45.9019 27.0447 46.2857 26.5714 46.2857H16.2857C15.8123 46.2857 15.4285 45.9019 15.4285 45.4286V35.1429C15.4285 34.6695 15.8123 34.2857 16.2857 34.2857H26.5714C27.0447 34.2857 27.4285 34.6695 27.4285 35.1429V45.4286Z" fill="#1C1C1C"/>
<path id="Vector_6" d="M17.1428 36H25.7143V44.5714H17.1428V36Z" fill="#1C1C1C"/>
<path id="Vector_7" d="M2.68689 12H24.7416L17.5977 3.42857H9.83072L2.68689 12Z" fill="#1C1C1C"/>
<path id="Vector_8" d="M12 0H15.4286V1.71429H12V0Z" fill="#1C1C1C"/>
</g>
<defs>
<clipPath id="clip0_223_851">
<rect width="48" height="48" fill="white"/>
</clipPath>
</defs>
</svg>
