<svg width="24" height="24" viewBox="0 0 24 24" fill="none" xmlns="http://www.w3.org/2000/svg">
<g id="shower">
<path id="Vector" d="M8.71875 17.8594C8.58933 17.8594 8.48438 17.9643 8.48438 18.0938V19.0312C8.48438 19.1607 8.58933 19.2656 8.71875 19.2656C8.84817 19.2656 8.95312 19.1607 8.95312 19.0312V18.0938C8.95312 17.9643 8.84817 17.8594 8.71875 17.8594ZM11.5312 17.8594C11.4018 17.8594 11.2969 17.9643 11.2969 18.0938V19.0312C11.2969 19.1607 11.4018 19.2656 11.5312 19.2656C11.6607 19.2656 11.7656 19.1607 11.7656 19.0312V18.0938C11.7656 17.9643 11.6607 17.8594 11.5312 17.8594ZM14.3438 17.8594C14.2143 17.8594 14.1094 17.9643 14.1094 18.0938V19.0312C14.1094 19.1607 14.2143 19.2656 14.3438 19.2656C14.4732 19.2656 14.5781 19.1607 14.5781 19.0312V18.0938C14.5781 17.9643 14.4732 17.8594 14.3438 17.8594ZM17.1562 17.8594C17.0268 17.8594 16.9219 17.9643 16.9219 18.0938V19.0312C16.9219 19.1607 17.0268 19.2656 17.1562 19.2656C17.2857 19.2656 17.3906 19.1607 17.3906 19.0312V18.0938C17.3906 17.9643 17.2857 17.8594 17.1562 17.8594ZM19.9688 17.8594C19.8393 17.8594 19.7344 17.9643 19.7344 18.0938V19.0312C19.7344 19.1607 19.8393 19.2656 19.9688 19.2656C20.0982 19.2656 20.2031 19.1607 20.2031 19.0312V18.0938C20.2031 17.9643 20.0982 17.8594 19.9688 17.8594ZM8.71875 20.6719C8.58933 20.6719 8.48438 20.7768 8.48438 20.9062V21.8438C8.48438 21.9732 8.58933 22.0781 8.71875 22.0781C8.84817 22.0781 8.95312 21.9732 8.95312 21.8438V20.9062C8.95312 20.7768 8.84817 20.6719 8.71875 20.6719ZM11.5312 20.6719C11.4018 20.6719 11.2969 20.7768 11.2969 20.9062V21.8438C11.2969 21.9732 11.4018 22.0781 11.5312 22.0781C11.6607 22.0781 11.7656 21.9732 11.7656 21.8438V20.9062C11.7656 20.7768 11.6607 20.6719 11.5312 20.6719ZM14.3438 20.6719C14.2143 20.6719 14.1094 20.7768 14.1094 20.9062V21.8438C14.1094 21.9732 14.2143 22.0781 14.3438 22.0781C14.4732 22.0781 14.5781 21.9732 14.5781 21.8438V20.9062C14.5781 20.7768 14.4732 20.6719 14.3438 20.6719ZM17.1562 20.6719C17.0268 20.6719 16.9219 20.7768 16.9219 20.9062V21.8438C16.9219 21.9732 17.0268 22.0781 17.1562 22.0781C17.2857 22.0781 17.3906 21.9732 17.3906 21.8438V20.9062C17.3906 20.7768 17.2857 20.6719 17.1562 20.6719ZM19.9688 20.6719C19.8393 20.6719 19.7344 20.7768 19.7344 20.9062V21.8438C19.7344 21.9732 19.8393 22.0781 19.9688 22.0781C20.0982 22.0781 20.2031 21.9732 20.2031 21.8438V20.9062C20.2031 20.7768 20.0982 20.6719 19.9688 20.6719ZM12.8672 8.95312C10.192 8.95312 8.01562 11.1295 8.01562 13.8047V14.1094H20.6719V13.8047C20.6719 11.1295 18.4955 8.95312 15.8203 8.95312H12.8672ZM13.1602 7.07812C12.6497 7.07812 12.2344 7.49344 12.2344 8.00391V8.48438H12.8672H15.8203H16.4531V8.00391C16.4531 7.49344 16.0378 7.07812 15.5273 7.07812H15.2812H13.4062H13.1602Z" fill="#1C1C1C"/>
<path id="Vector_2" d="M7.78125 2.85938H9.65625C11.7745 2.85938 13.512 4.52109 13.6338 6.60938H15.0418C14.9187 3.74531 12.5501 1.45312 9.65625 1.45312H7.78125C4.80886 1.45312 2.39062 3.87136 2.39062 6.84375V22.5469H3.79688V18.3281H4.34377C4.47323 18.3281 4.57814 18.2232 4.57814 18.0938C4.57814 17.9643 4.47323 17.8594 4.34377 17.8594H3.79688V6.84375C3.79688 4.64677 5.58427 2.85938 7.78125 2.85938Z" fill="#1C1C1C"/>
<path id="Vector_3" d="M20.9062 14.5781H7.78125C7.39355 14.5781 7.07812 14.8935 7.07812 15.2812C7.07812 15.669 7.39355 15.9844 7.78125 15.9844H20.9062C21.294 15.9844 21.6094 15.669 21.6094 15.2812C21.6094 14.8935 21.294 14.5781 20.9062 14.5781Z" fill="#1C1C1C"/>
</g>
</svg>
