<svg xmlns="http://www.w3.org/2000/svg" width="24" height="24" viewBox="0 0 24 24" fill="none">
  <path d="M12.7348 7.98438C12.7451 7.75903 12.9324 7.57812 13.1602 7.57812H13.4062H15.2812H15.5273C15.7551 7.57812 15.9424 7.75903 15.9527 7.98438H15.8203H12.8672H12.7348ZM15.8203 9.45312C18.1539 9.45312 20.065 11.3006 20.1675 13.6094H8.51995C8.62249 11.3006 10.5336 9.45312 12.8672 9.45312H15.8203Z" stroke="#333333"/>
  <path d="M9.65625 1.95312C12.1028 1.95312 14.1365 3.76022 14.4918 6.10938H14.0805C13.729 3.98445 11.8795 2.35938 9.65625 2.35938H7.78125C5.30812 2.35938 3.29688 4.37062 3.29688 6.84375V17.8281V17.8594V18.3281V18.3594V22.0469H2.89062V6.84375C2.89062 4.1475 5.085 1.95312 7.78125 1.95312H9.65625Z" stroke="#333333"/>
  <path d="M7.78125 15.0781H20.9062C21.0178 15.0781 21.1094 15.1697 21.1094 15.2812C21.1094 15.3928 21.0178 15.4844 20.9062 15.4844H7.78125C7.66969 15.4844 7.57812 15.3928 7.57812 15.2812C7.57812 15.1697 7.66969 15.0781 7.78125 15.0781Z" stroke="#333333"/>
</svg>